<svg width="86" height="86" viewBox="0 0 86 86" fill="none" xmlns="http://www.w3.org/2000/svg">
<g id="aquarius 2">
<path id="Vector" d="M43.0001 9.55554C24.5579 9.55554 9.55566 24.5578 9.55566 43C9.55566 61.4422 24.5579 76.4444 43.0001 76.4444C61.4423 76.4444 76.4445 61.4422 76.4445 43C76.4445 24.5578 61.4423 9.55554 43.0001 9.55554Z" fill="#D5CAE9"/>
<path id="Vector_2" d="M58.0022 35.1645C66.4111 32.4889 71.1889 23.8889 68.7044 15.9578C66.22 8.02669 57.3333 3.72669 48.8289 6.40224C40.42 9.0778 35.6422 17.6778 38.1266 25.6089C40.7066 33.54 49.5933 37.84 58.0022 35.1645ZM42.3311 24.2711C40.5155 18.5378 43.9555 12.2311 50.0711 10.32C56.1866 8.40891 62.6844 11.4667 64.5 17.2C66.3155 22.9334 62.8755 29.24 56.76 31.1511C50.6444 33.1578 44.1466 30.1 42.3311 24.2711Z" fill="#C43100"/>
<path id="Vector_3" d="M34.4955 34.0178C26.9466 37.5533 23.8888 46.9178 27.6155 54.9444C31.3422 62.9711 40.5155 66.6022 48.0644 63.0667C55.6133 59.5311 58.6711 50.1667 54.9444 42.14C51.2177 34.1133 42.0444 30.4822 34.4955 34.0178ZM51.2177 43.86C53.9888 49.6889 51.6955 56.4733 46.2488 59.0533C40.8022 61.6333 34.1133 58.9578 31.4377 53.1289C28.6666 47.3 30.9599 40.5156 36.4066 37.9356C41.8533 35.3556 48.5422 38.0311 51.2177 43.86Z" fill="#FF6A38"/>
<path id="Vector_4" d="M45.7712 47.9689L59.6268 53.9889L69.9467 30.3866L56.0912 24.3666C56.9512 17.1044 54.5623 10.9889 46.5356 7.54886C34.209 2.19775 12.6134 4.6822 7.16676 17.1044C1.72009 29.5266 14.6201 47.1089 26.8512 52.46C34.8779 55.9 40.9934 53.5111 45.7712 47.9689Z" fill="#C43100"/>
<path id="Vector_5" d="M8.88663 13.8555C8.12218 23.0289 20.64 35.8333 31.82 40.7066C39.8466 44.2422 45.3888 42.9044 49.4977 39.0822L63.3533 45.1022L69.7555 30.2911L55.9 24.2711C56.76 17.0089 54.3711 10.8933 46.3444 7.45331C35.1644 2.57998 16.34 4.20442 8.88663 13.8555Z" fill="#FF6A38"/>
<path id="Vector_6" d="M66.2199 28.7622C64.3088 31.3422 62.111 35.3555 60.0088 40.1333C57.9066 44.9111 56.4732 49.3066 55.8999 52.3644L59.6266 53.9889L69.9466 30.3867L66.2199 28.7622Z" fill="#C43100"/>
<path id="Vector_7" d="M57.9066 57.4289C59.4355 58.0978 63.6399 51.7911 67.3666 43.3822C71.0933 34.9734 72.8133 27.6156 71.2844 26.9467C71.0933 26.8511 70.5199 26.5645 70.3288 26.5645C68.7999 25.8956 64.5955 32.2022 60.8688 40.6111C57.2377 49.02 55.4221 56.3778 56.951 57.0467C57.1421 57.0467 57.7155 57.3333 57.9066 57.4289Z" fill="#FF8961"/>
<path id="Vector_8" d="M59.7222 54.0845C60.3911 54.3711 63.2578 49.3067 66.1244 42.8089C68.9911 36.3111 70.7111 30.7689 70.0422 30.4822C69.3733 30.1956 66.5066 35.26 63.64 41.7578C60.7733 48.2556 59.0533 53.7978 59.7222 54.0845Z" fill="#471302"/>
<path id="Vector_9" d="M20.7356 12.04C22.9333 4.30001 39.4644 5.44668 49.4978 11.3711C53.7022 13.8556 56.1867 20.1622 53.9889 27.9022C51.7911 35.7378 46.1533 40.8978 41.4711 39.56C36.7889 38.3178 18.5378 19.8756 20.7356 12.04Z" fill="#FF8961"/>
<path id="Vector_10" d="M59.2444 29.5267C57.2377 28.6667 55.8044 27.52 56.0911 26.9467C56.3777 26.3733 58.1933 26.66 60.1044 27.52C62.1111 28.38 63.5444 29.5267 63.2577 30.1C63.0666 30.7689 61.2511 30.4822 59.2444 29.5267ZM66.5066 16.9133C66.1244 15.6711 66.1244 14.62 66.6022 14.4289C67.08 14.2378 67.7488 15.0978 68.2266 16.34C68.6088 17.5822 68.6088 18.6333 68.1311 18.8244C67.6533 19.0156 66.9844 18.1556 66.5066 16.9133ZM69.5644 30.0044C68.8955 30.7689 68.1311 31.1511 67.8444 30.8644C67.5577 30.5778 67.8444 29.8133 68.5133 29.0489C69.1822 28.2844 69.9466 27.9022 70.2333 28.1889C70.52 28.38 70.1377 29.24 69.5644 30.0044ZM49.3066 18.06C48.4466 16.0533 48.3511 14.1422 49.1155 13.8556C49.7844 13.5689 51.1222 15.0022 51.8866 17.0089C52.7466 19.0156 52.8422 20.9267 52.0777 21.2133C51.4088 21.5 50.1666 20.0667 49.3066 18.06Z" fill="white"/>
<path id="Vector_11" d="M57.5244 66.1244C53.8932 70.4244 51.791 76.0622 53.7021 78.8333C55.9955 82.1778 64.5955 82.7511 68.7999 75.8711C78.7377 59.7222 62.6844 45.7711 62.6844 45.7711C62.6844 45.7711 66.5066 55.3267 57.5244 66.1244Z" fill="#FF8961"/>
<path id="Vector_12" d="M59.7222 66.3155C56.6645 70.1377 54.7533 74.9155 56.2822 77.2089C58.0022 79.8844 64.7867 80.1711 68.4178 74.1511C76.9222 60.1044 64.5956 48.8289 64.5956 48.8289C64.5956 48.8289 67.3667 56.8555 59.7222 66.3155Z" fill="#FF6A38"/>
<path id="Vector_13" d="M62.3977 66.9844C59.4355 71.7622 60.2955 74.3422 60.5821 75.0111C62.111 77.5911 65.551 78.3555 68.991 73.1C77.7821 59.9133 64.3088 49.1155 64.3088 49.1155C64.3088 49.1155 66.6021 60.4866 62.3977 66.9844Z" fill="#FF8961"/>
<path id="Vector_14" d="M66.0289 70.52C66.5067 69.3733 67.5578 68.7044 68.2267 68.9911C68.8956 69.2778 69.0867 70.52 68.6089 71.6666C68.1311 72.8133 67.08 73.4822 66.4111 73.1955C65.6467 72.8133 65.4556 71.6667 66.0289 70.52ZM68.4178 65.8378C68.5134 65.1689 68.8956 64.6911 69.2778 64.7867C69.66 64.8822 69.9467 65.4555 69.7556 66.1244C69.66 66.7933 69.2778 67.2711 68.8956 67.1755C68.5134 67.08 68.3223 66.4111 68.4178 65.8378Z" fill="white"/>
<path id="Vector_15" d="M71.5712 52.0777C72.2401 55.1355 73.9601 58.0022 75.8712 58.0022C78.069 58.0977 81.2223 54.5622 79.6934 50.3577C75.9668 40.5155 64.4045 42.9044 64.4045 42.9044C64.4045 42.9044 69.8512 44.5289 71.5712 52.0777Z" fill="#FF8961"/>
<path id="Vector_16" d="M72.4311 51.2178C73.1 53.7978 74.5334 56.2822 76.0622 56.4734C77.8778 56.6645 80.2667 53.7023 78.8334 50.0711C75.4889 41.5667 66.4111 43.1911 66.4111 43.1911C66.4111 43.1911 70.8067 44.6245 72.4311 51.2178Z" fill="#FF6A38"/>
<path id="Vector_17" d="M73.6734 50.2622C74.7245 53.2245 76.1578 53.7022 76.54 53.7022C78.1645 53.8934 79.6934 52.6511 78.5467 49.3067C75.68 40.9934 66.4111 43.2867 66.4111 43.2867C66.4111 43.2867 72.1445 46.1534 73.6734 50.2622Z" fill="#FF8961"/>
<path id="Vector_18" d="M76.3489 49.88C76.0622 49.3067 76.0622 48.6378 76.4444 48.4467C76.8267 48.2556 77.4 48.5422 77.6867 49.2111C77.9733 49.7844 77.9733 50.4533 77.5911 50.6444C77.3044 50.74 76.7311 50.4533 76.3489 49.88ZM75.1067 47.2045C74.82 46.9178 74.82 46.6311 74.9155 46.44C75.1067 46.2489 75.3933 46.3444 75.68 46.6311C75.9667 46.9178 75.9667 47.2044 75.8711 47.3956C75.68 47.5867 75.3933 47.4911 75.1067 47.2045Z" fill="white"/>
<path id="Vector_19" d="M73.2912 68.9911C72.3356 70.9978 72.049 73.3867 73.0045 74.2467C74.2467 75.2978 77.5912 74.7244 78.5467 71.6667C80.8401 64.5 73.2912 60.5822 73.2912 60.5822C73.2912 60.5822 75.7756 63.9267 73.2912 68.9911Z" fill="#FF8961"/>
<path id="Vector_20" d="M74.2466 68.8C73.4822 70.52 73.1955 72.6223 73.96 73.3867C74.9155 74.2467 77.4955 73.6734 78.3555 71.0934C80.2666 64.8823 74.4377 61.6334 74.4377 61.6334C74.4377 61.6334 76.2533 64.5 74.2466 68.8Z" fill="#FF6A38"/>
<path id="Vector_21" d="M75.2978 68.8956C74.629 70.9978 75.2023 71.9534 75.3934 72.1445C76.2534 73.0045 77.5912 73.0045 78.4512 70.6156C80.5534 64.6911 74.3423 61.8245 74.3423 61.8245C74.3423 61.8245 76.349 65.9334 75.2978 68.8956Z" fill="#FF8961"/>
<path id="Vector_22" d="M77.0178 69.8511C77.1133 69.3734 77.4 68.9911 77.6867 69.0867C77.9733 69.1823 78.1644 69.5645 78.0689 70.0423C77.9733 70.52 77.6867 70.9023 77.4 70.8067C77.1133 70.8067 76.9222 70.3289 77.0178 69.8511ZM77.4956 67.8445C77.4956 67.5578 77.5911 67.3667 77.7822 67.3667C77.9733 67.3667 78.0689 67.5578 78.0689 67.8445C78.0689 68.1311 77.9733 68.3223 77.7822 68.3223C77.6867 68.2267 77.4956 68.0356 77.4956 67.8445Z" fill="white"/>
</g>
</svg>
