<svg width="70" height="70" viewBox="0 0 70 70" fill="none" xmlns="http://www.w3.org/2000/svg">
<g id="aquarius 1" clip-path="url(#clip0_4_414)">
<path id="Vector" d="M35 70C54.33 70 70 54.33 70 35C70 15.67 54.33 0 35 0C15.67 0 0 15.67 0 35C0 54.33 15.67 70 35 70Z" fill="#E5CFCA"/>
<path id="Vector_2" d="M33.2999 16.6L32.8999 16.2C31.5999 14.9 27.6999 16.6 24.2999 20.1C20.7999 23.6 19.0999 27.4 20.3999 28.7L20.7999 29.1C22.0999 30.4 25.9999 28.7 29.3999 25.2C32.7999 21.8 34.5999 18 33.2999 16.6Z" fill="#AC9994"/>
<path id="Vector_3" d="M24.2001 20.1C20.7001 23.6 19.0001 27.4 20.3001 28.7L20.7001 29.1C22.0001 30.4 25.9001 28.7 29.3001 25.2L24.2001 20.1Z" fill="#887771"/>
<path id="Vector_4" d="M23.5129 29.162L33.1299 19.546L34.6849 21.101L25.0689 30.718L23.5129 29.162Z" fill="#AC9994"/>
<path id="Vector_5" d="M23.553 29.172L28.503 24.222L30.058 25.778L25.108 30.728L23.553 29.172Z" fill="#887771"/>
<path id="Vector_6" d="M58.2999 43.2L52.8999 31C47.9999 22 42.6999 19.5 42.6999 19.5C39.8999 18.3 33.4999 20.9 33.4999 20.9L29.1999 25L29.0999 25.1L28.9999 25.2L24.7999 29.5C24.7999 29.5 22.1999 35.8 23.3999 38.7C23.3999 38.7 25.8999 43.9 34.7999 48.9L46.9999 54.3C46.9999 54.3 50.0999 55 54.3999 50.8L54.4999 50.7L54.5999 50.6C58.8999 46.3 58.2999 43.2 58.2999 43.2Z" fill="#AC9994"/>
<path id="Vector_7" d="M54.6999 50.5L29.1999 25L29.0999 25.1L28.9999 25.2L24.7999 29.5C24.7999 29.5 22.1999 35.8 23.3999 38.7C23.3999 38.7 25.8999 43.9 34.7999 48.9L46.9999 54.3C46.9999 54.3 50.0999 55 54.3999 50.8C54.5999 50.6 54.6999 50.6 54.6999 50.5C54.6999 50.6 54.6999 50.6 54.6999 50.5Z" fill="#887771"/>
<path id="Vector_8" d="M31.6999 17.4C30.5999 16.3 27.4999 17.8 24.6999 20.6C21.8999 23.4 20.4999 26.6 21.4999 27.6C22.5999 28.7 25.6999 27.2 28.4999 24.4C31.2999 21.6 32.6999 18.4 31.6999 17.4Z" fill="#74625C"/>
<path id="Vector_9" d="M55.7 22.9C53.4 18.5 48.4 16.6 44.5 18.7C40.6 20.7 39.3 25.9 41.6 30.3C43.9 34.7 48.9 36.6 52.8 34.5C56.7 32.5 58 27.2 55.7 22.9ZM51.5 32.1C48.8 33.5 45.3 32.2 43.7 29.2C42.1 26.2 43 22.6 45.7 21.1C48.4 19.7 51.9 21 53.5 24C55.1 27 54.2 30.7 51.5 32.1Z" fill="#AC9994"/>
<path id="Vector_10" d="M34.3 37.5C29.9 35.2 24.7 36.5 22.7 40.4C20.7 44.3 22.5 49.3 26.9 51.6C31.3 53.9 36.5 52.6 38.5 48.7C40.6 44.8 38.7 39.8 34.3 37.5ZM36.1 47.5C34.7 50.2 31.1 51.1 28 49.5C25 47.9 23.7 44.4 25.1 41.7C26.5 39 30.1 38.1 33.2 39.7C36.3 41.3 37.5 44.7 36.1 47.5Z" fill="#887771"/>
<path id="Vector_11" d="M28.9999 23.9C28.9999 23.9 23.5999 24.4 20.2999 26C20.2999 26 9.99991 31.8 11.8999 41.8C13.6999 51.8 20.1999 52.9 21.6999 52.7C21.6999 52.7 18.2999 41.3 20.8999 35.2C23.4999 29.1 28.9999 23.9 28.9999 23.9Z" fill="#9F8C87"/>
<path id="Vector_12" d="M17.8001 29.7C14.8001 32 12.3001 34.9 12.8001 40.8C13.6001 50 20.4001 51.7 20.4001 51.7C11.8001 43.1 17.8001 29.7 17.8001 29.7Z" fill="#D8C5C0"/>
</g>
<defs>
<clipPath id="clip0_4_414">
<rect width="70" height="70" fill="white"/>
</clipPath>
</defs>
</svg>
