<svg width="86" height="86" viewBox="0 0 86 86" fill="none" xmlns="http://www.w3.org/2000/svg">
<g id="aries 2">
<path id="Vector" d="M43.0001 9.55554C24.5579 9.55554 9.55566 24.5578 9.55566 43C9.55566 61.4422 24.5579 76.4444 43.0001 76.4444C61.4423 76.4444 76.4445 61.4422 76.4445 43C76.4445 24.5578 61.4423 9.55554 43.0001 9.55554Z" fill="#D5CAE9"/>
<path id="Vector_2" d="M66.6978 18.92C61.92 16.7222 56.4734 16.5311 51.4089 17.5822C48.4467 18.2511 44.2423 19.78 42.7134 22.7422C39.56 25.7045 43.1912 32.2022 45.2934 34.6867C46.9178 36.5978 49.6889 36.8845 52.0778 36.98C52.8423 36.98 53.7023 36.8845 54.4667 36.5022C54.4667 36.6934 54.6578 36.7889 54.7534 36.6934C56.9512 34.4 61.6334 35.0689 63.9267 36.98C66.1245 38.7956 75.0112 49.2111 65.4556 58.6711C60.0089 64.1178 59.7223 54.4667 60.1045 54.0845L60.2 53.9889C60.6778 53.4156 60.3912 52.8422 59.9134 52.46C59.6267 52.2689 59.34 52.0778 58.9578 52.2689C57.8112 52.6511 55.8045 56.6645 56.2823 59.7222C56.9512 64.2134 60.8689 66.6022 64.9778 65.7422C75.2978 63.64 80.6489 54.18 81.2223 44.2422C81.7956 33.7311 76.3489 23.5067 66.6978 18.92Z" fill="#FDC11C"/>
<path id="Vector_3" d="M66.7934 40.42C67.08 40.8978 67.3667 41.28 67.6534 41.8533C70.4245 40.9933 72.9089 38.2222 74.6289 36.3111C76.2534 34.5911 77.4956 32.5844 78.4511 30.4822C77.8778 29.4311 77.3045 28.38 76.6356 27.4244C76.2534 29.5266 75.3934 31.3422 74.2467 33.1578C72.24 36.3111 69.7556 38.5089 66.7934 40.42ZM69.0867 45.1978L69.3734 46.3444C72.3356 46.1533 75.2978 44.9111 78.0689 44.1466C79.12 43.86 80.1711 43.4778 81.2222 43.0955V40.9933C79.98 41.5666 78.7378 42.0444 77.5911 42.5222C74.82 43.4778 71.8578 44.1466 69.0867 45.1978ZM58.48 53.4155C58.7667 53.6066 59.34 53.6066 59.6267 53.6066C59.9134 53.6066 59.9134 53.2244 59.6267 53.1289C59.2445 53.1289 59.1489 52.9378 58.8622 52.7466C58.7667 52.6511 58.6711 52.6511 58.48 52.6511C58.48 52.6511 58.3845 52.6511 58.3845 52.5555L58.0978 52.8422C58.1934 53.1289 58.2889 53.32 58.48 53.4155ZM59.1489 55.4222H59.8178V54.8489C59.34 54.9444 58.9578 54.8489 58.48 55.04C58.3845 55.04 58.3845 55.1355 58.48 55.2311C58.7667 55.4222 58.8622 55.4222 59.1489 55.4222ZM57.62 54.7533C57.7156 54.6578 57.7156 54.7533 57.62 54.7533C57.5245 54.5622 57.4289 54.4666 57.2378 54.3711C57.2378 54.4666 57.1422 54.5622 57.1422 54.5622C57.2378 54.6577 57.4289 54.6578 57.62 54.7533ZM62.9711 19.5889C63.8311 21.8822 64.5 24.3666 64.6911 26.8511C64.8822 29.0489 64.5 31.1511 63.9267 33.2533C63.64 34.3044 63.1622 35.26 62.6845 36.2155C63.0667 36.4066 63.5445 36.6933 63.8311 36.98L64.0222 37.1711C65.7422 34.4 66.3156 30.1 66.5067 27.6155C66.6978 24.7489 66.1245 21.3089 65.0734 18.2511C64.0222 17.8689 62.9711 17.5822 61.92 17.3911C62.3022 18.1555 62.6845 18.8244 62.9711 19.5889ZM63.5445 62.2066C63.9267 63.9266 63.0667 64.7866 62.2067 65.8378C62.6845 65.9333 63.0667 65.9333 63.5445 65.9333C64.9778 64.3089 65.1689 61.6333 64.5 59.5311C64.0222 59.9133 63.5445 60.2 63.1622 60.2955C63.2578 60.9644 63.4489 61.6333 63.5445 62.2066ZM59.34 22.5511C60.6778 26.8511 59.9134 31.0555 59.6267 35.3555L61.06 35.6422C62.3978 31.1511 62.0156 25.5133 60.7734 21.3089C60.3911 19.9711 59.6267 18.4422 58.6711 17.0089C57.8111 16.9133 56.9511 16.9133 56.1867 17.0089C57.7156 18.5378 58.6711 20.4489 59.34 22.5511ZM65.0734 38.2222C65.36 38.5089 65.5511 38.7955 65.8378 39.1778C70.1378 35.4511 72.7178 29.3355 73.1 23.3155C72.3356 22.5511 71.4756 21.8822 70.52 21.2133C70.8067 23.6978 70.6156 26.0866 69.9467 28.7622C69.0867 32.3933 66.9845 35.26 65.0734 38.2222ZM68.8956 64.5C68.8956 62.8755 68.8 61.2511 68.2267 59.7222C67.8445 58.8622 67.3667 58.0022 66.6022 57.4289C66.4111 57.7155 66.22 57.9066 65.9334 58.1933C66.0289 58.2889 66.22 58.3844 66.3156 58.48C67.08 59.2444 67.4622 60.5822 67.7489 61.6333C68.0356 62.6844 68.2267 63.8311 68.1311 64.9778C68.4178 64.6911 68.6089 64.5955 68.8956 64.5ZM60.9645 64.5C61.4422 63.2578 61.8245 61.7289 61.92 60.2955C61.7289 60.2 61.6334 60.2 61.4422 60.0089C60.9645 60.9644 60.7734 62.2066 60.4867 63.2577C60.2956 63.9266 60.1045 64.5 59.7222 65.0733C59.9134 65.1689 60.2 65.36 60.4867 65.4555C60.7734 65.1689 60.8689 64.7866 60.9645 64.5ZM72.6222 59.0533C71.4756 57.2378 69.9467 55.9955 67.94 55.4222C67.8445 55.6133 67.6534 55.8044 67.5578 56.0911C69.5645 57.0466 71.0934 58.6711 72.1445 60.5822C72.4311 61.06 72.6222 61.5378 72.8134 62.1111C73.1956 61.8244 73.4822 61.5378 73.8645 61.2511C73.3867 60.3911 73.0045 59.7222 72.6222 59.0533ZM69.1822 52.5555C68.9911 53.1289 68.8 53.6066 68.6089 54.18C70.4245 54.9444 72.4311 55.3266 74.1511 56.2822C75.0111 56.76 75.8711 57.3333 76.6356 58.0022C77.0178 57.4289 77.4 56.8555 77.7822 56.1866C75.2978 54.0844 71.9534 52.46 69.1822 52.5555ZM77.2089 45.7711C74.7245 46.0578 71.9534 46.3444 69.5645 47.3955C69.66 47.7778 69.66 48.2555 69.66 48.6378C72.1445 48.2555 74.6289 47.3955 77.1134 47.2044C78.3556 47.1089 79.5978 46.9178 80.84 46.9178C80.9356 46.3444 81.0311 45.8666 81.0311 45.2933C79.5978 45.2933 78.1645 45.6755 77.2089 45.7711ZM56.9511 62.1111C57.8111 61.8244 58.5756 61.6333 59.2445 61.06C59.6267 60.7733 60.1045 60.3911 60.2 59.9133C60.2956 59.6266 60.4867 59.34 60.6778 59.0533C60.5822 58.8622 60.4867 58.7666 60.4867 58.5755C59.8178 58.9578 59.1489 59.5311 58.5756 60.0089C58.1934 60.3911 57.8111 60.6778 57.4289 61.06C57.2378 61.3466 56.9511 61.5378 56.76 61.8244C56.8556 61.8244 56.8556 62.0155 56.9511 62.1111ZM76.54 51.8866C77.4956 52.1733 78.4511 52.46 79.3111 52.9378C79.5022 52.46 79.6934 51.9822 79.7889 51.5044C79.3111 51.3133 78.9289 51.1222 78.5467 51.0266C75.8711 50.0711 72.5267 49.4978 69.66 50.0711C69.66 50.5489 69.5645 50.9311 69.4689 51.4089C71.7622 51.6955 74.2467 51.2178 76.54 51.8866ZM76.54 38.7C74.0556 40.5155 71.1889 41.8533 68.3222 43.1911C68.5134 43.4778 68.6089 43.86 68.7045 44.1466C71.9534 43.0955 75.1067 41.4711 77.9734 39.56C78.6422 39.0822 79.6934 38.3178 80.7445 37.4578C80.6489 36.6933 80.4578 36.0244 80.2667 35.26C79.2156 36.6933 77.7822 37.7444 76.54 38.7ZM57.8111 58.0022C58.3845 58.0022 59.4356 57.8111 60.1045 57.4289C60.0089 57.1422 60.0089 56.8555 59.9134 56.5689C59.34 56.5689 58.7667 56.8555 58.3845 56.8555C57.8111 56.9511 57.3334 56.9511 56.8556 56.8555C56.6645 56.8555 56.5689 56.76 56.3778 56.6644C56.2822 57.0466 56.2822 57.4289 56.1867 57.7155C56.76 58.0022 57.4289 58.0022 57.8111 58.0022ZM57.9067 35.3555C58.2889 31.2466 56.9511 26.3733 55.5178 23.22C54.7534 21.5955 53.7022 19.3978 52.2689 17.4866C51.9822 17.5822 51.6956 17.5822 51.4089 17.6778C50.6445 17.8689 49.7845 18.06 49.02 18.3466C49.4978 18.6333 49.88 18.92 50.3578 19.3022C51.7911 20.64 52.8422 22.6466 53.7022 24.3666C55.04 26.9466 56.1867 29.5266 56.5689 32.4889C56.6645 33.54 56.6645 34.6866 56.6645 35.7378C56.9511 35.4511 57.4289 35.3555 57.9067 35.3555Z" fill="#FDDD85"/>
<path id="Vector_4" d="M4.87329 44.3378C5.44662 54.2755 10.7977 63.7355 21.1177 65.8378C25.2266 66.6978 29.1444 64.3089 29.8133 59.8178C30.2911 56.76 28.2844 52.7467 27.1377 52.3644C26.7555 52.2689 26.3733 52.3644 26.1822 52.5555C25.7044 52.8422 25.5133 53.5111 25.8955 54.0844L25.9911 54.18C26.3733 54.6578 26.0866 64.2133 20.64 58.7667C11.0844 49.2111 19.9711 38.8911 22.1688 37.0755C24.4622 35.1644 29.1444 34.4955 31.3422 36.7889C31.4377 36.8844 31.6288 36.7889 31.6288 36.5978C32.4888 36.8844 33.3488 37.0755 34.0177 37.0755C36.3111 36.98 39.1777 36.6933 40.8022 34.7822C42.9044 32.2978 46.5355 25.8 43.3822 22.8378C41.8533 19.8755 37.6488 18.2511 34.6866 17.6778C29.6222 16.6267 24.1755 16.8178 19.3977 19.0155C9.65106 23.5067 4.2044 33.7311 4.87329 44.3378Z" fill="#FDC11C"/>
<path id="Vector_5" d="M19.2067 40.42C18.9201 40.8978 18.6334 41.28 18.3467 41.8533C15.5756 40.9933 13.0912 38.2222 11.3712 36.3111C9.74672 34.5911 8.5045 32.5844 7.54894 30.4822C8.12228 29.4311 8.69561 28.38 9.3645 27.4244C9.74672 29.5266 10.6067 31.3422 11.7534 33.1578C13.7601 36.3111 16.2445 38.5089 19.2067 40.42ZM16.9134 45.1978L16.6267 46.3444C13.6645 46.1533 10.7023 44.9111 7.93117 44.1466C6.88005 43.86 5.82894 43.4778 4.77783 43.0955V40.9933C6.02005 41.5666 7.26228 42.0444 8.40894 42.5222C11.1801 43.4778 14.1423 44.1466 16.9134 45.1978ZM27.5201 53.4155C27.2334 53.6066 26.6601 53.6066 26.3734 53.6066C26.0867 53.6066 26.0867 53.2244 26.3734 53.1289C26.7556 53.1289 26.8512 52.9378 27.1378 52.7466C27.2334 52.6511 27.3289 52.6511 27.5201 52.6511C27.5201 52.6511 27.6156 52.6511 27.6156 52.5555L27.9023 52.8422C27.8067 53.1289 27.7112 53.32 27.5201 53.4155ZM26.8512 55.4222H26.1823V54.8489C26.6601 54.9444 27.0423 54.8489 27.5201 55.04C27.6156 55.04 27.6156 55.1355 27.6156 55.2311C27.2334 55.4222 27.1378 55.4222 26.8512 55.4222ZM28.3801 54.7533C28.2845 54.6578 28.2845 54.7533 28.3801 54.7533C28.4756 54.5622 28.5712 54.4666 28.7623 54.3711C28.7623 54.4666 28.8578 54.5622 28.8578 54.5622C28.7623 54.6577 28.5712 54.6578 28.3801 54.7533ZM23.0289 19.5889C22.1689 21.8822 21.5001 24.3666 21.3089 26.8511C21.1178 29.0489 21.5001 31.1511 22.0734 33.2533C22.3601 34.3044 22.8378 35.26 23.3156 36.2155C22.9334 36.4066 22.4556 36.6933 22.1689 36.98L21.9778 37.1711C20.2578 34.4 19.6845 30.1 19.4934 27.6155C19.3023 24.7489 19.8756 21.3089 20.9267 18.2511C21.9778 17.8689 23.0289 17.5822 24.0801 17.3911C23.6978 18.1555 23.3156 18.8244 23.0289 19.5889ZM22.4556 62.2066C22.0734 63.9266 22.9334 64.7866 23.7934 65.8378C23.4112 65.9333 22.9334 66.0289 22.4556 65.9333C21.0223 64.3089 20.8312 61.6333 21.5001 59.5311C21.9778 59.9133 22.4556 60.2 22.8378 60.2955C22.7423 60.9644 22.5512 61.6333 22.4556 62.2066ZM26.6601 22.5511C25.3223 26.8511 26.0867 31.0555 26.3734 35.3555L24.9401 35.6422C23.6023 31.1511 23.9845 25.5133 25.2267 21.3089C25.6089 19.9711 26.3734 18.4422 27.3289 17.0089C28.1889 16.9133 29.0489 16.9133 29.8134 17.0089C28.2845 18.5378 27.3289 20.4489 26.6601 22.5511ZM20.9267 38.2222C20.6401 38.5089 20.4489 38.7955 20.1623 39.1778C15.8623 35.4511 13.2823 29.3355 12.9001 23.3155C13.6645 22.5511 14.5245 21.8822 15.4801 21.2133C15.1934 23.6978 15.3845 26.0866 16.0534 28.7622C16.9134 32.3933 19.0156 35.26 20.9267 38.2222ZM17.1045 64.5C17.1045 62.8755 17.2001 61.2511 17.7734 59.7222C18.1556 58.8622 18.6334 58.0022 19.3978 57.4289C19.5889 57.7155 19.7801 57.9066 20.0667 58.1933C19.9712 58.2889 19.7801 58.3844 19.6845 58.48C18.9201 59.2444 18.5378 60.5822 18.2512 61.6333C17.9645 62.6844 17.7734 63.8311 17.8689 64.9778C17.5823 64.6911 17.3912 64.5955 17.1045 64.5ZM25.0356 64.5C24.5578 63.2578 24.1756 61.7289 24.1756 60.2955C24.3667 60.2 24.4623 60.2 24.6534 60.0089C25.1312 60.9644 25.3223 62.2066 25.6089 63.2577C25.8001 63.9266 25.9912 64.5 26.3734 65.0733C26.1823 65.1689 25.8956 65.36 25.6089 65.4555C25.2267 65.1689 25.1312 64.7866 25.0356 64.5ZM13.3778 59.0533C14.5245 57.2378 16.0534 55.9955 18.0601 55.4222C18.1556 55.6133 18.3467 55.8044 18.4423 56.0911C16.4356 57.0466 14.9067 58.6711 13.8556 60.5822C13.5689 61.06 13.3778 61.5378 13.1867 62.1111C12.8045 61.8244 12.5178 61.5378 12.1356 61.2511C12.6134 60.3911 12.9956 59.7222 13.3778 59.0533ZM16.8178 52.5555C17.0089 53.1289 17.2001 53.6066 17.3912 54.18C15.5756 54.9444 13.5689 55.3266 11.8489 56.2822C10.9889 56.76 10.1289 57.3333 9.3645 58.0022C8.98228 57.4289 8.60005 56.8555 8.21783 56.1866C10.7023 54.0844 14.0467 52.46 16.8178 52.5555ZM8.79117 45.7711C11.2756 46.0578 14.0467 46.3444 16.4356 47.3955C16.3401 47.7778 16.3401 48.2555 16.3401 48.6378C13.8556 48.2555 11.3712 47.3955 8.88672 47.2044C7.6445 47.1089 6.40228 46.9178 5.16005 46.9178C5.0645 46.3444 4.96894 45.8666 4.96894 45.2933C6.40228 45.2933 7.83561 45.6755 8.79117 45.7711ZM29.0489 62.1111C28.1889 61.8244 27.4245 61.6333 26.7556 61.06C26.3734 60.7733 25.8956 60.3911 25.8001 59.9133C25.7045 59.6266 25.5134 59.34 25.3223 59.0533C25.4178 58.8622 25.5134 58.7666 25.5134 58.5755C26.1823 58.9578 26.8512 59.5311 27.4245 60.0089C27.8067 60.3911 28.1889 60.6778 28.4756 61.06C28.6667 61.3466 28.9534 61.5378 29.1445 61.8244C29.1445 61.8244 29.1445 62.0155 29.0489 62.1111ZM9.46005 51.8866C8.5045 52.1733 7.54894 52.46 6.68894 52.9378C6.49783 52.46 6.30672 51.9822 6.21117 51.5044C6.68894 51.3133 7.07117 51.1222 7.45339 51.0266C10.1289 50.0711 13.4734 49.4978 16.3401 50.0711C16.3401 50.5489 16.4356 50.9311 16.5312 51.4089C14.2378 51.6955 11.7534 51.2178 9.46005 51.8866ZM9.46005 38.7C11.9445 40.5155 14.8112 41.8533 17.6778 43.1911C17.4867 43.4778 17.3912 43.86 17.2956 44.1466C14.0467 43.0955 10.8934 41.4711 8.02672 39.56C7.35783 39.0822 6.30672 38.3178 5.25561 37.4578C5.35117 36.6933 5.54228 36.0244 5.73339 35.26C6.7845 36.6933 8.21783 37.7444 9.46005 38.7ZM28.1889 58.0022C27.6156 58.0022 26.5645 57.8111 25.8956 57.4289C25.9912 57.1422 25.9912 56.8555 26.0867 56.5689C26.5645 56.5689 27.2334 56.8555 27.6156 56.8555C28.1889 56.9511 28.6667 56.9511 29.1445 56.8555C29.3356 56.8555 29.4312 56.76 29.6223 56.6644C29.7178 57.0466 29.7178 57.4289 29.8134 57.7155C29.2401 58.0022 28.5712 58.0022 28.1889 58.0022ZM28.0934 35.3555C27.7112 31.2466 29.0489 26.3733 30.4823 23.22C31.2467 21.5955 32.2978 19.3978 33.7312 17.4866C34.0178 17.5822 34.3045 17.5822 34.5912 17.6778C35.3556 17.8689 36.2156 18.06 36.9801 18.3466C36.5023 18.6333 36.1201 18.92 35.6423 19.3022C34.2089 20.64 33.1578 22.6466 32.2978 24.3666C30.9601 26.9466 29.8134 29.5266 29.4312 32.4889C29.3356 33.54 29.3356 34.6866 29.3356 35.7378C29.0489 35.4511 28.5712 35.3555 28.0934 35.3555Z" fill="#FDDD85"/>
<path id="Vector_6" d="M58.0978 33.2533C54.5623 30.2911 43.4778 26.7556 43.0001 26.7556C42.5223 26.7556 31.4378 30.2911 27.9023 33.2533C24.7489 35.9289 26.3734 39.9422 26.6601 43.2867C26.8512 45.2933 26.7556 47.5867 27.7112 49.4022C28.9534 51.6956 30.2912 53.8933 31.1512 56.3778C31.9156 58.5756 32.9667 60.2 34.4001 62.0156C34.7823 62.4933 35.0689 63.0667 35.5467 63.4489C36.4067 66.3156 39.3689 68.7044 42.3312 68.9911H43.4778C46.4401 68.7044 49.4023 66.22 50.2623 63.4489C50.7401 63.0667 51.0267 62.4933 51.4089 62.0156C52.8423 60.2 53.8934 58.48 54.6578 56.3778C55.5178 53.8933 56.8556 51.7911 58.0978 49.4022C59.0534 47.5867 58.9578 45.2933 59.1489 43.2867C59.6267 39.8467 61.2512 35.8333 58.0978 33.2533Z" fill="#C43100"/>
<path id="Vector_7" d="M60.9644 32.2022C58.2888 30.1956 55.231 27.9022 52.2688 26.4689C47.6822 24.2711 44.3377 24.2711 43.0955 21.1178H42.9044C41.6622 24.2711 38.3177 24.3667 33.731 26.4689C30.7688 27.9022 27.8066 30.1956 25.0355 32.2022C24.9399 32.4889 24.8444 32.8711 24.7488 33.1578C23.8888 36.12 25.3222 38.4134 27.711 40.1334C29.0488 41.0889 30.6733 43.6689 32.2977 43.9556C34.0177 44.3378 35.5466 46.44 35.451 49.1156C35.2599 53.2245 31.9155 51.7911 31.8199 55.9956C31.7244 59.9134 37.2666 67.3667 41.471 64.8822C42.0444 64.7867 42.5222 64.5956 42.9999 64.2134C43.3822 64.5956 43.9555 64.7867 44.5288 64.8822C48.7333 67.3667 54.2755 59.9134 54.1799 55.9956C54.0844 51.7911 50.8355 53.2245 50.5488 49.1156C50.4533 46.44 51.9822 44.2422 53.7022 43.9556C55.3266 43.5734 56.951 41.0889 58.2888 40.1334C60.6777 38.3178 62.111 36.12 61.251 33.1578C61.251 32.8711 61.1555 32.4889 60.9644 32.2022Z" fill="#A82A00"/>
<path id="Vector_8" d="M31.6289 40.8022C31.6289 38.1266 30.1956 36.0244 28.4756 36.0244C26.7556 36.0244 25.3223 38.1266 25.3223 40.8022C25.3223 43.4777 26.7556 45.58 28.4756 45.58C30.1956 45.58 31.6289 43.4777 31.6289 40.8022Z" fill="#471302"/>
<path id="Vector_9" d="M27.0422 41.28C26.9466 40.8022 26.6599 40.42 26.3733 40.42C26.0866 40.5155 25.9911 40.8978 26.0866 41.4711C26.1822 41.9489 26.4688 42.3311 26.7555 42.3311C27.0422 42.3311 27.1377 41.8533 27.0422 41.28ZM27.4244 43.1911C27.4244 43 27.2333 42.9044 27.0422 42.9044C26.8511 42.9044 26.7555 43.0955 26.7555 43.2866C26.7555 43.4778 26.9466 43.5733 27.1377 43.5733C27.3288 43.4778 27.4244 43.3822 27.4244 43.1911Z" fill="#FDDD85"/>
<path id="Vector_10" d="M60.6778 40.8022C60.6778 38.1266 59.2444 36.0244 57.5244 36.0244C55.8044 36.0244 54.3711 38.1266 54.3711 40.8022C54.3711 43.4777 55.8044 45.58 57.5244 45.58C59.2444 45.58 60.6778 43.4777 60.6778 40.8022Z" fill="#471302"/>
<path id="Vector_11" d="M56.1866 42.8089C55.8999 42.4266 55.4221 42.14 55.231 42.3311C55.0399 42.5222 55.1355 43 55.4221 43.3822C55.7088 43.7644 56.1866 44.0511 56.3777 43.86C56.5688 43.6689 56.5688 43.1911 56.1866 42.8089ZM57.3332 44.3378C57.2377 44.2422 57.0466 44.1466 56.8555 44.2422C56.6644 44.3378 56.6644 44.5289 56.7599 44.72C56.8555 44.8155 57.0466 44.9111 57.2377 44.8155C57.4288 44.6244 57.4288 44.4333 57.3332 44.3378Z" fill="#FDDD85"/>
<path id="Vector_12" d="M60.9644 32.2022C58.2888 30.1956 55.231 27.9022 52.2688 26.4689C47.6822 24.2711 44.3377 24.2711 43.0955 21.1178H42.9044C41.6622 24.2711 38.3177 24.3667 33.731 26.4689C30.7688 27.9022 27.8066 30.1956 25.0355 32.2022C24.9399 32.4889 24.8444 32.8711 24.7488 33.1578C23.8888 36.12 25.3222 38.4134 27.711 40.1334C29.0488 41.0889 30.6733 42.14 32.2977 42.5222C34.0177 42.9045 35.5466 42.14 35.451 44.72C35.2599 48.8289 31.9155 51.7911 31.8199 55.9956C31.7244 59.9134 37.2666 67.3667 41.471 64.8822C42.0444 64.7867 42.5222 64.5956 42.9999 64.2134C43.3822 64.5956 43.9555 64.7867 44.5288 64.8822C48.7333 67.3667 54.2755 59.9134 54.1799 55.9956C54.0844 51.7911 50.8355 48.8289 50.5488 44.72C50.4533 42.0445 51.9822 42.8089 53.7022 42.5222C55.3266 42.14 56.951 41.1845 58.2888 40.1334C60.6777 38.3178 62.111 36.12 61.251 33.1578C61.251 32.8711 61.1555 32.4889 60.9644 32.2022Z" fill="#FF6A38"/>
<path id="Vector_13" d="M42.9999 35.3556C47.0133 35.3556 45.2933 20.64 42.9999 21.1178C40.7066 20.5445 38.9866 35.3556 42.9999 35.3556ZM24.4622 35.3556C24.6533 37.2667 25.8955 38.7956 27.6155 40.1333C28.9533 41.0889 30.5777 42.14 32.2022 42.5222C33.2533 42.7133 34.3044 42.5222 34.8777 43C35.3555 42.3311 35.5466 41.6622 35.5466 40.8978C35.5466 37.7445 31.151 35.26 25.7044 35.26C25.4177 35.3556 24.9399 35.3556 24.4622 35.3556ZM49.8799 49.4022C49.8799 42.8089 46.8222 36.0245 42.9999 36.0245C39.1777 36.0245 36.1199 42.8089 36.1199 49.4022C36.1199 55.9956 39.1777 59.8178 42.9999 59.8178C46.8222 59.8178 49.8799 55.9 49.8799 49.4022ZM60.1044 35.3556C54.6577 35.3556 50.3577 37.9356 50.3577 40.9933C50.3577 41.7578 50.6444 42.4267 51.0266 43C51.5999 42.5222 52.651 42.7133 53.7022 42.5222C55.3266 42.14 56.951 41.1845 58.2888 40.1333C60.0088 38.7956 61.2511 37.2667 61.4422 35.3556H60.1044Z" fill="#FF8961"/>
<path id="Vector_14" d="M43.0001 64.5955C43.669 65.36 45.4846 66.22 46.4401 66.1244C47.5868 66.0289 48.9246 65.1689 50.0712 64.3089C50.1668 64.0222 50.2623 63.8311 50.3579 63.5444C49.4979 64.1178 48.5423 64.6911 47.7779 64.7867C45.9623 65.0733 44.2423 64.7866 43.3823 63.2578C43.669 63.0666 43.8601 62.3022 43.8601 62.1111C44.1468 61.1555 46.1534 59.0533 46.3446 58.8622C47.109 58.2889 47.5868 57.62 48.1601 56.9511C48.3512 56.76 48.0646 56.3778 47.8734 56.5689C47.2046 57.0466 46.5357 57.62 45.7712 57.9066C45.0068 58.1933 43.9557 58.0978 43.1912 58.1933C43.0957 58.1933 43.0001 58.1933 43.0001 58.2889C42.9046 58.2889 42.809 58.1933 42.809 58.1933C41.949 58.0978 40.9934 58.1933 40.229 57.9066C39.4646 57.62 38.7957 57.0466 38.1268 56.5689C37.8401 56.3778 37.649 56.76 37.8401 56.9511C38.4134 57.62 38.9868 58.3844 39.6557 58.8622C39.8468 59.0533 41.8534 61.1555 42.1401 62.1111C42.2357 62.3022 42.3312 63.0666 42.6179 63.2578C41.7579 64.7866 40.0379 65.0733 38.2223 64.7867C37.4579 64.6911 36.5023 64.1178 35.6423 63.5444C35.7379 63.8311 35.8334 64.0222 35.929 64.3089C37.1712 65.2644 38.509 66.0289 39.5601 66.1244C40.5157 66.22 42.3312 65.36 43.0001 64.5955Z" fill="#A82A00"/>
<path id="Vector_15" d="M39.6555 58.7666C39.7511 58.7666 39.8466 58.9578 40.0377 59.1489C40.1333 59.2444 40.1333 59.2444 40.2289 59.2444C40.9933 59.5311 45.1022 59.5311 45.8666 59.2444H45.9622L46.3444 58.8622C47.1089 58.2889 47.5866 57.62 48.16 56.9511C48.3511 56.76 48.0644 56.3778 47.8733 56.5689C47.2044 57.0466 46.5355 57.62 45.7711 57.9066C45.0066 58.1933 40.8977 58.1933 40.1333 57.9066C39.3689 57.62 38.7 57.0466 38.0311 56.5689C37.7444 56.3778 37.5533 56.76 37.7444 56.9511C38.3177 57.5244 38.8911 58.2889 39.6555 58.7666Z" fill="#471302"/>
</g>
</svg>
