<svg width="70" height="70" viewBox="0 0 70 70" fill="none" xmlns="http://www.w3.org/2000/svg">
<g id="aries 1" clip-path="url(#clip0_2_141)">
<path id="Vector" d="M35 0C15.7 0 0 15.7 0 35C0 54.3 15.7 70 35 70C54.3 70 70 54.3 70 35C70 15.7 54.3 0 35 0Z" fill="#E5CFCA"/>
<path id="Vector_2" d="M62.6999 25.1C59.8999 12.1 44.3999 16.4 44.3999 16.4C37.6999 18 36.3999 25.6 36.3999 25.6C36.5999 27.9 41.8999 31 41.8999 31C44.4999 32.1 45.2999 29.7 45.2999 29.7L47.3999 25.9C49.9999 22.4 52.4999 23.3 52.4999 23.3C52.4999 24.5 54.0999 30.9 54.0999 30.9C55.1999 33.8 54.3999 40 54.3999 40C54.0999 43.4 56.6999 43.1 56.6999 43.1C57.7999 42.2 59.0999 40.4 59.5999 39.7L59.7999 39.5C63.9999 34.4 62.6999 25.1 62.6999 25.1Z" fill="#74625C"/>
<path id="Vector_3" d="M52.8999 42.6C52.3999 44.8 54.9999 46.4 56.5999 43.5C58.4999 40.1 65.0999 37.6 65.0999 37.6C56.2999 37.5 53.0999 42 52.8999 42.6ZM62.6999 25.1C59.8999 12.1 44.3999 16.4 44.3999 16.4C37.6999 18 36.3999 25.6 36.3999 25.6C36.5999 27.9 41.8999 31 41.8999 31C44.4999 32.1 45.2999 29.7 45.2999 29.7L47.3999 25.9C49.9999 22.4 51.9999 23.3 52.4999 23.3C56.8999 23.3 59.2999 27.5 61.1999 27.5C63.1999 27.5 62.6999 25.1 62.6999 25.1Z" fill="#887771"/>
<path id="Vector_4" d="M25.6999 16.4C25.6999 16.4 10.1999 12.1 7.39989 25.1C7.39989 25.1 6.19989 34.4 10.3999 39.5L10.5999 39.7C11.7999 41.2 12.3999 42.2 13.4999 43.1C13.4999 43.1 16.0999 43.4 15.7999 40C15.7999 40 14.9999 33.8 16.0999 30.9C16.0999 30.9 17.6999 24.5 17.6999 23.3C17.6999 23.3 20.2999 22.4 22.7999 25.9L24.8999 29.7C24.8999 29.7 25.6999 32.1 28.2999 31C28.2999 31 33.5999 27.9 33.7999 25.6C33.6999 25.6 32.3999 18 25.6999 16.4Z" fill="#74625C"/>
<path id="Vector_5" d="M17.0999 42.6C16.9999 42 13.6999 37.5 4.8999 37.6C4.8999 37.6 11.5999 40.1 13.3999 43.5C14.8999 46.4 17.5999 44.8 17.0999 42.6ZM25.6999 16.4C25.6999 16.4 10.1999 12.1 7.3999 25.1C7.3999 25.1 6.9999 27.5 8.8999 27.5C10.7999 27.5 13.2999 23.3 17.5999 23.3C18.0999 23.3 20.1999 22.4 22.6999 25.9L24.7999 29.7C24.7999 29.7 25.5999 32.1 28.1999 31C28.1999 31 33.4999 27.9 33.6999 25.6C33.6999 25.6 32.3999 18 25.6999 16.4Z" fill="#887771"/>
<path id="Vector_6" d="M45.5001 34.9C45.5001 34.9 46.8001 32.2 46.0001 30.9C46.0001 30.9 45.0001 30.2 43.6001 29.9C43.6001 29.9 39.9001 27.8 37.0001 25.6C36.5001 25.2 35.6001 25.2 35.1001 25.2C34.6001 25.2 33.7001 25.2 33.2001 25.6C30.3001 27.8 26.6001 29.9 26.6001 29.9C25.2001 30.1 24.2001 30.9 24.2001 30.9C23.4001 32.2 24.7001 34.9 24.7001 34.9C25.0001 36 24.4001 38.2 24.4001 38.2C23.8001 42.1 25.8001 43.2 25.8001 43.2C27.3001 44.2 27.7001 47.4 27.7001 47.4C27.9001 49 28.7001 51.5 28.7001 51.5C29.1001 52.2 33.0001 56.1 33.0001 56.1C34.0001 57.4 35.1001 57.1 35.1001 57.1C35.1001 57.1 36.3001 57.4 37.2001 56.1C37.2001 56.1 41.1001 52.2 41.5001 51.5C41.5001 51.5 42.2001 49 42.5001 47.4C42.5001 47.4 42.9002 44.2 44.4002 43.2C44.4002 43.2 46.4001 42.1 45.8001 38.2C45.8001 38.2 45.3001 36 45.5001 34.9Z" fill="#AC9994"/>
<path id="Vector_7" d="M35.1 25.2C34.6 25.2 33.7 25.2 33.1 25.6C30.2 27.8 26.5001 29.9 26.5001 29.9C25.1001 30.1 24.1001 30.9 24.1001 30.9C23.3001 32.2 24.6001 34.9 24.6001 34.9C24.9001 36 24.3001 38.2 24.3001 38.2C23.7001 42.1 25.7001 43.2 25.7001 43.2C27.2001 44.2 27.6001 47.4 27.6001 47.4C27.8001 49 28.6001 51.5 28.6001 51.5C29.0001 52.2 32.9001 56.1 32.9001 56.1C33.9001 57.4 35.0001 57.1 35.0001 57.1C35.1001 57.1 35.1 25.2 35.1 25.2Z" fill="#9F8C87"/>
<path id="Vector_8" d="M34.9002 43C28.1002 43 27.7002 47.5 27.7002 47.5C27.9002 49.1 28.7002 51.6 28.7002 51.6C29.1002 52.3 33.0002 56.2 33.0002 56.2C34.0002 57.5 35.1002 57.2 35.1002 57.2C35.1002 57.2 36.3002 57.5 37.2002 56.2C37.2002 56.2 41.1002 52.3 41.5002 51.6C41.5002 51.6 42.2002 49.1 42.5002 47.5C42.5002 47.4 41.7002 43 34.9002 43Z" fill="#D8C5C0"/>
<path id="Vector_9" d="M35.1002 54.7C30.9002 54.7 28.7002 51.5 28.7002 51.5C29.1002 52.2 33.0002 56.1 33.0002 56.1C34.0002 57.4 35.1002 57.1 35.1002 57.1C35.1002 57.1 36.3002 57.4 37.2002 56.1C37.2002 56.1 41.1002 52.2 41.5002 51.5C41.5002 51.5 39.3002 54.7 35.1002 54.7Z" fill="#96837E"/>
<path id="Vector_10" d="M26.9999 32.2L23.8999 32.1C23.8999 32.1 23.6999 32.3 23.8999 33.5C24.0999 34.6 24.6999 34.9 24.6999 34.9L28.8999 36.7L29.0999 36.3L26.9999 32.2ZM46.2999 32.1L43.1999 32.2L41.0999 36.2L41.2999 36.6L45.4999 34.8C45.4999 34.8 46.0999 34.5 46.2999 33.4C46.4999 32.3 46.2999 32.1 46.2999 32.1ZM39.5999 46.9C37.4999 45.8 35.2999 45.6 35.1999 45.5C35.0999 45.5 32.8999 45.8 30.7999 46.9C30.6999 46.9 30.6999 47 30.6999 47.1C30.6999 47.2 30.6999 47.3 30.7999 47.3L35.0999 49.9H35.2999L39.5999 47.3C39.6999 47.3 39.6999 47.2 39.6999 47.1C39.6999 47 39.5999 47 39.5999 46.9Z" fill="#7C6A65"/>
<path id="Vector_11" d="M46.2999 32.1C46.3999 32.3 46.3999 32.5 46.3999 32.7C46.3999 32.2 46.2999 32.1 46.2999 32.1ZM39.6999 51.5C39.5999 51.4 39.4999 51.3 39.3999 51.4C37.8999 52.1 36.7999 52.1 36.0999 51.7C35.4999 51.3 35.3999 50.6 35.2999 50.1V49.5C35.2999 49.4 35.1999 49.3 35.0999 49.3C34.9999 49.3 34.8999 49.4 34.8999 49.5V50.1C34.8999 50.6 34.6999 51.3 34.0999 51.7C33.3999 52.2 32.2999 52.1 30.7999 51.5C30.6999 51.4 30.4999 51.5 30.4999 51.6C30.3999 51.7 30.4999 51.9 30.5999 51.9C31.4999 52.3 32.2999 52.5 32.9999 52.5C33.5999 52.5 33.9999 52.4 34.3999 52.1C34.7999 51.8 34.9999 51.5 35.0999 51.1C35.1999 51.5 35.4999 51.8 35.8999 52.1C36.2999 52.4 36.6999 52.5 37.2999 52.5C37.9999 52.5 38.7999 52.3 39.6999 51.9V51.5Z" fill="#7C6A65"/>
</g>
<defs>
<clipPath id="clip0_2_141">
<rect width="70" height="70" fill="white"/>
</clipPath>
</defs>
</svg>
