<svg width="70" height="70" viewBox="0 0 70 70" fill="none" xmlns="http://www.w3.org/2000/svg">
<g id="cancer 1" clip-path="url(#clip0_4_89)">
<path id="Vector" d="M35 0C15.7 0 0 15.7 0 35C0 54.3 15.7 70 35 70C54.3 70 70 54.3 70 35C70 15.7 54.3 0 35 0Z" fill="#E5CFCA"/>
<path id="Vector_2" d="M42.7998 59.7L38.0998 57.2H37.9998C37.0998 57.7 36.0998 58 35.0998 58C34.0998 58 33.0998 57.7 32.1998 57.2H32.0998L27.3998 59.7C27.2998 59.7 27.2998 59.8 27.2998 59.8C28.1998 62.6 31.3998 64.5 35.0998 64.5C38.7998 64.5 41.9998 62.5 42.8998 59.8C42.8998 59.8 42.7998 59.8 42.7998 59.7Z" fill="#887771"/>
<path id="Vector_3" d="M35.0002 58.1C33.9002 58.1 32.9002 57.8 32.1002 57.3H32.0002L27.3002 59.8C27.2002 59.8 27.2002 59.9 27.2002 59.9C28.1002 62.7 31.3002 64.6 35.0002 64.6V58.1Z" fill="#9F8C87"/>
<path id="Vector_4" d="M49.5999 28.5C49.2999 28.1 49.1999 28.4 49.1999 28.4C49.9999 32.8 48.0999 35.1 48.0999 35.1C46.8999 37 40.0999 38.4 40.0999 38.4L39.8999 40C49.8999 38.5 50.2999 33.2 50.2999 33.2C51.4999 29.3 49.5999 28.5 49.5999 28.5Z" fill="#74625C"/>
<path id="Vector_5" d="M53.3998 34.8C53.3998 34.1 53.0998 34.4 53.0998 34.4C52.6998 39.6 49.2998 40.8 49.2998 40.8C47.9998 40.9 44.7998 41.5 44.7998 41.5C42.6998 40.7 39.9998 40.6 39.9998 40.6C39.9998 40.6 38.8998 41.9 39.8998 42.1C40.8998 42.3 45.0998 42.7 45.0998 42.7C51.8998 42.3 52.2998 40 52.2998 40C54.2998 37.7 53.3998 34.8 53.3998 34.8ZM42.9998 25.6H42.5998C42.5998 25.6 40.7998 24.5 39.2998 24.5C39.2998 24.5 45.6998 28.2 44.4998 31.9C44.4998 31.9 42.9998 34.4 39.3998 35.6L39.6998 37C39.6998 37 44.9998 35.1 45.4998 32.2C45.5998 32.2 46.5998 27.4 42.9998 25.6Z" fill="#74625C"/>
<path id="Vector_6" d="M50.6002 26.3C49.5002 26.6 49.9002 25 49.9002 25C48.7002 26.4 46.1002 25.1 46.1002 25.1L43.8002 28.1L37.7002 27.9L39.1002 31.5L43.0002 31.7L42.4002 31L46.7002 30.6L50.6002 26.3Z" fill="#887771"/>
<path id="Vector_7" d="M50.9002 19.1C43.9002 19.6 37.4002 23.6 37.4002 23.6C36.3002 24.2 36.2002 26.6 36.2002 26.6L37.6002 27.8L37.7002 26.3C38.2002 23.1 41.1002 22.8 41.1002 22.8C44.1002 21 51.6002 20 51.6002 20C54.3002 20 56.4002 23.2 56.4002 23.2C55.8002 19.6 50.9002 19.1 50.9002 19.1Z" fill="#74625C"/>
<path id="Vector_8" d="M38.6999 17.2C35.6999 20.2 34.9999 26.3 34.9999 26.3L35.4999 26.4C35.6999 20.9 38.5999 17.6 38.5999 17.6C38.7999 17.3 38.6999 17.2 38.6999 17.2ZM49.8999 16.6C48.5999 11.2 41.9999 6.59999 41.9999 6.59999C38.3999 4.49999 36.9999 5.79999 36.9999 5.79999C41.8999 9.99999 43.8999 18 43.8999 18C37.6999 9.99999 36.8999 6.39999 36.8999 6.39999C33.1999 13.1 45.8999 24.6 45.8999 24.6C48.8999 26.1 49.9999 24.5 49.9999 24.5L50.6999 25.3C50.6999 24.7 51.6999 23.3 51.6999 23.3C51.5999 21.9 49.8999 16.6 49.8999 16.6ZM26.1999 28L23.8999 25C23.8999 25 21.2999 26.4 20.0999 24.9C20.0999 24.9 20.4999 26.5 19.3999 26.2L23.2999 30.5L27.5999 30.9L26.9999 31.6L30.8999 31.4L32.2999 27.8L26.1999 28Z" fill="#887771"/>
<path id="Vector_9" d="M29.9002 38.4C29.9002 38.4 23.1002 36.9 21.9002 35.1C21.9002 35.1 20.0002 32.8 20.8002 28.4C20.8002 28.4 20.7002 28.1 20.4002 28.5C20.4002 28.5 18.5002 29.3 19.7002 33.2C19.7002 33.2 20.1002 38.6 30.1002 40L29.9002 38.4Z" fill="#74625C"/>
<path id="Vector_10" d="M29.9998 40.6C29.9998 40.6 27.1998 40.7 25.1998 41.5C25.1998 41.5 21.9998 40.9 20.6998 40.8C20.6998 40.8 17.2998 39.6 16.8998 34.4C16.8998 34.4 16.5998 34.1 16.5998 34.8C16.5998 34.8 15.5998 37.7 17.6998 39.9C17.6998 39.9 18.1998 42.2 24.8998 42.6C24.8998 42.6 29.0998 42.2 30.0998 42C31.1998 41.9 29.9998 40.6 29.9998 40.6ZM25.3998 31.9C24.2998 28.2 30.5998 24.5 30.5998 24.5C29.0998 24.6 27.2998 25.6 27.2998 25.6H26.8998C23.2998 27.4 24.2998 32.2 24.2998 32.2C24.7998 35.1 30.0998 37 30.0998 37L30.3998 35.6C26.8998 34.4 25.3998 31.9 25.3998 31.9Z" fill="#74625C"/>
<path id="Vector_11" d="M32.7002 23.6C32.7002 23.6 26.2002 19.6 19.2002 19.1C19.2002 19.1 14.3002 19.6 13.7002 23.3C13.7002 23.3 15.8002 20.1 18.5002 20.1C18.5002 20.1 26.0002 21.1 29.1002 22.9C29.1002 22.9 32.0002 23.3 32.5002 26.4L32.6002 27.9L34.0002 26.7C33.9002 26.6 33.8002 24.2 32.7002 23.6Z" fill="#74625C"/>
<path id="Vector_12" d="M31.2999 17.2C31.2999 17.2 31.1999 17.3 31.3999 17.6C31.3999 17.6 34.2999 20.9 34.4999 26.4L34.9999 26.3C34.9999 26.3 34.2999 20.2 31.2999 17.2Z" fill="#887771"/>
<path id="Vector_13" d="M33.0999 6.49999C33.0999 6.49999 32.1999 10.1 26.0999 18.1C26.0999 18.1 28.0999 9.99999 32.9999 5.79999C32.9999 5.79999 31.4999 4.49999 27.9999 6.59999C27.9999 6.59999 21.4999 11.2 20.0999 16.6C20.0999 16.6 18.3999 21.9 18.3999 23.5C18.3999 23.5 19.3999 24.9 19.3999 25.5L20.0999 24.7C20.0999 24.7 21.1999 26.3 24.1999 24.8C24.1999 24.7 36.7999 13.2 33.0999 6.49999Z" fill="#887771"/>
<path id="Vector_14" d="M35 26.3C32.4 26.3 29 29.5 29 39.7C29 54 31.1 57.7 35 57.7C38.9 57.7 41 54 41 39.7C41 29.6 37.6 26.3 35 26.3Z" fill="#9F8C87"/>
<path id="Vector_15" d="M29.1001 39.6C29.1001 53.9 31.2001 57.6 35.1001 57.6V26.3C32.4001 26.3 29.1001 29.5 29.1001 39.6Z" fill="#AC9994"/>
<path id="Vector_16" d="M33.921 30.1828C34.0242 29.6402 33.8 29.1419 33.4202 29.0696C33.0404 28.9974 32.6489 29.3787 32.5457 29.9213C32.4425 30.4639 32.6668 30.9622 33.0466 31.0344C33.4264 31.1067 33.8179 30.7254 33.921 30.1828Z" fill="#7C6A65"/>
<path id="Vector_17" d="M37.0955 30.9743C37.4744 30.8978 37.6931 30.397 37.5838 29.8556C37.4746 29.3142 37.0788 28.9373 36.6998 29.0138C36.3209 29.0903 36.1022 29.5912 36.2115 30.1325C36.3207 30.6739 36.7165 31.0508 37.0955 30.9743Z" fill="#7C6A65"/>
<path id="Vector_18" d="M35.0999 44.9C31.4999 44.9 29.3999 44 29.3999 44C29.3999 44 34.6999 47.4 40.5999 44C40.6999 44 38.5999 44.9 35.0999 44.9ZM35.0999 48C31.8999 48 29.9999 47.2 29.9999 47.2C29.9999 47.2 34.7999 50.3 40.1999 47.2C40.0999 47.1 38.2999 48 35.0999 48ZM35.0999 50.9C32.2999 50.9 30.5999 50.2 30.5999 50.2C30.5999 50.2 34.7999 52.9 39.4999 50.2C39.4999 50.2 37.8999 50.9 35.0999 50.9ZM35.0999 53.6C32.5999 53.6 31.0999 53 31.0999 53C31.0999 53 34.7999 55.4 38.9999 53C38.9999 52.9 37.5999 53.6 35.0999 53.6Z" fill="#74625C"/>
<path id="Vector_19" d="M35.6 25.8L35 26V27.1H35.5C35.6 27.1 35.6 25.8 35.6 25.8Z" fill="#9F8C87"/>
<path id="Vector_20" d="M34.9999 26L34.3999 25.8V27.1H34.9999V26Z" fill="#AC9994"/>
</g>
<defs>
<clipPath id="clip0_4_89">
<rect width="70" height="70" fill="white"/>
</clipPath>
</defs>
</svg>
