<svg width="86" height="86" viewBox="0 0 86 86" fill="none" xmlns="http://www.w3.org/2000/svg">
<g id="cancer 2">
<path id="Vector" d="M43.0001 9.55554C24.5579 9.55554 9.55566 24.5578 9.55566 43C9.55566 61.4422 24.5579 76.4444 43.0001 76.4444C61.4423 76.4444 76.4445 61.4422 76.4445 43C76.4445 24.5578 61.4423 9.55554 43.0001 9.55554Z" fill="#D5CAE9"/>
<path id="Vector_2" d="M22.169 29.3356C21.8823 29.7178 21.4045 29.9089 20.9267 30.1C20.449 30.2911 19.8756 30.2911 19.4934 30.0044C19.1112 29.7178 18.8245 29.3356 18.8245 28.8578C18.8245 28.38 19.1112 27.9022 19.3979 27.6156C19.589 27.4244 19.7801 27.2333 20.0667 27.1378C20.1623 27.1378 20.3534 27.0422 20.449 27.1378C20.5445 27.1378 20.6401 27.1378 20.6401 27.2333C21.1179 27.0422 21.6912 27.1378 22.0734 27.52C22.6467 27.9978 22.6467 28.7622 22.169 29.3356ZM21.8823 32.3933C21.6912 31.5333 20.8312 31.0556 19.9712 30.96C18.8245 30.8644 18.0601 31.9156 17.6779 32.8711C17.4867 33.2533 17.6779 33.6356 17.9645 33.9222C18.1556 34.3044 18.6334 34.5911 19.0156 34.6867C19.4934 34.7822 20.0667 34.7822 20.5445 34.5911C21.5956 34.2089 22.169 33.3489 21.8823 32.3933ZM31.629 35.4511C31.4379 35.3556 31.2467 35.26 31.0556 35.26C30.6734 35.0689 30.2912 35.0689 29.909 35.1644H29.8134C29.5267 35.26 29.3356 35.3556 29.2401 35.5467C28.9534 35.7378 28.6667 36.0244 28.4756 36.3111C27.9979 36.98 27.9023 38.2222 28.7623 38.7C30.1001 39.56 31.8201 38.0311 32.2023 36.7889C32.3934 36.2156 32.1067 35.6422 31.629 35.4511ZM63.9267 27.52C64.309 27.1378 64.8823 27.0422 65.3601 27.2333C65.4556 27.2333 65.4556 27.1378 65.5512 27.1378H65.9334C66.2201 27.2333 66.4112 27.4244 66.6023 27.6156C66.9845 27.9022 67.1756 28.4756 67.1756 28.8578C67.1756 29.3356 66.9845 29.8133 66.5067 30.0044C66.029 30.2911 65.5512 30.1956 65.0734 30.1C64.5956 29.9089 64.1179 29.7178 63.8312 29.3356C63.3534 28.7622 63.3534 27.9978 63.9267 27.52ZM65.3601 34.4956C65.8379 34.6867 66.4112 34.6867 66.889 34.5911C67.2712 34.4956 67.749 34.2089 67.9401 33.8267C68.2267 33.54 68.3223 33.1578 68.2267 32.7756C67.8445 31.82 67.0801 30.8644 65.9334 30.8644C65.0734 30.8644 64.2134 31.4378 64.0223 32.2978C63.8312 33.3489 64.5001 34.2089 65.3601 34.4956ZM53.7979 36.6933C54.1801 37.9356 55.9001 39.4644 57.2379 38.6044C58.0979 38.1267 58.0023 36.8844 57.5245 36.2156C57.3334 35.9289 57.0467 35.7378 56.7601 35.4511C56.569 35.26 56.3779 35.0689 56.1867 35.0689H56.0912C55.709 34.9733 55.3267 34.8778 54.9445 35.1644C54.7534 35.26 54.5623 35.26 54.3712 35.3556C53.8934 35.6422 53.7023 36.2156 53.7979 36.6933ZM28.189 42.5222C22.8379 41.0889 16.5312 39.7511 12.2312 36.0244C12.1356 35.9289 12.2312 35.7378 12.4223 35.8333C15.3845 37.2667 18.1556 38.6044 21.309 39.4644C23.7934 40.1333 26.2779 40.2289 28.6667 40.8022C29.7179 41.0889 29.2401 42.9044 28.189 42.5222ZM29.8134 44.3378C25.2267 45.0067 21.7867 44.2422 17.3912 43.1911C15.0023 42.6178 12.2312 42.2356 9.8423 42.8089C9.65119 42.9044 9.55563 43.2867 9.8423 43.2867C11.2756 43.4778 12.709 43.4778 14.1423 43.5733C16.3401 43.7644 18.4423 44.6244 20.5445 45.2933C23.6979 46.2489 26.9467 46.3444 30.1001 45.6756C31.0556 45.3889 30.6734 44.2422 29.8134 44.3378ZM33.6356 46.5356C29.4312 47.3 25.7045 47.3 22.0734 49.6889C19.7801 51.2178 16.7223 52.9378 16.149 55.9C16.0534 56.1867 16.4356 56.2822 16.6267 56.0911C18.6334 53.2244 21.309 51.4089 24.2712 49.5933C27.2334 47.7778 30.9601 49.4022 33.9223 47.3C34.3045 47.0133 34.1134 46.5356 33.6356 46.5356ZM38.8912 46.8222C36.9801 47.9689 35.4512 49.2111 33.2534 49.7844C31.8201 50.1667 30.2912 50.6444 29.049 51.6C26.469 53.7022 25.8956 58.3844 26.2779 61.4422C26.3734 61.8244 26.8512 61.92 26.9467 61.5378C28.189 58.48 27.0423 54.2756 30.3867 52.2689C31.7245 51.5044 33.4445 51.1222 34.8779 50.6444C36.5023 50.0711 37.9356 49.1156 39.5601 48.4467C40.8979 47.9689 40.0379 46.1533 38.8912 46.8222ZM57.9067 42.5222C63.2579 41.0889 69.5645 39.7511 73.8645 36.0244C73.9601 35.9289 73.8645 35.7378 73.6734 35.8333C70.7112 37.2667 67.9401 38.6044 64.7867 39.4644C62.3023 40.1333 59.8179 40.2289 57.429 40.8022C56.2823 41.0889 56.7601 42.9044 57.9067 42.5222ZM55.8045 45.58C59.0534 46.2489 62.2067 46.2489 65.3601 45.1978C67.4623 44.5289 69.5645 43.6689 71.7623 43.4778C73.1956 43.3822 74.629 43.3822 76.0623 43.1911C76.349 43.1911 76.2534 42.7133 76.0623 42.7133C73.6734 42.0444 70.9023 42.5222 68.5134 43.0956C64.1179 44.1467 60.5823 45.0067 56.0912 44.2422C55.3267 44.2422 54.9445 45.3889 55.8045 45.58ZM52.0779 47.3C55.0401 49.4022 58.7667 47.7778 61.729 49.5933C64.6912 51.4089 67.3667 53.1289 69.3734 56.0911C69.5645 56.2822 69.8512 56.1867 69.8512 55.9C69.2779 52.9378 66.2201 51.2178 63.9267 49.6889C60.2956 47.3 56.569 47.3 52.3645 46.5356C51.8867 46.5356 51.6956 47.0133 52.0779 47.3ZM46.4401 48.5422C48.0645 49.2111 49.4979 50.1667 51.1223 50.74C52.5556 51.2178 54.2756 51.6 55.6134 52.3644C58.9579 54.3711 57.8112 58.5756 59.0534 61.6333C59.2445 62.0156 59.7223 61.92 59.7223 61.5378C60.1045 58.48 59.5312 53.7978 56.9512 51.6956C55.8045 50.74 54.1801 50.2622 52.7467 49.88C50.549 49.2111 49.0201 47.9689 47.109 46.9178C45.9623 46.1533 45.1979 47.9689 46.4401 48.5422ZM48.2556 34.0178C48.2556 32.2978 45.9623 30.8644 43.0956 30.8644C40.229 30.8644 37.9356 32.2978 37.9356 34.0178C37.9356 35.7378 40.229 37.1711 43.0956 37.1711C45.8667 37.1711 48.2556 35.7378 48.2556 34.0178Z" fill="#FF6A38"/>
<path id="Vector_3" d="M59.3399 44.5289C59.3399 40.7067 51.9821 37.6489 42.9999 37.6489C33.9221 37.6489 26.6599 40.7067 26.6599 44.5289C26.6599 48.3511 34.0177 51.4089 42.9999 51.4089C52.0777 51.4089 59.3399 48.3511 59.3399 44.5289Z" fill="#FF6A38"/>
<path id="Vector_4" d="M55.2312 24.3667C53.989 22.9333 53.6068 22.6467 51.9823 21.8822C51.3134 21.5956 48.5423 21.4044 47.7779 21.3089C46.3445 21.2133 45.7712 20.5444 44.7201 19.8756C44.6245 19.78 44.4334 19.8756 44.529 20.0667C45.0068 21.5956 46.6312 22.4556 48.1601 22.7422C49.3068 22.9333 50.4534 23.6978 51.6001 23.9845C52.7468 24.2711 53.8934 24.5578 55.0401 24.7489C55.2312 24.7489 55.3268 24.4622 55.2312 24.3667Z" fill="#731D00"/>
<path id="Vector_5" d="M65.8379 26.0867C65.5512 25.1311 60.1046 22.4555 59.6268 22.0733C55.9001 19.9711 51.6957 19.5889 47.4912 19.3022C47.3001 19.3022 47.2046 19.6844 47.3957 19.6844C47.969 19.78 48.6379 19.8755 49.2112 20.0667H49.3068C52.0779 20.7355 54.2757 23.1244 56.569 25.2267C57.429 26.2778 58.289 27.3289 59.3401 28.0933C60.2001 28.6667 61.4423 29.3355 62.589 29.3355C63.3535 29.6222 64.0223 29.4311 64.7868 28.8578C65.3601 28.2844 66.2201 27.1378 65.8379 26.0867ZM67.0801 34.1133C66.6979 32.68 62.3023 32.0111 62.2068 32.1067C59.7223 32.8711 57.1423 32.8711 54.7535 34.0178C54.3712 34.2089 54.2757 34.7822 54.4668 35.0689C55.5179 36.5022 56.569 37.84 58.289 38.4133C60.2957 39.1778 62.8757 37.2667 64.6912 36.5978C66.029 36.3111 67.4623 35.8333 67.0801 34.1133Z" fill="#C43100"/>
<path id="Vector_6" d="M68.7999 30.6733C68.6088 29.4311 67.7488 28.5711 67.271 27.4244C67.0799 27.0422 66.411 26.8511 66.3155 27.4244C66.0288 28.7622 65.3599 29.5267 64.4999 30.4822L64.4044 30.5778L64.3088 30.6733C64.2133 30.8644 64.3088 30.96 64.4999 30.96C64.7866 31.4378 65.551 31.4378 66.0288 31.7244C66.3155 31.9156 66.411 32.2022 66.6021 32.3933C66.9844 32.8711 67.271 33.4444 67.6533 33.9222C67.6533 34.1133 67.8444 34.2089 67.9399 34.3044C68.2266 34.5911 68.7044 34.4 68.7999 34.0178V33.9222C69.1821 33.0622 68.991 31.82 68.7999 30.6733ZM51.791 48.3511C51.5044 48.16 51.1222 48.16 50.8355 48.2555C50.3577 48.3511 50.071 48.5422 49.5933 48.8289C49.211 49.1155 48.8288 49.5933 48.6377 50.0711V50.2622C48.351 50.5489 48.2555 51.0267 48.4466 51.4089C48.6377 51.7911 48.9244 51.8867 49.3066 51.8867C49.7844 51.9822 50.3577 51.6 50.7399 51.3133C51.2177 50.9311 51.5999 50.5489 51.9822 50.0711C52.3644 49.4978 52.3644 48.7333 51.791 48.3511Z" fill="#731D00"/>
<path id="Vector_7" d="M53.511 49.4978C53.1288 49.02 52.3643 49.3067 51.9821 49.6889C51.8866 49.7844 51.791 49.9756 51.791 50.1667C51.5043 50.74 51.9821 51.3133 52.5555 51.5044C53.1288 51.6 53.511 51.2178 53.7021 50.74C53.8932 50.3578 53.7021 49.88 53.511 49.4978ZM56.1866 50.5489C55.9955 49.4978 54.7532 49.5933 54.1799 50.2622C53.9888 50.4533 53.9888 50.6444 53.9888 50.9311C53.8932 51.5044 53.9888 52.2689 54.371 52.6511C54.8488 53.2244 55.6132 52.9378 55.8999 52.3644C56.2821 51.7911 56.2821 51.1222 56.1866 50.5489ZM59.2443 52.2689C59.0532 51.8867 58.7666 51.5044 58.3843 51.2178C58.2888 51.1222 58.1932 51.1222 58.0977 51.1222H57.9066C57.1421 51.2178 56.6643 52.1733 56.4732 52.7467C56.2821 53.2244 56.5688 53.7022 57.0466 53.7978C57.3332 53.7978 57.6199 54.0844 57.9066 54.18C58.0977 54.2756 58.3843 54.2756 58.5755 54.18C59.0532 54.3711 59.6266 54.0844 59.6266 53.5111C59.6266 53.0333 59.531 52.6511 59.2443 52.2689ZM60.1999 56.6644C59.9132 55.4222 58.671 54.8489 57.5243 54.6578C57.1421 54.5622 56.8555 54.7533 56.7599 55.1356V55.2311C56.7599 56.3778 57.9066 61.06 59.9132 59.34C60.4866 58.6711 60.391 57.4289 60.1999 56.6644Z" fill="#731D00"/>
<path id="Vector_8" d="M60.4867 60.6778C59.8178 60.2 59.149 60.2 58.7667 60.4867H58.4801C58.0978 60.5822 57.6201 60.8689 57.7156 61.3467C57.429 62.0155 57.429 62.78 57.429 63.4489C57.5245 64.5 58.289 65.4555 58.8623 66.3155C59.0534 66.6022 59.6267 66.7933 59.9134 66.4111C60.9645 64.9778 62.4934 62.1111 60.4867 60.6778Z" fill="#C43100"/>
<path id="Vector_9" d="M55.709 47.2044C55.2312 47.3 54.3712 47.4911 53.7023 47.8733C53.4157 47.8733 53.3201 48.0644 53.2246 48.2555C53.129 48.3511 53.0334 48.4467 53.0334 48.6378C53.0334 48.8289 53.129 48.9244 53.2246 48.9244H53.4157L53.5112 49.02C54.6579 49.4022 55.9957 48.9244 57.1423 48.9244C57.429 48.9244 57.7157 48.6378 57.7157 48.3511C57.7157 47.1089 56.569 47.1089 55.709 47.2044ZM64.1179 44.5289C63.7357 43.7644 62.1112 44.1467 61.4423 44.2422C60.7735 44.3378 59.7223 44.5289 59.0534 45.0067H58.7668C57.9068 45.1022 58.289 46.3444 59.149 46.2489C59.7223 46.1533 65.2646 46.5355 64.1179 44.5289Z" fill="#731D00"/>
<path id="Vector_10" d="M70.3289 55.3267C70.1378 53.9889 67.7489 54.8489 68.8001 56.1867C69.7556 57.4289 69.7556 59.5311 70.1378 60.8689C70.1378 60.9645 70.3289 60.9645 70.3289 60.8689C70.5201 59.9133 70.7112 58.9578 70.8067 57.9067C70.8067 57.0467 70.4245 56.1867 70.3289 55.3267ZM81.2223 40.0378C81.0312 40.0378 80.8401 39.9422 80.6489 40.0378C79.9801 40.3245 79.2156 40.42 78.4512 40.6111C77.4001 40.8978 76.5401 41.5667 75.5845 41.9489C74.2467 42.5222 75.0112 44.4333 76.3489 43.7645C77.2089 43.3822 78.2601 42.8089 78.9289 42.14C79.4067 41.7578 79.6934 41.1845 80.2667 40.8978C80.7445 40.7067 81.0312 40.6111 81.2223 40.0378ZM77.5912 31.2467C76.8267 31.5333 76.3489 32.2978 75.5845 32.68C75.2023 32.8711 74.9156 33.3489 74.6289 33.6356C74.2467 34.1133 73.7689 34.4956 73.3867 34.9733C73.0045 35.3556 73.0045 35.7378 73.1956 36.2156C73.4823 36.8845 74.3423 36.7889 74.8201 36.4067L75.0112 36.2156C75.5845 35.5467 76.1578 34.7822 76.6356 34.1133C76.9223 33.7311 76.9223 33.1578 77.2089 32.7756C77.4001 32.3933 77.7823 32.0111 77.8778 31.5333C77.7823 31.3422 77.6867 31.2467 77.5912 31.2467Z" fill="#C43100"/>
<path id="Vector_11" d="M62.8755 39.9422C62.4933 39.7511 62.3022 39.7511 61.92 39.8467H61.5378C61.3466 39.8467 61.1555 39.8467 60.9644 39.9422H60.5822C60.1044 40.0378 59.7222 40.2289 59.6266 40.7067C59.5311 41.1845 59.7222 41.5667 60.1044 41.8533C60.4866 42.14 61.06 42.0445 61.5378 41.9489C62.0155 41.8533 62.8755 41.8533 63.1622 41.4711C63.3533 40.9933 63.4489 40.2289 62.8755 39.9422ZM66.3155 38.5089C65.6466 38.7 62.6844 39.4645 63.7355 40.6111C64.1178 41.0889 64.6911 40.8978 65.2644 40.8022C65.8378 40.7067 66.3155 40.5156 66.8889 40.5156C68.1311 40.2289 67.6533 38.2222 66.3155 38.5089Z" fill="#731D00"/>
<path id="Vector_12" d="M72.24 36.12C71.38 36.12 70.7111 36.5978 69.8511 36.98C69.0866 37.2667 68.2266 37.4578 67.6533 38.1267C67.2711 38.6044 67.4622 39.2733 68.1311 39.2733C68.8955 39.2733 69.8511 38.8911 70.6155 38.7C71.38 38.4133 72.1444 38.0311 72.7177 37.5533C73.2911 36.98 72.9089 36.12 72.24 36.12ZM67.6533 43C66.6977 43.2867 65.4555 43.3822 64.6911 43.9556C64.4044 44.2422 64.4044 44.8155 64.6911 45.0067C65.5511 45.7711 67.2711 45.1978 68.2266 44.9111C69.5644 44.72 68.8955 42.6178 67.6533 43Z" fill="#731D00"/>
<path id="Vector_13" d="M74.151 42.2356C73.291 42.0445 72.3355 42.0444 71.4755 42.14C70.711 42.2356 69.4688 42.3311 69.1821 43.1911C69.0866 43.3822 69.1821 43.6689 69.3732 43.86C69.9466 44.3378 70.8066 44.2422 71.4755 44.1467C72.2399 44.1467 73.0043 44.1467 73.8643 44.2422C75.1066 44.4333 75.2977 42.6178 74.151 42.2356ZM61.9199 47.5867C61.3466 47.2045 60.4866 47.2045 59.8177 47.2045C59.1488 47.2045 58.0021 47.3 57.6199 48.0645C57.5243 48.3511 57.5243 48.5422 57.7155 48.7333C58.0977 49.2111 58.8621 49.1156 59.4355 49.2111C59.9132 49.2111 60.5821 49.3067 60.8688 49.4022C62.0155 50.0711 63.0666 48.3511 61.9199 47.5867Z" fill="#731D00"/>
<path id="Vector_14" d="M69.4689 53.32C68.3223 51.7911 66.8889 50.74 65.36 49.5933C64.7867 49.1156 64.1178 48.5422 63.3534 48.6378C63.0667 48.7333 62.3978 48.9244 62.5889 49.4022C62.8756 50.2622 64.1178 50.9311 64.7867 51.5044C65.8378 52.3644 66.8889 53.1289 67.6534 54.2756C68.4178 55.4222 70.2334 54.3711 69.4689 53.32ZM30.7689 24.3667C32.0112 22.9333 32.3934 22.6467 34.0178 21.8822C34.6867 21.5956 37.4578 21.4044 38.2223 21.3089C39.6556 21.2133 40.2289 20.5444 41.28 19.8756C41.3756 19.78 41.5667 19.8756 41.4712 20.0667C40.9934 21.5956 39.3689 22.4556 37.84 22.7422C36.6934 22.9333 35.5467 23.6978 34.4 23.9845C33.2534 24.2711 32.1067 24.5578 30.96 24.7489C30.7689 24.7489 30.6734 24.4622 30.7689 24.3667Z" fill="#731D00"/>
<path id="Vector_15" d="M21.3089 28.8578C21.9777 29.4311 22.7422 29.6222 23.5066 29.3355C24.6533 29.3355 25.8955 28.6667 26.7555 28.0933C27.8066 27.3289 28.6666 26.2778 29.5266 25.2267C31.82 23.1244 34.0177 20.7355 36.7889 20.0667H36.8844C37.4577 19.9711 38.0311 19.78 38.7 19.6844C38.8911 19.6844 38.8911 19.3022 38.6044 19.3022C34.4 19.5889 30.1955 19.9711 26.4689 22.0733C25.8955 22.36 20.5444 25.1311 20.2577 26.0867C19.78 27.1378 20.64 28.2844 21.3089 28.8578ZM21.3089 36.7889C23.1244 37.3622 25.7044 39.3689 27.7111 38.6044C29.4311 37.9355 30.4822 36.6933 31.5333 35.26C31.7244 34.9733 31.6289 34.4 31.2466 34.2089C28.8577 33.0622 26.2777 33.0622 23.7933 32.2978C23.6977 32.2022 19.3022 32.8711 18.92 34.3044C18.5377 35.8333 19.9711 36.3111 21.3089 36.7889Z" fill="#C43100"/>
<path id="Vector_16" d="M17.1999 34.1134C17.2955 34.4956 17.7733 34.7822 18.0599 34.4956C18.251 34.4 18.3466 34.3045 18.3466 34.1134C18.7288 33.6356 18.9199 33.0622 19.3977 32.5845C19.5888 32.3933 19.7799 32.1067 19.971 31.9156C20.4488 31.6289 21.1177 31.6289 21.4999 31.1511C21.691 31.1511 21.7866 30.96 21.691 30.8645L21.5955 30.7689L21.4999 30.6733C20.7355 29.7178 19.971 28.9533 19.6844 27.6156C19.5888 27.0422 18.9199 27.2333 18.7288 27.6156C18.251 28.7622 17.391 29.6222 17.1999 30.8645C17.0088 31.82 16.8177 33.0622 17.1999 34.1134ZM34.2088 48.3511C34.4955 48.16 34.8777 48.16 35.1644 48.2556C35.6421 48.3511 35.9288 48.5422 36.4066 48.8289C36.7888 49.1156 37.171 49.5933 37.3621 50.0711V50.2622C37.6488 50.5489 37.7444 51.0267 37.5533 51.4089C37.3621 51.7911 37.0755 51.8867 36.6933 51.8867C36.2155 51.9822 35.6421 51.6 35.2599 51.3133C34.7821 50.9311 34.3999 50.5489 34.0177 50.0711C33.6355 49.4978 33.6355 48.7333 34.2088 48.3511Z" fill="#731D00"/>
<path id="Vector_17" d="M32.2978 50.74C32.489 51.2178 32.8712 51.6 33.4445 51.5044C34.0178 51.4089 34.4956 50.74 34.209 50.1667C34.209 49.9756 34.1134 49.88 34.0178 49.6889C33.7312 49.3067 32.8712 48.9244 32.489 49.4978C32.2978 49.88 32.1067 50.3578 32.2978 50.74ZM29.8134 50.5489C30.0045 49.4978 31.2467 49.5933 31.8201 50.2622C32.0112 50.4533 32.0112 50.6444 32.0112 50.9311C32.1067 51.5044 32.0112 52.2689 31.629 52.6511C31.1512 53.2244 30.3867 52.9378 30.1001 52.3644C29.7178 51.7911 29.7178 51.1222 29.8134 50.5489ZM26.7556 52.2689C26.9467 51.8867 27.2334 51.5044 27.6156 51.2178C27.7112 51.1222 27.8067 51.1222 27.9023 51.1222H28.0934C28.8578 51.2178 29.3356 52.1733 29.5267 52.7467C29.7178 53.2244 29.4312 53.7022 28.9534 53.7978C28.6667 53.7978 28.3801 54.0844 28.0934 54.18C27.9023 54.2756 27.6156 54.2756 27.4245 54.18C26.9467 54.3711 26.3734 54.0844 26.3734 53.5111C26.3734 53.0333 26.469 52.6511 26.7556 52.2689ZM25.8001 56.6644C26.0867 55.4222 27.329 54.8489 28.4756 54.6578C28.8578 54.5622 29.1445 54.7533 29.2401 55.1356V55.2311C29.2401 56.3778 28.0934 61.06 26.0867 59.34C25.5134 58.6711 25.609 57.4289 25.8001 56.6644Z" fill="#731D00"/>
<path id="Vector_18" d="M26.2777 66.5067C26.5644 66.8889 27.1377 66.6978 27.3288 66.4111C27.9021 65.5511 28.6666 64.5956 28.7621 63.5445C28.7621 62.8756 28.7621 62.1111 28.4755 61.4422C28.571 60.9645 28.0932 60.5822 27.711 60.5822H27.4244C26.9466 60.2956 26.3732 60.2956 25.7044 60.7733C23.5066 62.1111 25.0355 64.9778 26.2777 66.5067Z" fill="#C43100"/>
<path id="Vector_19" d="M30.2912 47.2044C30.769 47.3 31.629 47.4911 32.2979 47.8733C32.5845 47.8733 32.6801 48.0644 32.7756 48.2555C32.8712 48.3511 32.9667 48.4467 32.9667 48.6378C32.9667 48.8289 32.8712 48.9244 32.7756 48.9244H32.5845L32.489 49.02C31.3423 49.4022 30.0045 48.9244 28.8579 48.9244C28.5712 48.9244 28.2845 48.6378 28.2845 48.3511C28.2845 47.1089 29.4312 47.1089 30.2912 47.2044ZM21.8823 44.5289C22.2645 43.7644 23.889 44.1467 24.5579 44.2422C25.2268 44.3378 26.2779 44.5289 26.9468 45.0067H27.2334C28.0934 45.1022 27.7112 46.3444 26.8512 46.2489C26.2779 46.1533 20.7356 46.5355 21.8823 44.5289Z" fill="#731D00"/>
<path id="Vector_20" d="M15.6712 55.3267C15.8623 53.9889 18.2512 54.8489 17.2001 56.1867C16.2445 57.4289 16.2445 59.5311 15.8623 60.8689C15.8623 60.9645 15.6712 60.9645 15.6712 60.8689C15.4801 59.9133 15.2889 58.9578 15.1934 57.9067C15.1934 57.0467 15.5756 56.1867 15.6712 55.3267ZM4.77783 40.0378C4.96894 40.0378 5.16005 39.9422 5.35117 40.0378C6.02005 40.3245 6.7845 40.42 7.54894 40.6111C8.60005 40.8978 9.46005 41.5667 10.4156 41.9489C11.7534 42.5222 10.9889 44.4333 9.65117 43.7645C8.79117 43.3822 7.74005 42.8089 7.07117 42.14C6.59339 41.7578 6.30672 41.1845 5.73339 40.8978C5.25561 40.7067 4.96894 40.6111 4.77783 40.0378ZM8.40894 31.2467C9.17339 31.5333 9.65117 32.2978 10.4156 32.68C10.7978 32.8711 11.0845 33.3489 11.3712 33.6356C11.7534 34.1133 12.2312 34.4956 12.6134 34.9733C12.9956 35.3556 12.9956 35.7378 12.8045 36.2156C12.5178 36.8845 11.6578 36.7889 11.1801 36.4067L10.9889 36.2156C10.4156 35.5467 9.84228 34.7822 9.3645 34.1133C9.07783 33.7311 9.07783 33.1578 8.79117 32.7756C8.60005 32.3933 8.21783 32.0111 8.12228 31.5333C8.21783 31.3422 8.31339 31.2467 8.40894 31.2467Z" fill="#C43100"/>
<path id="Vector_21" d="M23.1246 39.9422C23.5068 39.7511 23.6979 39.7511 24.0801 39.8467H24.4623C24.6535 39.8467 24.8446 39.8467 25.0357 39.9422H25.4179C25.8957 40.0378 26.2779 40.2289 26.3734 40.7067C26.469 41.1845 26.2779 41.5667 25.8957 41.8533C25.5135 42.14 24.9401 42.0445 24.4623 41.9489C23.9846 41.8533 23.1246 41.8533 22.8379 41.4711C22.6468 40.9933 22.5512 40.2289 23.1246 39.9422ZM19.6846 38.5089C20.3535 38.7 23.3157 39.4645 22.2646 40.6111C21.8823 41.0889 21.309 40.8978 20.7357 40.8022C20.1623 40.7067 19.6846 40.5156 19.1112 40.5156C17.869 40.2289 18.3468 38.2222 19.6846 38.5089Z" fill="#731D00"/>
<path id="Vector_22" d="M13.7599 36.12C14.6199 36.12 15.2888 36.5978 16.1488 36.98C16.9133 37.2667 17.7733 37.4578 18.3466 38.1267C18.7288 38.6044 18.5377 39.2733 17.8688 39.2733C17.1044 39.2733 16.1488 38.8911 15.3844 38.7C14.6199 38.4133 13.8555 38.0311 13.2821 37.5533C12.7088 36.98 13.091 36.12 13.7599 36.12ZM18.3466 43C19.3021 43.2867 20.5444 43.3822 21.3088 43.9556C21.5955 44.2422 21.5955 44.8155 21.3088 45.0067C20.4488 45.7711 18.7288 45.1978 17.7733 44.9111C16.4355 44.72 17.1044 42.6178 18.3466 43Z" fill="#731D00"/>
<path id="Vector_23" d="M11.8488 42.2356C12.7088 42.0445 13.6644 42.0444 14.5244 42.14C15.2888 42.2356 16.531 42.3311 16.8177 43.1911C16.9133 43.3822 16.8177 43.6689 16.6266 43.86C16.0533 44.3378 15.1933 44.2422 14.5244 44.1467C13.7599 44.1467 12.9955 44.1467 12.1355 44.2422C10.8933 44.4333 10.7022 42.6178 11.8488 42.2356ZM24.0799 47.5867C24.6533 47.2045 25.5133 47.2045 26.1822 47.2045C26.851 47.2045 27.9977 47.3 28.3799 48.0645C28.4755 48.3511 28.4755 48.5422 28.2844 48.7333C27.9022 49.2111 27.1377 49.1156 26.5644 49.2111C26.0866 49.2111 25.4177 49.3067 25.131 49.4022C23.9844 50.0711 22.9333 48.3511 24.0799 47.5867Z" fill="#731D00"/>
<path id="Vector_24" d="M16.5312 53.32C17.6779 51.7911 19.1112 50.74 20.6401 49.5933C21.2134 49.1156 21.8823 48.5422 22.6468 48.6378C22.9334 48.7333 23.6023 48.9245 23.4112 49.4022C23.1245 50.2622 21.8823 50.9311 21.2134 51.5045C20.1623 52.3645 19.1112 53.1289 18.3468 54.2756C17.5823 55.4222 15.7668 54.3711 16.5312 53.32Z" fill="#731D00"/>
<path id="Vector_25" d="M60.009 42.7133C59.8179 41.9489 59.0534 41.0889 58.4801 40.3245C57.0468 38.4133 55.1356 36.3111 53.2245 34.9733C50.0712 32.7756 46.7267 32.2022 43.0956 33.4445C39.4645 32.2022 36.1201 32.7756 32.9668 34.9733C31.0556 36.3111 29.1445 38.3178 27.7112 40.3245C27.1379 41.0889 26.3734 41.9489 26.1823 42.7133C25.8001 43.9556 28.5712 46.2489 29.049 46.5356C30.769 47.4911 32.6801 47.7778 34.5912 48.16C37.3623 48.6378 40.0379 49.4978 42.809 49.88H43.4779C46.249 49.4022 48.9245 48.6378 51.6956 48.16C53.6067 47.7778 55.5179 47.5867 57.2379 46.5356C57.7156 46.3445 60.3912 43.9556 60.009 42.7133ZM42.9045 49.3067C43.0001 49.2111 43.0001 49.2111 42.9045 49.3067C43.0001 49.3067 43.0001 49.3067 42.9045 49.3067Z" fill="#C43100"/>
<path id="Vector_26" d="M43.0954 34.2089L42.8088 34.1133C41.6621 33.7311 40.4199 33.4445 39.3688 33.4445C37.2666 33.4445 35.3554 34.1133 33.3488 35.5467C31.151 37.0756 29.2399 39.4645 28.1888 40.7067L27.9977 40.9933C27.5199 41.6622 26.9466 42.4267 26.7554 42.9045C26.5643 43.4778 28.571 45.58 29.2399 45.9622C30.6732 46.7267 32.2977 47.0133 33.9221 47.3956L34.4954 47.4911C35.7377 47.6822 36.9799 48.0645 38.2221 48.2556C39.3688 48.5422 40.5154 48.8289 41.7577 49.02L42.5221 48.6378L42.9999 48.3511V34.2089H43.0954Z" fill="#FF6A38"/>
<path id="Vector_27" d="M47.3957 49.7844C46.249 49.3067 44.9112 50.2622 43.7646 50.2622H42.1401C40.9935 50.2622 39.6557 49.3067 38.509 49.7844C38.0312 49.9756 37.649 50.6444 38.1268 51.1222C38.7001 51.6 39.4646 51.6956 40.1335 51.8867C40.8023 52.0778 41.4712 52.2689 42.1401 52.2689H43.7646C44.4335 52.2689 45.1023 52.0778 45.7712 51.8867C46.4401 51.6956 47.2046 51.6 47.7779 51.1222C48.3512 50.6444 47.969 49.9756 47.3957 49.7844Z" fill="#C43100"/>
<path id="Vector_28" d="M40.7068 30.96C40.7068 30.1956 40.0379 29.5267 39.2734 29.5267C38.509 29.5267 37.8401 30.1956 37.8401 30.96C37.8401 31.7245 38.509 35.1644 39.2734 35.1644C40.0379 35.1644 40.7068 31.7245 40.7068 30.96ZM48.2556 30.96C48.2556 30.1956 47.5868 29.5267 46.8223 29.5267C46.0579 29.5267 45.389 30.1956 45.389 30.96C45.389 31.7245 46.0579 35.1644 46.8223 35.1644C47.6823 35.1644 48.2556 31.7245 48.2556 30.96Z" fill="#471302"/>
<path id="Vector_29" d="M46.6311 30.4822C46.8222 30.1956 46.9178 29.9089 46.7267 29.8133C46.6311 29.7178 46.2489 29.8133 46.0578 30.1C45.8667 30.3867 45.7711 30.6733 45.9622 30.7689C46.1533 30.8644 46.44 30.7689 46.6311 30.4822ZM38.9867 30.4822C39.1778 30.1956 39.2734 29.9089 39.0822 29.8133C38.9867 29.7178 38.6045 29.8133 38.4134 30.1C38.2222 30.3867 38.1267 30.6733 38.3178 30.7689C38.4133 30.8644 38.7 30.7689 38.9867 30.4822Z" fill="#FDDD85"/>
</g>
</svg>
