<svg width="86" height="86" viewBox="0 0 86 86" fill="none" xmlns="http://www.w3.org/2000/svg">
<g id="capricornus 2">
<path id="Vector" d="M43.0001 9.55554C24.5579 9.55554 9.55566 24.5578 9.55566 43C9.55566 61.4422 24.5579 76.4444 43.0001 76.4444C61.4423 76.4444 76.4445 61.4422 76.4445 43C76.4445 24.5578 61.4423 9.55554 43.0001 9.55554Z" fill="#D5CAE9"/>
<path id="Vector_2" d="M31.5332 39.2733C32.7755 38.0311 31.3421 34.6867 28.4755 31.82C25.5132 28.9533 22.1688 27.6156 20.9266 28.8578C19.6843 30.1 21.1177 33.4445 23.9843 36.3111C26.9466 39.1778 30.291 40.5156 31.5332 39.2733Z" fill="#C43100"/>
<path id="Vector_3" d="M27.5199 32.8711C27.2333 31.9156 26.0866 30.96 25.3222 30.2911C24.3666 29.5267 23.2199 29.1444 21.9777 29.4311C21.5955 29.5267 21.4044 30.0044 21.4999 30.2911C21.4999 30.3867 21.4999 30.4822 21.5955 30.5778C21.7866 31.3422 22.7422 31.1511 22.9333 30.5778C23.6977 30.2911 24.6533 30.8644 25.3222 31.2467C26.1822 31.7244 26.6599 32.3933 27.3288 33.0622C27.4244 33.1578 27.6155 33.0622 27.5199 32.8711Z" fill="#A82A00"/>
<path id="Vector_4" d="M54.4666 39.2733C53.2244 38.0311 54.6577 34.6867 57.5244 31.82C60.4866 28.9533 63.831 27.6156 65.0733 28.8578C66.3155 30.1 64.8822 33.4445 62.0155 36.3111C59.0533 39.1778 55.7088 40.5156 54.4666 39.2733Z" fill="#C43100"/>
<path id="Vector_5" d="M58.4799 32.8711C58.7666 31.9156 59.9132 30.96 60.6777 30.2911C61.6332 29.5267 62.7799 29.1444 64.0221 29.4311C64.4043 29.5267 64.5955 30.0044 64.4999 30.2911C64.4999 30.3867 64.4999 30.4822 64.4043 30.5778C64.2132 31.3422 63.2577 31.1511 63.0666 30.5778C62.3021 30.2911 61.3466 30.8644 60.6777 31.2467C59.8177 31.7244 59.3399 32.3933 58.671 33.0622C58.5755 33.1578 58.3843 33.0622 58.4799 32.8711Z" fill="#A82A00"/>
<path id="Vector_6" d="M56.76 35.7378C53.5111 33.0622 43.4777 29.8133 43 29.8133C42.5222 29.8133 32.4888 33.0622 29.24 35.7378C26.3733 38.1267 27.9022 41.7578 28.1888 44.9111C28.38 46.7267 28.2844 48.8289 29.1444 50.4533C30.2911 52.5555 31.4377 61.1555 32.2977 63.4489C32.9666 65.4555 33.9222 66.9844 35.26 68.6089C35.6422 69.0867 35.9288 69.5644 36.3111 69.9467C37.0755 72.5267 39.8466 74.7244 42.5222 75.0111H43.6688C46.3444 74.7244 49.1155 72.5267 49.88 69.9467C50.2622 69.66 50.5488 69.0867 50.9311 68.6089C52.2688 66.9844 53.1288 65.4555 53.8933 63.4489C54.6577 61.1555 55.9 52.5555 57.0466 50.4533C57.9066 48.8289 57.8111 46.7267 58.0022 44.9111C58.0977 41.8533 59.6266 38.1267 56.76 35.7378Z" fill="#C43100"/>
<path id="Vector_7" d="M51.5044 29.6222C47.3 27.6156 44.3378 27.6156 43.0955 24.7489H42.9044C41.7578 27.6156 38.7 27.7111 34.4955 29.6222C31.82 30.8645 29.0489 32.9667 26.66 34.7822L26.3733 35.6422C25.7044 38.4133 26.9467 40.42 29.0489 42.0445C30.2911 43 31.7244 45.1978 33.2533 45.58C34.7822 45.8667 36.2155 47.8733 36.12 50.2622C35.9289 53.9889 32.8711 59.34 32.8711 63.2578C32.7755 66.7933 37.84 73.6733 41.6622 71.38C42.14 71.2845 42.6178 71.0933 43 70.7111C43.3822 70.9978 43.86 71.2845 44.3378 71.38C48.16 73.6733 53.2244 66.8889 53.1289 63.2578C53.0333 59.4356 50.0711 54.0845 49.88 50.2622C49.7844 47.8733 51.2178 45.8667 52.7467 45.58C54.2755 45.2933 55.7089 43 56.9511 42.0445C59.1489 40.42 60.3911 38.4133 59.6267 35.6422C59.6267 35.4511 54.18 30.8645 51.5044 29.6222Z" fill="#A82A00"/>
<path id="Vector_8" d="M33.9221 42.7133C33.9221 40.0378 32.4888 37.9355 30.7688 37.9355C29.0488 37.9355 27.6155 40.0378 27.6155 42.7133C27.6155 45.3889 29.0488 47.4911 30.7688 47.4911C32.4888 47.4911 33.9221 45.2933 33.9221 42.7133Z" fill="#471302"/>
<path id="Vector_9" d="M29.3356 43.1911C29.2401 42.7133 28.9534 42.3311 28.6667 42.3311C28.3801 42.4267 28.2845 42.8089 28.3801 43.3822C28.4756 43.86 28.7623 44.2422 29.049 44.2422C29.2401 44.1467 29.4312 43.7645 29.3356 43.1911ZM29.6223 45.1022C29.6223 44.9111 29.4312 44.8156 29.2401 44.8156C29.049 44.8156 28.9534 45.0067 28.9534 45.1978C28.9534 45.3889 29.1445 45.4844 29.3356 45.4844C29.6223 45.3889 29.7178 45.1978 29.6223 45.1022Z" fill="#FDDD85"/>
<path id="Vector_10" d="M58.3845 42.7133C58.3845 40.0378 57.0468 37.9355 55.2312 37.9355C53.5112 37.9355 52.0779 40.0378 52.0779 42.7133C52.0779 45.3889 53.5112 47.4911 55.2312 47.4911C56.9512 47.4911 58.3845 45.2933 58.3845 42.7133Z" fill="#471302"/>
<path id="Vector_11" d="M53.9888 44.72C53.7022 44.3378 53.2244 44.0511 53.0333 44.2422C52.8422 44.4333 52.9377 44.9111 53.2244 45.2933C53.511 45.6756 53.9888 45.9622 54.1799 45.7711C54.371 45.58 54.2755 45.1022 53.9888 44.72ZM55.0399 46.2489C54.9444 46.1533 54.7533 46.0578 54.5622 46.1533C54.371 46.2489 54.371 46.44 54.4666 46.6311C54.5622 46.7267 54.7533 46.8222 54.9444 46.7267C55.1355 46.5356 55.1355 46.3445 55.0399 46.2489Z" fill="#FDDD85"/>
<path id="Vector_12" d="M57.3333 31.82C53.1289 29.8133 44.2422 27.6156 43.0955 24.7489H42.9044C41.7578 27.6156 32.8711 29.9089 28.6667 31.82C25.9911 33.0622 26.4689 35.3556 26.3733 35.7378C25.7044 38.5089 26.9467 40.5156 29.0489 42.14C30.2911 43.0956 31.7244 43.9556 33.2533 44.3378C34.7822 44.6245 36.2155 43.9556 36.12 46.3445C35.9289 50.0711 32.8711 59.4356 32.8711 63.3533C32.7755 66.8889 37.84 73.7689 41.6622 71.4756C42.14 71.38 42.6178 71.1889 43 70.8067C43.3822 71.0933 43.86 71.38 44.3378 71.4756C48.16 73.7689 53.2244 66.9845 53.1289 63.3533C53.0333 59.5311 50.0711 50.1667 49.88 46.3445C49.7844 43.9556 51.2178 44.6245 52.7467 44.3378C54.2755 44.0511 55.7089 43.0956 56.9511 42.14C59.1489 40.5156 60.3911 38.5089 59.6267 35.7378C59.6267 35.4511 60.0089 33.0622 57.3333 31.82Z" fill="#FF6A38"/>
<path id="Vector_13" d="M80.5534 33.7311C79.789 28.1889 78.3557 23.0289 75.0112 18.4422C72.049 14.3333 67.6534 11.0844 62.3979 11.0844C54.5623 11.0844 45.4845 21.9778 44.6245 23.9844C43.0957 27.7111 45.5801 28.2844 47.8734 29.5267C51.2179 31.5333 55.6134 33.4444 57.429 31.9156C58.1934 31.2467 59.0534 29.8133 59.9134 28.8578C62.0157 26.1822 65.4557 23.7933 68.1312 26.8511C75.2979 35.1644 76.4445 58.9578 76.7312 62.9711C76.9223 65.0733 78.2601 70.9978 79.1201 69.66C80.7445 67.4622 82.0823 45.1978 80.5534 33.7311ZM6.78454 69.5644C7.7401 70.9022 9.07788 64.9778 9.17343 62.8756C9.4601 58.8622 10.6068 35.0689 17.7734 26.7556C20.449 23.6022 23.889 26.0867 25.9912 28.7622C26.7557 29.7178 27.7112 31.2467 28.4757 31.82C30.2912 33.3489 34.5912 31.4378 38.0312 29.4311C40.3245 28.0933 42.809 27.52 41.2801 23.8889C40.4201 21.8822 31.3423 10.9889 23.5068 10.9889C18.2512 10.9889 13.8557 14.2378 10.8934 18.3467C7.54899 22.9333 6.11565 28.0933 5.35121 33.6356C3.91788 45.1978 5.25565 67.4622 6.78454 69.5644Z" fill="#FDDD85"/>
<path id="Vector_14" d="M80.5534 33.7311C79.789 28.1889 78.3557 23.0289 75.0112 18.4422C72.049 14.3333 67.6534 11.0844 62.3979 11.0844C54.5623 11.0844 45.4845 21.9778 44.6245 23.9844C43.0957 27.7111 45.5801 28.2844 47.8734 29.5267C51.2179 31.5333 55.6134 33.4444 57.429 31.9156C58.1934 31.2467 59.0534 29.8133 59.9134 28.8578C62.0157 26.1822 65.4557 23.7933 68.1312 26.8511C75.2979 35.1644 76.4445 58.9578 76.7312 62.9711C76.9223 65.0733 78.2601 70.9978 79.1201 69.66C80.7445 67.4622 82.0823 45.1978 80.5534 33.7311ZM6.78454 69.5644C7.7401 70.9022 9.07788 64.9778 9.17343 62.8756C9.4601 58.8622 10.6068 35.0689 17.7734 26.7556C20.449 23.6022 23.889 26.0867 25.9912 28.7622C26.7557 29.7178 27.7112 31.2467 28.4757 31.82C30.2912 33.3489 34.5912 31.4378 38.0312 29.4311C40.3245 28.0933 42.809 27.52 41.2801 23.8889C40.4201 21.8822 31.3423 10.9889 23.5068 10.9889C18.2512 10.9889 13.8557 14.2378 10.8934 18.3467C7.54899 22.9333 6.11565 28.0933 5.35121 33.6356C3.91788 45.1978 5.25565 67.4622 6.78454 69.5644Z" fill="#FDC11C"/>
<path id="Vector_15" d="M75.011 18.3467C72.0488 14.2378 67.6532 10.9889 62.3977 10.9889C54.5621 10.9889 45.4843 21.8822 44.6243 23.8889C44.6243 23.9844 44.6243 23.9844 44.5288 24.08C45.1977 25.0356 46.5355 25.6089 47.8732 26.2778C51.2177 28.2844 55.6132 30.1956 57.4288 28.6667C58.1932 27.9978 59.0532 26.5644 59.9132 25.6089C62.0155 22.9333 64.691 21.4044 68.131 23.6022C80.0755 31.2467 79.311 55.7089 79.6932 59.7222C79.7888 60.5822 80.0755 62.1111 80.3621 63.4489C81.2221 55.5178 81.5088 41.8533 80.4577 33.6356C79.7888 28.0933 78.3555 23.0289 75.011 18.3467ZM17.7732 23.6022C21.4043 21.6911 23.8888 22.9333 25.991 25.6089C26.7555 26.5644 27.711 28.0933 28.4755 28.6667C30.291 30.1956 34.591 28.2844 38.031 26.2778C39.2732 25.5133 40.7066 25.0356 41.3755 24.08C41.3755 23.9844 41.3755 23.9844 41.2799 23.8889C40.4199 21.8822 31.3421 10.9889 23.5066 10.9889C18.251 10.9889 13.8555 14.2378 10.8932 18.3467C7.54879 22.9333 6.11546 28.0933 5.35101 33.6356C4.2999 41.8533 4.58657 55.5178 5.44657 63.4489C5.82879 62.0156 6.11546 60.5822 6.11546 59.7222C6.59323 55.7089 6.21101 29.4311 17.7732 23.6022Z" fill="#FDDD85"/>
<path id="Vector_16" d="M42.9999 37.6489C46.7266 37.6489 47.7777 24.7489 42.9999 24.7489C38.2221 24.7489 39.2732 37.6489 42.9999 37.6489ZM26.1821 37.7445C26.3732 39.4645 27.4244 40.8978 29.0488 42.0445C30.291 43 31.7244 43.86 33.2532 44.2422C34.2088 44.4333 35.1644 44.2422 35.7377 44.72C36.1199 44.1467 36.4066 43.4778 36.4066 42.8089C36.4066 39.9422 32.3932 37.6489 27.5199 37.7445C27.0421 37.6489 26.5644 37.7445 26.1821 37.7445ZM49.211 50.4533C49.211 44.4333 46.4399 38.3178 42.9999 38.3178C39.5599 38.3178 36.7888 44.5289 36.7888 50.4533C36.7888 56.4733 39.5599 66.6022 42.9999 66.6022C46.4399 66.6022 49.211 56.3778 49.211 50.4533ZM58.5755 37.6489C53.7021 37.6489 49.6888 39.9422 49.6888 42.8089C49.6888 43.4778 49.8799 44.0511 50.3577 44.6245C50.8355 44.1467 51.791 44.3378 52.8421 44.1467C54.371 43.86 55.8044 42.9045 57.0466 41.9489C58.671 40.8022 59.7221 39.3689 59.9132 37.5533C59.4355 37.7445 58.9577 37.6489 58.5755 37.6489Z" fill="#FF8961"/>
<path id="Vector_17" d="M43 70.9022C43.5734 71.6667 45.1978 72.3355 46.1534 72.24C47.2045 72.1444 48.3511 71.38 49.4978 70.52C49.5934 70.3289 49.6889 70.0422 49.7845 69.8511C49.02 70.4244 48.16 70.9022 47.3956 70.9978C45.7711 71.2844 44.2422 70.9978 43.3822 69.5644C43.6689 69.3733 43.7645 68.7044 43.86 68.5133C44.1467 67.6533 45.9622 65.7422 46.1534 65.5511C46.8222 65.0733 47.3 64.4044 47.7778 63.7355C47.9689 63.5444 47.6822 63.2578 47.4911 63.3533C46.9178 63.8311 46.2489 64.3089 45.58 64.5955C44.9111 64.8822 43.9556 64.7867 43.1911 64.8822C43.0956 64.8822 43 64.8822 43 64.9778C42.9045 64.9778 42.9045 64.9778 42.8089 64.8822C42.0445 64.7867 41.1845 64.8822 40.42 64.5955C39.7511 64.3089 39.0822 63.8311 38.5089 63.3533C38.3178 63.1622 38.0311 63.5444 38.2222 63.7355C38.7 64.3089 39.2734 64.9778 39.8467 65.5511C40.0378 65.6467 41.8534 67.6533 42.14 68.5133C42.2356 68.7044 42.3311 69.3733 42.6178 69.5644C41.8534 70.9978 40.2289 71.2844 38.6045 70.9978C37.84 70.9022 37.0756 70.4244 36.2156 69.8511C36.3111 70.0422 36.4067 70.3289 36.5022 70.52C37.6489 71.38 38.7956 72.0489 39.8467 72.24C40.8022 72.4311 42.4267 71.6667 43 70.9022Z" fill="#A82A00"/>
<path id="Vector_18" d="M39.9423 65.6466L40.3245 66.0289L40.4201 66.1244C41.089 66.4111 44.8156 66.4111 45.5801 66.1244L45.6756 66.0289C45.8667 65.8378 45.9623 65.6466 46.0579 65.6466C46.7267 65.1689 47.2045 64.5 47.6823 63.8311C47.8734 63.64 47.5867 63.3533 47.3956 63.4489C46.8223 63.9267 46.1534 64.4044 45.4845 64.6911C44.8156 64.9778 41.089 64.9778 40.3245 64.6911C39.6556 64.4044 38.9867 63.9267 38.4134 63.4489C38.2223 63.2578 37.9356 63.64 38.1267 63.8311C38.7956 64.5 39.2734 65.1689 39.9423 65.6466Z" fill="#471302"/>
<path id="Vector_19" d="M48.2555 27.6156C48.0644 27.6156 47.8733 27.6156 47.6822 27.52L47.3955 27.3289C46.9177 27.0422 46.6311 26.3733 47.0133 25.8C47.3 25.3222 47.9689 25.0356 48.4466 25.4178H48.5422L48.8289 25.6089C49.3066 25.8956 49.4977 26.5644 49.2111 27.1378C49.02 27.3289 48.6377 27.6156 48.2555 27.6156Z" fill="#FDC11C"/>
<path id="Vector_20" d="M79.6933 58.2889C79.1199 58.2889 78.6422 57.8111 78.6422 57.2378V56.4733C78.6422 55.9 79.0244 55.5178 79.5022 55.3267C79.0244 55.2311 78.6422 54.8489 78.5466 54.2756V53.6067C78.5466 53.0333 78.8333 52.6511 79.4066 52.46C78.9288 52.3645 78.451 51.9822 78.451 51.4089L78.3555 50.74C78.3555 50.1667 78.6422 49.7845 79.1199 49.5934C78.6422 49.4978 78.1644 49.1156 78.1644 48.6378L78.0688 47.9689C77.9733 47.3956 78.3555 46.9178 78.8333 46.8222C78.3555 46.8222 77.8777 46.44 77.7822 45.8667L77.6866 45.1978C77.5911 44.72 77.8777 44.1467 78.3555 44.0511C77.8777 44.0511 77.3999 43.6689 77.3044 43.1911C77.3044 43 77.2088 42.7134 77.2088 42.5222C77.1133 42.0445 77.3999 41.4711 77.8777 41.28C77.3999 41.28 76.9222 40.8978 76.8266 40.42C76.7311 40.2289 76.731 39.9422 76.6355 39.7511C76.5399 39.2733 76.7311 38.7 77.2088 38.5089C76.7311 38.5089 76.2533 38.2222 76.0622 37.7445C75.9666 37.5533 75.9666 37.2667 75.871 37.0756C75.6799 36.5978 75.9666 36.0245 76.3488 35.8333C75.871 35.9289 75.3933 35.6422 75.2022 35.1645C75.1066 34.9733 75.0111 34.6867 74.9155 34.4956C74.7244 34.0178 74.9155 33.4445 75.2977 33.1578C74.8199 33.2534 74.3422 33.0622 74.0555 32.5845C73.9599 32.3933 73.8644 32.2022 73.7688 31.9156C73.5777 31.4378 73.6733 30.8645 74.0555 30.5778C73.5777 30.7689 73.0999 30.5778 72.8133 30.1C72.7177 29.9089 72.5266 29.7178 72.4311 29.5267C72.1444 29.1445 72.2399 28.5711 72.5266 28.1889C72.0488 28.38 71.571 28.2845 71.1888 27.9022C71.0933 27.7111 70.9022 27.52 70.711 27.4245C70.4244 27.0422 70.3288 26.4689 70.6155 26.0867C70.2333 26.3733 69.6599 26.2778 69.2777 25.9911C69.0866 25.8 68.8955 25.7045 68.7999 25.5134C68.4177 25.2267 68.3222 24.6533 68.5133 24.2711C68.131 24.5578 67.6533 24.6533 67.1755 24.4622L66.6022 24.1756C66.2199 23.9845 65.9333 23.6022 65.9333 23.22C65.7422 23.6022 65.3599 23.8889 64.8822 23.7933H64.3088C63.9266 23.8889 63.4488 23.6978 63.2577 23.3156C63.3533 23.6978 63.1622 24.1756 62.7799 24.3667C62.5888 24.4622 62.3977 24.5578 62.3022 24.7489C62.111 24.8445 61.5377 24.8445 61.1555 24.6533C61.4422 25.0356 61.3466 25.6089 61.0599 25.9911L60.7733 26.2778L60.5822 26.4689C60.2955 26.8511 59.7222 27.0422 59.2444 26.7556C59.6266 27.1378 59.6266 27.7111 59.3399 28.1889C59.1488 28.38 59.0533 28.5711 58.8622 28.7622C58.4799 29.24 57.811 29.24 57.3333 28.8578V28.9533C57.4288 29.5267 57.0466 30.1 56.3777 30.1956C56.091 30.1956 55.8999 30.2911 55.6133 30.2911H55.5177C54.9444 30.2911 54.4666 29.8133 54.4666 29.24C54.2755 29.7178 53.7022 30.0045 53.1288 29.9089C52.8422 29.8133 52.651 29.7178 52.3644 29.7178C51.8866 29.5267 51.5044 28.9533 51.6955 28.4756C51.4088 28.9533 50.8355 29.0489 50.3577 28.8578C50.1666 28.7622 49.8799 28.6667 49.6888 28.5711C49.1155 28.2845 48.9244 27.6156 49.211 27.1378C49.4977 26.5645 50.1666 26.3733 50.6444 26.66C50.8355 26.7556 51.0266 26.8511 51.3133 26.9467C51.791 27.1378 51.9822 27.7111 51.8866 28.1889C52.1733 27.8067 52.651 27.6156 53.1288 27.8067C53.3199 27.9022 53.511 27.9022 53.7977 27.9978C54.2755 28.0933 54.5622 28.5711 54.5622 29.0489C54.7533 28.6667 55.1355 28.38 55.6133 28.38H56.1866C56.4733 28.2845 56.8555 28.4756 57.0466 28.6667C56.9511 28.38 57.0466 27.9978 57.2377 27.7111C57.3333 27.52 57.5244 27.3289 57.6199 27.2333C57.9066 26.8511 58.4799 26.66 58.9577 26.9467C58.5755 26.5645 58.5755 25.9911 58.8622 25.5134L59.0533 25.3222C59.1488 25.2267 59.2444 25.0356 59.3399 24.94C59.7222 24.5578 60.2955 24.4622 60.7733 24.7489C60.4866 24.2711 60.5822 23.6022 61.0599 23.3156C61.2511 23.1245 61.5377 23.0289 61.7288 22.8378C62.2066 22.5511 62.8755 22.6467 63.2577 23.1245C63.1622 22.5511 63.6399 21.9778 64.2133 21.8822C64.4999 21.8822 64.7866 21.7867 64.9777 21.7867H65.0733C65.6466 21.7867 66.1244 22.2645 66.1244 22.8378C66.411 22.36 66.9844 22.0733 67.5577 22.36C67.8444 22.4556 68.0355 22.5511 68.3222 22.7422C68.7999 23.0289 68.991 23.6022 68.7999 24.08C69.1822 23.6978 69.851 23.6978 70.2333 23.9845C70.4244 24.1756 70.6155 24.2711 70.8066 24.4622C71.1888 24.8445 71.2844 25.4178 70.9977 25.8956C71.4755 25.6089 72.0488 25.7045 72.4311 26.0867C72.6222 26.2778 72.7177 26.4689 72.9088 26.66C73.2911 27.0422 73.1955 27.7111 72.9088 28.0933C73.3866 27.9022 73.9599 27.9978 74.2466 28.4756C74.3422 28.6667 74.5333 28.8578 74.6288 29.1445C74.9155 29.6222 74.8199 30.1956 74.4377 30.5778C74.9155 30.3867 75.4888 30.6733 75.7755 31.1511C75.8711 31.3422 75.9666 31.6289 76.0622 31.82C76.2533 32.2978 76.1577 32.8711 75.6799 33.1578C76.1577 33.0622 76.731 33.3489 76.9222 33.8267C77.0177 34.0178 77.1133 34.3045 77.2088 34.4956C77.3999 34.9733 77.2088 35.5467 76.7311 35.8333C77.2088 35.7378 77.7822 36.12 77.8777 36.5978C77.9733 36.7889 77.9733 37.0756 78.0688 37.2667C78.2599 37.7445 77.9733 38.3178 77.4955 38.6045C78.0688 38.6045 78.5466 38.8911 78.6422 39.4645C78.7377 39.6556 78.7377 39.9422 78.8333 40.1334C78.9288 40.7067 78.6422 41.1845 78.1644 41.3756C78.6422 41.3756 79.1199 41.7578 79.2155 42.2356C79.2155 42.4267 79.311 42.7134 79.311 43C79.4066 43.5733 79.1199 44.0511 78.6422 44.2422C79.1199 44.2422 79.5977 44.6245 79.6933 45.1978L79.7888 45.9622C79.8844 46.5356 79.5022 47.0133 79.0244 47.1089C79.5022 47.1089 79.9799 47.5867 80.0755 48.0645L80.1711 48.8289C80.2666 49.4022 79.8844 49.88 79.4066 49.9756C79.8844 50.0711 80.3622 50.4534 80.3622 51.0267L80.4577 51.7911C80.4577 52.3645 80.1711 52.8422 79.5977 52.9378C80.0755 53.0334 80.5533 53.4156 80.5533 53.9889V54.7533C80.5533 55.3267 80.1711 55.7089 79.6933 55.9C80.1711 55.9956 80.6488 56.3778 80.6488 56.9511V57.7156C80.7444 57.8111 80.2666 58.2889 79.6933 58.2889Z" fill="#FDC11C"/>
<path id="Vector_21" d="M79.7888 60.7733C79.2154 60.7733 78.7377 60.2955 78.7377 59.7222V59.34C78.7377 58.7667 79.1199 58.1933 79.7888 58.1933C80.3621 58.1933 80.9354 58.5755 80.9354 59.2444V59.5311C80.9354 60.2 80.4577 60.7733 79.7888 60.7733ZM6.21099 60.7733C5.5421 60.6778 5.06432 60.2 5.15988 59.6267V59.2444C5.15988 58.6711 5.73321 58.1933 6.30655 58.1933C6.87988 58.1933 7.35766 58.7667 7.35766 59.34V59.7222C7.2621 60.3911 6.78432 60.7733 6.21099 60.7733Z" fill="#FDC11C"/>
<path id="Vector_22" d="M6.40215 58.2889C6.3066 58.2889 6.3066 58.2889 6.40215 58.2889C5.73326 58.2889 5.25549 57.7156 5.35104 57.1422V56.3778C5.35104 55.8045 5.73326 55.4222 6.3066 55.3267C5.82882 55.2311 5.4466 54.7533 5.4466 54.18V53.4156C5.4466 52.8422 5.92438 52.46 6.40215 52.3645C5.92438 52.2689 5.54215 51.7911 5.54215 51.2178L5.63771 50.6445C5.63771 50.0711 6.11549 49.6889 6.59326 49.6889C6.11549 49.5933 5.73326 49.02 5.82882 48.5422L5.92438 47.7778C6.01993 47.2045 6.40215 46.8222 6.97549 46.8222C6.49771 46.6311 6.11549 46.1533 6.21104 45.6756L6.3066 44.9111C6.40215 44.3378 6.78438 43.9556 7.35771 43.9556C6.87993 43.7645 6.59326 43.2867 6.68882 42.7134V42.0445C6.78438 41.4711 7.26215 41.0889 7.83549 41.0889C7.35771 40.8978 7.07104 40.3245 7.1666 39.8467C7.26215 39.6556 7.26215 39.3689 7.35771 39.1778C7.45326 38.6045 7.93104 38.3178 8.50438 38.3178C8.0266 38.1267 7.73993 37.5533 7.93104 37.0756C8.0266 36.8845 8.0266 36.5978 8.12215 36.4067C8.31327 35.9289 8.79104 35.5467 9.26882 35.6422C8.79104 35.3556 8.59993 34.8778 8.79104 34.3045C8.8866 34.1134 8.98215 33.8267 9.07771 33.6356C9.26882 33.1578 9.7466 32.8711 10.3199 32.9667C9.84215 32.68 9.65104 32.1067 9.93771 31.6289C10.0333 31.4378 10.1288 31.1511 10.2244 30.96C10.4155 30.4822 10.9888 30.1956 11.5622 30.3867C11.1799 30.0045 10.9888 29.4311 11.2755 28.9533C11.371 28.7622 11.5622 28.4756 11.6577 28.2845C11.9444 27.8067 12.5177 27.6156 12.9955 27.9022C12.6133 27.52 12.6133 26.8511 12.8999 26.4689C13.091 26.2778 13.1866 26.0867 13.3777 25.8956C13.7599 25.5134 14.3333 25.4178 14.811 25.7045C14.5244 25.2267 14.6199 24.6533 15.0022 24.2711C15.1933 24.08 15.3844 23.9845 15.5755 23.7933C16.0533 23.5067 16.6266 23.5067 17.0088 23.8889C16.8177 23.4111 17.1044 22.7422 17.5822 22.5511C17.8688 22.4556 18.0599 22.36 18.3466 22.2645C18.9199 22.0733 19.4933 22.2645 19.7799 22.8378C19.7799 22.2645 20.2577 21.7867 20.831 21.7867H21.691C22.2644 21.8822 22.7422 22.36 22.6466 22.9333C22.9333 22.4556 23.6022 22.2645 24.0799 22.5511C24.3666 22.6467 24.5577 22.8378 24.7488 23.0289C25.2266 23.4111 25.3222 23.9845 25.0355 24.4622C25.5133 24.1756 26.0866 24.1756 26.4688 24.6533C26.5644 24.7489 26.6599 24.94 26.7555 25.0356L26.9466 25.2267C27.2333 25.6089 27.2333 26.2778 26.851 26.66C27.3288 26.4689 27.9022 26.5645 28.1888 26.9467C28.2844 27.1378 28.4755 27.3289 28.571 27.4245C28.7622 27.7111 28.8577 28.0934 28.7622 28.38C28.9533 28.1889 29.3355 28.0933 29.6222 28.0933H30.1955C30.6733 28.0933 31.0555 28.38 31.2466 28.7622C31.2466 28.2845 31.5333 27.9022 32.011 27.7111C32.2022 27.6156 32.3933 27.6156 32.6799 27.52C33.1577 27.3289 33.6355 27.52 33.9222 27.9022C33.8266 27.4245 34.1133 26.9467 34.4955 26.66C34.6866 26.5645 34.8777 26.4689 35.1644 26.3733C35.7377 26.0867 36.4066 26.3733 36.5977 26.8511C36.8844 27.4245 36.5977 28.0933 36.1199 28.2845C35.9288 28.38 35.6422 28.4756 35.451 28.5711C34.9733 28.7622 34.3999 28.6667 34.1133 28.1889C34.2088 28.7622 33.9222 29.24 33.4444 29.4311C33.1577 29.5267 32.9666 29.6222 32.6799 29.6222C32.1066 29.8133 31.5333 29.5267 31.3422 28.9533C31.3422 29.5267 30.8644 30.0045 30.291 30.0045H30.1955C29.9088 30.0045 29.6222 30.0045 29.431 29.9089C28.8577 29.8133 28.3799 29.24 28.4755 28.6667V28.5711C27.9977 28.9533 27.3288 28.8578 26.9466 28.4756C26.7555 28.2845 26.6599 28.0934 26.4688 27.9022C26.1822 27.52 26.1822 26.8511 26.5644 26.4689C26.0866 26.66 25.5133 26.5645 25.2266 26.1822L25.0355 25.9911L24.7488 25.7045C24.4622 25.3222 24.3666 24.8445 24.6533 24.4622C24.271 24.7489 23.7933 24.7489 23.411 24.4622C23.2199 24.3667 23.1244 24.2711 22.9333 24.1756C22.551 23.9845 22.3599 23.5067 22.3599 23.1245C22.1688 23.5067 21.7866 23.6978 21.3088 23.6022H20.7355C20.2577 23.6022 19.8755 23.3156 19.6844 22.9333C19.6844 23.4111 19.3977 23.7933 19.0155 23.9845L18.4422 24.2711C17.9644 24.4622 17.4866 24.3667 17.1999 23.9845C17.391 24.4622 17.1999 24.94 16.8177 25.2267C16.6266 25.3222 16.4355 25.5133 16.3399 25.6089C15.9577 25.8956 15.3844 25.8956 15.0022 25.7045C15.2888 26.0867 15.1933 26.66 14.9066 27.0422C14.7155 27.2333 14.6199 27.4245 14.5244 27.52C14.2377 27.9022 13.6644 27.9978 13.1866 27.8067C13.4733 28.1889 13.5688 28.6667 13.2822 29.1445C13.1866 29.3356 13.091 29.5267 12.8999 29.7178C12.6133 30.1956 12.1355 30.3867 11.6577 30.1956C12.0399 30.4822 12.1355 31.0556 11.9444 31.5333C11.8488 31.7245 11.7533 31.9156 11.6577 32.2022C11.4666 32.68 10.9888 32.9667 10.4155 32.8711C10.7977 33.1578 10.9888 33.6356 10.8933 34.2089C10.7977 34.4 10.7022 34.6867 10.7022 34.8778C10.511 35.3556 10.0333 35.6422 9.55549 35.6422C10.0333 35.9289 10.2244 36.4067 10.1288 36.8845C10.0333 37.0756 10.0333 37.3622 9.93771 37.5533C9.84215 38.0311 9.36438 38.4133 8.79104 38.3178C9.26882 38.5089 9.55549 39.0822 9.36438 39.56C9.26882 39.7511 9.26882 40.0378 9.17327 40.2289C9.07771 40.7067 8.59993 41.0889 8.12215 41.0889C8.59993 41.28 8.8866 41.7578 8.79104 42.3311L8.69549 43C8.59993 43.4778 8.12215 43.86 7.64438 43.9556C8.12215 44.1467 8.40882 44.6245 8.31326 45.1022V45.8667C8.21771 46.3445 7.83549 46.8222 7.26215 46.8222C7.73993 47.0133 8.0266 47.4911 8.0266 47.9689V48.7333C7.93104 49.3067 7.54882 49.6889 7.07104 49.6889C7.54882 49.7845 7.93104 50.2622 7.83549 50.8356L7.73993 51.6C7.73993 52.1733 7.26215 52.5556 6.78438 52.6511C7.26215 52.6511 7.64438 53.1289 7.64438 53.7022V54.3711C7.64438 54.9445 7.1666 55.3267 6.68882 55.4222C7.1666 55.5178 7.54882 55.9956 7.54882 56.5689V57.2378C7.45327 57.8111 6.97549 58.2889 6.40215 58.2889ZM37.7444 27.6156C37.3622 27.6156 36.9799 27.4245 36.7888 27.0422C36.5022 26.4689 36.6933 25.8 37.171 25.5134L37.4577 25.3222L38.031 26.2778L38.6044 27.2333L38.3177 27.4245C38.1266 27.52 37.9355 27.6156 37.7444 27.6156Z" fill="#FDC11C"/>
</g>
</svg>
