<svg width="70" height="70" viewBox="0 0 70 70" fill="none" xmlns="http://www.w3.org/2000/svg">
<g id="capricornus 1" clip-path="url(#clip0_4_404)">
<path id="Vector" d="M35 70C54.33 70 70 54.33 70 35C70 15.67 54.33 0 35 0C15.67 0 0 15.67 0 35C0 54.33 15.67 70 35 70Z" fill="#E5CFCA"/>
<path id="Vector_2" d="M23.0002 16.2C13.6002 15.3 6.2002 24.9 8.1002 24.9C8.1002 24.9 11.9002 21.5 16.2002 21.5C23.2002 21.5 27.4002 29.5 27.4002 29.5C27.4002 29.5 27.1002 31.5 29.8002 30.4C29.8002 30.4 33.4002 27.9 33.6002 25.6C33.7002 25.6 30.4002 16.9 23.0002 16.2ZM47.1002 16.2C39.7002 16.9 36.5002 25.6 36.5002 25.6C36.7002 27.9 40.3002 30.4 40.3002 30.4C42.9002 31.5 42.7002 29.5 42.7002 29.5C42.7002 29.5 46.9002 21.5 53.9002 21.5C58.3002 21.5 62.0002 24.9 62.0002 24.9C63.9002 24.9 56.5002 15.3 47.1002 16.2Z" fill="#887771"/>
<path id="Vector_3" d="M53.1001 23.7C53.1001 23.6 53.0001 23.6 52.9001 23.6C47.5001 23.8 44.0001 29.4 43.7001 29.9C43.1001 30.4 44.1001 33.9 46.1001 33.2C49.9001 31.8 52.3001 30 53.2001 27.7C54.0001 25.5 53.1001 23.8 53.1001 23.7ZM26.4001 29.9C26.1001 29.4 22.5001 23.8 17.2001 23.6C17.1001 23.6 17.0001 23.6 17.0001 23.7C17.0001 23.8 16.1001 25.5 17.0001 27.7C17.9001 30 20.3001 31.8 24.1001 33.2C26.0001 33.9 27.0001 30.4 26.4001 29.9Z" fill="#74625C"/>
<path id="Vector_4" d="M45.5001 34.9C45.5001 34.9 46.8001 32.2 46.0001 30.9C46.0001 30.9 45.0001 30.2 43.6001 29.9C43.6001 29.9 39.9001 27.8 37.0001 25.6C36.5001 25.2 35.6001 25.2 35.1001 25.2C34.6001 25.2 33.7001 25.2 33.2001 25.6C30.3001 27.8 26.6001 29.9 26.6001 29.9C25.2001 30.1 24.2001 30.9 24.2001 30.9C23.4001 32.2 24.7001 34.9 24.7001 34.9C25.0001 36 24.4001 38.2 24.4001 38.2C23.8001 42.1 27.7001 47.4 27.7001 47.4C27.9001 49 28.7001 51.5 28.7001 51.5C29.1001 52.2 33.0001 56.1 33.0001 56.1C34.0001 57.4 35.1001 57.1 35.1001 57.1C35.1001 57.1 36.3001 57.4 37.2001 56.1C37.2001 56.1 41.1001 52.2 41.5001 51.5C41.5001 51.5 42.2001 49 42.5001 47.4C42.5001 47.4 46.4001 42.1 45.8001 38.2C45.8001 38.2 45.3001 36 45.5001 34.9Z" fill="#9F8C87"/>
<path id="Vector_5" d="M35.1 25.2C34.6 25.2 33.7 25.2 33.1 25.6C30.2 27.8 26.5001 29.9 26.5001 29.9C25.1001 30.1 24.1001 30.9 24.1001 30.9C23.3001 32.2 24.6001 34.9 24.6001 34.9C24.9001 36 24.3001 38.2 24.3001 38.2C23.7001 42.1 27.6001 47.4 27.6001 47.4C27.8001 49 28.6001 51.5 28.6001 51.5C29.0001 52.2 32.9001 56.1 32.9001 56.1C33.9001 57.4 35.0001 57.1 35.0001 57.1C35.1001 57.1 35.1 25.2 35.1 25.2Z" fill="#AC9994"/>
<path id="Vector_6" d="M34.9002 43C28.1002 43 27.7002 47.5 27.7002 47.5C27.9002 49.1 28.7002 51.6 28.7002 51.6C29.1002 52.3 33.0002 56.2 33.0002 56.2C34.0002 57.5 35.1002 57.2 35.1002 57.2C35.1002 57.2 36.3002 57.5 37.2002 56.2C37.2002 56.2 41.1002 52.3 41.5002 51.6C41.5002 51.6 42.2002 49.1 42.5002 47.5C42.5002 47.4 41.7002 43 34.9002 43Z" fill="#D8C5C0"/>
<path id="Vector_7" d="M35.1002 54.7C30.9002 54.7 28.7002 51.5 28.7002 51.5C29.1002 52.2 33.0002 56.1 33.0002 56.1C34.0002 57.4 35.1002 57.1 35.1002 57.1C35.1002 57.1 36.3002 57.4 37.2002 56.1C37.2002 56.1 41.1002 52.2 41.5002 51.5C41.5002 51.5 39.3002 54.7 35.1002 54.7Z" fill="#9F8C87"/>
<path id="Vector_8" d="M26.9999 32.2L23.8999 32.1C23.8999 32.1 23.6999 32.3 23.8999 33.5C24.0999 34.6 24.6999 34.9 24.6999 34.9L28.8999 36.7L29.0999 36.3L26.9999 32.2ZM46.2999 32.1L43.1999 32.2L41.0999 36.2L41.2999 36.6L45.4999 34.8C45.4999 34.8 46.0999 34.5 46.2999 33.4C46.4999 32.3 46.2999 32.1 46.2999 32.1ZM39.5999 46.9C37.4999 45.8 35.2999 45.6 35.1999 45.5C35.0999 45.5 32.8999 45.8 30.7999 46.9C30.6999 46.9 30.6999 47 30.6999 47.1C30.6999 47.2 30.6999 47.3 30.7999 47.3L35.0999 49.9H35.2999L39.5999 47.3C39.6999 47.3 39.6999 47.2 39.6999 47.1C39.6999 47 39.5999 47 39.5999 46.9Z" fill="#7C6A65"/>
<path id="Vector_9" d="M46.2999 32.1C46.3999 32.3 46.3999 32.5 46.3999 32.7C46.3999 32.2 46.2999 32.1 46.2999 32.1ZM39.6999 51.5C39.5999 51.4 39.4999 51.3 39.3999 51.4C37.8999 52.1 36.7999 52.1 36.0999 51.7C35.4999 51.3 35.3999 50.6 35.2999 50.1V49.5C35.2999 49.4 35.1999 49.3 35.0999 49.3C34.9999 49.3 34.8999 49.4 34.8999 49.5V50.1C34.8999 50.6 34.6999 51.3 34.0999 51.7C33.3999 52.2 32.2999 52.1 30.7999 51.5C30.6999 51.4 30.4999 51.5 30.4999 51.6C30.3999 51.7 30.4999 51.9 30.5999 51.9C31.4999 52.3 32.2999 52.5 32.9999 52.5C33.5999 52.5 33.9999 52.4 34.3999 52.1C34.7999 51.8 34.9999 51.5 35.0999 51.1C35.1999 51.5 35.4999 51.8 35.8999 52.1C36.2999 52.4 36.6999 52.5 37.2999 52.5C37.9999 52.5 38.7999 52.3 39.6999 51.9V51.5Z" fill="#7C6A65"/>
</g>
<defs>
<clipPath id="clip0_4_404">
<rect width="70" height="70" fill="white"/>
</clipPath>
</defs>
</svg>
