<svg width="70" height="70" viewBox="0 0 70 70" fill="none" xmlns="http://www.w3.org/2000/svg">
<g id="leo 1" clip-path="url(#clip0_4_110)">
<path id="Vector" d="M35 70C54.33 70 70 54.33 70 35C70 15.67 54.33 0 35 0C15.67 0 0 15.67 0 35C0 54.33 15.67 70 35 70Z" fill="#E5CFCA"/>
<path id="Vector_2" d="M56.3 41.5L61.4 41.8C59.3 35 54.1 35.5 54.1 35.5L59.6 30.1C54 29.8 52.7 26.4 52.7 26.4L55.6 23.3C55.2 22.3 51.2 21.7 51.2 21.7C51.9 21 51.7 17.9 51.7 17.9C50.1 18.2 46.5 17.4 46.5 17.4C47.3 16.2 49.1 16.5 49.1 16.5C46.2 13.4 39.9 15.7 39.9 15.7C39.7 13.8 40.5 12.8 40.5 12.8C37.5 12 35.8 15.1 35.8 15.1L34.8 12.1L34.3 15.1C32.7 14.8 30.6 11.4 30.6 11.4C29 12.8 31 16.9 31 16.9C27.1 13.4 22.2 14.9 22.2 14.9C22.2 17.2 25.9 20.2 25.9 20.2C22.6 17.5 16.3 18.9 16.3 18.9C17 21.3 18.7 22 18.7 22L12.8 30.3C7.19998 33.4 8.99998 40.6 8.99998 40.6C11.4 37.5 15 38.8 15 38.8C14 39.5 11.1 40.2 11.1 40.2C12 40.5 13 41 13 41C9.79998 42.1 9.89998 46.2 9.89998 46.2C11.5 45.6 15.1 46.1 15.1 46.1C14 46 12 48.2 12 48.2C13.1 48.8 16.3 49.1 16.3 49.1C13.3 50.9 14.5 53.3 14.5 53.3C16 52.5 18.4 52.1 18.4 52.1C20.1 52.3 21.1 52.6 21.1 52.6C21.1 55 22.7 57.1 22.7 57.1C22.7 55.3 24.4 55.1 24.4 55.1C24.8 57.9 26.1 57.5 26.1 57.5C26.3 56.2 27.8 56.4 27.8 56.4C27.5 56.7 27.2 57.6 27.2 57.6C30.6 58.5 33.6 56.4 33.6 56.4L33.5 58.6C33.5 57.4 35.9 57.6 35.9 57.6C37.6 59 40.7 58.3 40.7 58.3C39.3 57.6 40.6 55.9 40.6 55.9C44.8 58.3 48.1 55.6 48.1 55.6C46.7 55.6 45.2 54.4 45.2 54.4L52.4 54.7L48.7 52.5C51.1 53.5 54.6 51.5 54.6 51.5L52 50.3C53.3 49.3 56.2 50.6 56.2 50.6C56.3 48.4 54.4 46 54.4 46C56.6 46.4 58.3 48.1 58.3 48.1C59.2 42.8 56.3 41.5 56.3 41.5Z" fill="#74625C"/>
<path id="Vector_3" d="M46.2999 28.8C47.7999 25.1 42.2999 19.6 34.1999 21.4C26.0999 19.6 20.2999 25.2 21.7999 28.8C22.2999 29.9 19.3999 36.5 22.9999 40.4C23.7999 41.3 26.9999 50.4 26.9999 50.4C27.0999 50.6 30.5999 51.3 33.8999 51.4H34.2999C37.5999 51.3 41.0999 50.6 41.1999 50.4C41.1999 50.4 44.3999 41.3 45.1999 40.4C48.7999 36.4 45.8999 29.9 46.2999 28.8Z" fill="#AC9994"/>
<path id="Vector_4" d="M34.3 21.3C26.2 19.5 20.4 25.1 21.9 28.7C22.4 29.8 19.5 36.4 23.1 40.3C23.9 41.2 27.1 50.3 27.1 50.3C27.2 50.5 30.7 51.2 34 51.3H34.4L34.3 21.3Z" fill="#9F8C87"/>
<path id="Vector_5" d="M36 51L34.2001 49.8L32.5 51L27.3 50.3C27.8 51.1 30.2001 53.7 30.2001 53.7C32.0001 55.8 36.7 55.7 38.6 53.7C38.6 53.7 41 51.1 41.5 50.3L36 51Z" fill="#AC9994"/>
<path id="Vector_6" d="M39.5999 39.9C37.2999 37.9 37.2999 33.5 34.9999 32.4C34.7999 32.3 33.9999 32.3 33.7999 32.4C31.4999 33.5 31.4999 38 29.0999 39.9C24.9999 43.4 23.5999 47.4 26.7999 50.5C28.1999 51.9 32.8999 52.2 32.8999 52.2L34.1999 50.7H34.4999L35.7999 52.2C35.7999 52.2 40.4999 51.8 41.8999 50.5C45.0999 47.4 43.6999 43.4 39.5999 39.9Z" fill="#74625C"/>
<path id="Vector_7" d="M39.1999 40.7C36.9999 38.9 37.0999 33 34.8999 32C34.6999 31.9 33.9999 31.9 33.7999 32C31.6999 33 31.5999 38.9 29.4999 40.7C25.6999 43.9 24.3999 47.6 27.3999 50.5C28.6999 51.8 33.0999 52.1 33.0999 52.1L34.2999 50.7H34.5999L35.7999 52.1C35.7999 52.1 40.1999 51.8 41.4999 50.5C44.1999 47.6 42.9999 43.9 39.1999 40.7Z" fill="#AC9994"/>
<path id="Vector_8" d="M34.2999 31.9C34.0999 31.9 33.8999 31.9 33.7999 32C31.6999 33 31.5999 38.9 29.4999 40.7C25.6999 43.9 24.3999 47.6 27.3999 50.5C28.6999 51.8 33.0999 52.1 33.0999 52.1L34.2999 50.7H34.4999C34.3999 50.7 34.2999 31.9 34.2999 31.9Z" fill="#9F8C87"/>
<path id="Vector_9" d="M39.2001 45.3C36.9001 44.1 34.4 43.8 34.3 43.8C34.2 43.8 31.8 44.1 29.4 45.3C29.3 45.3 29.3 45.4 29.3 45.5C29.3 45.6 29.3 45.7 29.4 45.7L34.2001 48.5H34.4001L39.2001 45.7C39.3001 45.7 39.3 45.6 39.3 45.5C39.4 45.4 39.3001 45.3 39.2001 45.3Z" fill="#7C6A65"/>
<path id="Vector_10" d="M39.4 51.6C39.3 51.5 39.2 51.4 39.1 51.5C37.5 52.2 36.2 52.3 35.5 51.8C34.9 51.4 34.7 50.5 34.6 50V48.4C34.6 48.3 34.5 48.2 34.4 48.2C34.3 48.2 34.1 48.3 34.1 48.4V50C34.1 50.5 33.9 51.3 33.3 51.8C32.5 52.3 31.3 52.3 29.6 51.5C29.5 51.4 29.3 51.5 29.3 51.6C29.2 51.7 29.3 51.9 29.4 51.9C30.4 52.3 31.3 52.6 32 52.6C32.6 52.6 33.1 52.5 33.5 52.2C33.9 51.9 34.1 51.5 34.3 51.1C34.5 51.5 34.7 51.9 35.1 52.2C35.5 52.5 36 52.6 36.6 52.6C37.3 52.6 38.2 52.4 39.2 51.9C39.4 51.8 39.4 51.7 39.4 51.6ZM24.5 29.4C26.3 36 31.6 30.7 31.6 30.7C28.6 31.5 24.5 29.4 24.5 29.4ZM36.9 30.7C36.9 30.7 42.3 36 44 29.4C44.1 29.4 40 31.5 36.9 30.7Z" fill="#7C6A65"/>
<path id="Vector_11" d="M33.4 29.3C33.3 29 33 28.8 33 28.8C33 28.8 31.9 29.6 31.1 29.6C29.6 29.6 27.6 29 26.3 28.8C25 28.6 24 28.8 24 28.8C24 28.8 26 31.9 31.7 31C32.5 30.9 32.8 30.4 33.2 30C33.1 30 33.4 29.6 33.4 29.3ZM42.3 28.8C41 29 38.9 29.6 37.5 29.6C36.7 29.6 35.6 28.8 35.6 28.8C35.6 28.8 35.3 29 35.2 29.3C35.1 29.6 35.4 30 35.4 30C35.7 30.4 36.1 30.9 36.9 31C42.6 31.9 44.6 28.8 44.6 28.8C44.6 28.8 43.6 28.5 42.3 28.8Z" fill="#74625C"/>
<path id="Vector_12" d="M21.8001 22.9C19.1001 20.9 15.7001 21 14.2001 23.1C12.6001 25.2 13.5001 28.5 16.2001 30.5C18.8001 32.5 24.5001 24.9 21.8001 22.9Z" fill="#AC9994"/>
<path id="Vector_13" d="M23 26.1C20.9 23.8 18 22.7 16.6 23.5C15.1 24.3 15.6 26.8 17.7 29.1C19.8 31.4 25 28.4 23 26.1Z" fill="#9F8C87"/>
<path id="Vector_14" d="M54.2999 23.1C52.6999 21 49.2999 20.9 46.6999 22.9C43.9999 24.9 49.6999 32.4 52.3999 30.5C54.9999 28.5 55.8999 25.2 54.2999 23.1Z" fill="#AC9994"/>
<path id="Vector_15" d="M52.9 24.1C52.1 22.6 49.6 23.1 47.3 25.2C45 27.3 48 32.7 50.3 30.6C52.5 28.4 53.7 25.6 52.9 24.1Z" fill="#9F8C87"/>
<path id="Vector_16" d="M49.5001 27C48.8001 26.7 47.5001 24.5 47.5001 24.5L50.7001 24.1C49.1001 22.1 42.9001 22.1 42.9001 22.1C44.6001 24.3 46.8001 31.8 46.8001 31.8C47.7001 32.3 48.2001 33 48.2001 33C49.0001 31.9 48.1001 29.4 48.1001 29.4L49.4001 28.6L48.0001 27.5C48.0001 27.5 50.2001 27.3 49.5001 27ZM38.7001 19.2L29.2001 19.8L30.1001 22.2L32.2001 23.4L32.7001 22.1C32.7001 22.1 34.1001 23.1 34.1001 23.6L35.3001 20.9L36.3001 22.4L37.2001 21.4L37.6001 23.1L39.1001 21.8L38.7001 19.2ZM24.4001 23C22.4001 22.3 17.3001 24.2 17.3001 24.2L18.8001 25.8C17.5001 25.9 15.6001 28.9 15.6001 28.9C15.8001 29.8 19.0001 29.5 19.0001 29.5L17.5001 30.5C18.2001 31.7 21.1001 31.5 21.1001 31.5L23.2001 27.9L24.8001 25.4L24.4001 23Z" fill="#74625C"/>
<path id="Vector_17" d="M40.9001 46.6C41.2314 46.6 41.5 46.4657 41.5 46.3C41.5 46.1343 41.2314 46 40.9001 46C40.5687 46 40.3 46.1343 40.3 46.3C40.3 46.4657 40.5687 46.6 40.9001 46.6Z" fill="#74625C"/>
<path id="Vector_18" d="M38.9999 48.5C39.3313 48.5 39.5999 48.3657 39.5999 48.2C39.5999 48.0343 39.3313 47.9 38.9999 47.9C38.6685 47.9 38.3999 48.0343 38.3999 48.2C38.3999 48.3657 38.6685 48.5 38.9999 48.5Z" fill="#74625C"/>
<path id="Vector_19" d="M41.2999 49.5C41.6313 49.5 41.9 49.3657 41.9 49.2C41.9 49.0343 41.6313 48.9 41.2999 48.9C40.9686 48.9 40.7 49.0343 40.7 49.2C40.7 49.3657 40.9686 49.5 41.2999 49.5Z" fill="#74625C"/>
<path id="Vector_20" d="M27.7999 46.6C28.1313 46.6 28.4 46.4657 28.4 46.3C28.4 46.1343 28.1313 46 27.7999 46C27.4686 46 27.2 46.1343 27.2 46.3C27.2 46.4657 27.4686 46.6 27.7999 46.6Z" fill="#74625C"/>
<path id="Vector_21" d="M29.7001 48.5C30.0315 48.5 30.3001 48.3657 30.3001 48.2C30.3001 48.0343 30.0315 47.9 29.7001 47.9C29.3687 47.9 29.1001 48.0343 29.1001 48.2C29.1001 48.3657 29.3687 48.5 29.7001 48.5Z" fill="#74625C"/>
<path id="Vector_22" d="M27.4 49.5C27.7314 49.5 28 49.3657 28 49.2C28 49.0343 27.7314 48.9 27.4 48.9C27.0687 48.9 26.8 49.0343 26.8 49.2C26.8 49.3657 27.0687 49.5 27.4 49.5Z" fill="#74625C"/>
</g>
<defs>
<clipPath id="clip0_4_110">
<rect width="70" height="70" fill="white"/>
</clipPath>
</defs>
</svg>
