<svg width="86" height="86" viewBox="0 0 86 86" fill="none" xmlns="http://www.w3.org/2000/svg">
<g id="leo 2">
<path id="Vector" d="M43.0001 9.55556C24.5579 9.55556 9.55566 24.5578 9.55566 43C9.55566 61.4422 24.5579 76.4444 43.0001 76.4444C61.4423 76.4444 76.4445 61.4422 76.4445 43C76.4445 24.5578 61.4423 9.55556 43.0001 9.55556Z" fill="#D5CAE9"/>
<path id="Vector_2" d="M77.3045 29.3356C76.3489 26.9467 74.82 24.8444 73.2911 22.8378C73.7689 23.22 74.3423 23.6022 74.82 23.9844C75.3934 24.4622 76.6356 23.9844 76.2534 23.1244C73.2911 15.8622 64.8823 6.97555 56.2823 7.45333C56.3778 6.97555 55.9956 6.30667 55.4223 6.30667C52.46 6.21111 50.0711 7.26222 47.7778 8.79111C48.2556 7.93111 48.8289 7.16667 49.4023 6.30667C49.7845 5.82889 49.2111 5.35111 48.7334 5.44667V5.25555H48.6378V5.44667H48.5423C46.5356 6.49778 44.8156 7.93111 43.3823 9.55555C41.9489 7.83555 40.3245 6.40222 38.2223 5.44667H38.1267V5.25555H38.0311V5.44667C37.5534 5.35111 36.98 5.82889 37.3623 6.30667C37.9356 7.16667 38.5089 7.93111 38.9867 8.79111C36.6934 7.26222 34.3045 6.21111 31.3423 6.30667C30.6734 6.30667 30.3867 6.97555 30.4823 7.45333C21.8823 6.97555 13.4734 15.7667 10.5111 23.1244C10.1289 23.9844 11.3711 24.4622 11.9445 23.9844C12.4223 23.5067 12.9 23.1244 13.4734 22.8378C12.04 24.8444 10.5111 26.9467 9.55559 29.3356C7.64447 34.0178 7.07114 39.2733 6.97559 44.3378C6.97559 45.1022 8.12225 45.4844 8.50447 44.72C9.65114 42.14 10.9889 38.8911 13.2823 36.8844C9.84225 44.9111 11.6578 53.5111 16.4356 60.8689C16.8178 61.5378 18.1556 61.3467 18.06 60.4867C17.9645 59.5311 17.8689 58.5756 17.8689 57.62C18.4423 59.6267 19.2067 61.5378 20.5445 63.1622C23.7934 67.1756 27.6156 69.66 29.9089 74.5333C30.2911 75.2978 31.4378 74.9156 31.4378 74.1511C31.4378 71.4756 31.5334 68.7044 31.4378 66.0289C32.8711 68.2267 35.1645 71.4756 35.26 71.5711C35.6423 72.1444 36.4067 72.1444 36.8845 71.8578C37.7445 73.6733 38.4134 75.5844 39.4645 77.3044C40.0378 78.3556 41.3756 77.5911 41.1845 76.54C40.9934 75.3933 40.0378 72.1444 40.42 70.4244C40.8978 73.6733 41.5667 76.9222 42.3311 80.0756V80.84C42.3311 81.5089 42.9045 81.7956 43.3823 81.7C43.86 81.7956 44.4334 81.4133 44.4334 80.84V80.0756C45.2934 76.9222 45.8667 73.6733 46.3445 70.4244C46.7267 72.24 45.7711 75.4889 45.58 76.54C45.4845 77.5911 46.7267 78.26 47.3 77.3044C48.3511 75.5844 49.02 73.6733 49.88 71.8578C50.3578 72.1444 51.1223 72.1444 51.5045 71.5711C51.6 71.4756 53.8934 68.1311 55.3267 66.0289C55.2311 68.7044 55.2311 71.4756 55.3267 74.1511C55.3267 74.9156 56.4734 75.3933 56.8556 74.5333C59.1489 69.66 62.9711 67.1756 66.22 63.1622C67.5578 61.5378 68.3222 59.6267 68.8956 57.62C68.8956 58.5756 68.8956 59.5311 68.7045 60.4867C68.6089 61.3467 69.8511 61.5378 70.3289 60.8689C75.2022 53.5111 77.0178 44.9111 73.4823 36.8844C75.7756 38.8911 77.1134 42.14 78.26 44.72C78.5467 45.4844 79.7889 45.1022 79.7889 44.3378C79.7889 39.2733 79.2156 34.0178 77.3045 29.3356Z" fill="#FDC11C"/>
<path id="Vector_3" d="M66.3156 24.6533C65.0734 23.6978 63.5445 22.1689 61.1556 21.4044C62.589 21.1178 64.1179 21.1178 65.8379 21.6911C66.6979 21.9778 67.2712 21.0222 66.889 20.3533C65.2645 17.4867 61.729 16.0533 58.3845 16.2444C56.6645 16.34 54.2756 16.5311 52.7468 17.5822C52.7468 17.3911 52.8423 17.2 52.8423 17.0089C53.2245 15.48 54.0845 14.0467 55.6134 13.3778C56.3779 12.9956 55.9956 11.7533 55.1356 11.7533C52.8423 11.9444 50.9312 12.8044 49.2112 14.2378C48.2556 15.0022 47.3956 16.1489 46.7268 17.3911C46.9179 15.6711 47.2045 13.9511 47.8734 12.2311C48.0645 11.6578 47.3001 11.0844 46.7268 11.3711C45.1979 12.2311 44.4334 13.76 43.8601 15.2889C43.7645 15.5756 43.5734 16.0533 43.3823 16.5311C43.1912 16.0533 43.0001 15.6711 42.9045 15.2889C42.2356 13.8556 41.5668 12.2311 40.0379 11.3711C39.4645 11.0844 38.7001 11.5622 38.8912 12.2311C39.5601 13.9511 39.8468 15.6711 40.0379 17.3911C39.369 16.1489 38.4134 15.0022 37.5534 14.2378C35.8334 12.8044 34.0179 11.8489 31.629 11.7533C30.769 11.6578 30.3868 12.9956 31.1512 13.3778C32.6801 14.0467 33.5401 15.48 33.9223 17.0089C33.9223 17.2 34.0179 17.3911 34.0179 17.5822C32.489 16.5311 30.1956 16.34 28.3801 16.2444C25.0356 16.0533 21.5001 17.4867 19.8756 20.3533C19.4934 21.0222 20.1623 21.9778 20.9268 21.6911C22.6468 21.1178 24.1756 21.1178 25.609 21.4044C23.2201 22.1689 21.6912 23.6978 20.449 24.6533C16.2445 27.9978 15.289 34.4956 16.4356 39.4644C16.6268 40.3244 18.0601 40.3244 18.2512 39.4644C18.9201 36.5022 19.7801 33.8267 22.5512 32.3933C22.7423 32.2978 22.9334 32.2022 23.1245 32.2022C17.1045 38.7 18.0601 47.2044 18.3468 55.5178C18.3468 56.3778 19.6845 56.76 20.0668 55.9956C21.1179 53.9889 22.9334 52.0778 24.749 50.2622C23.6979 53.9889 23.7934 58.48 23.6979 61.1556C23.6979 61.6333 24.1756 62.0156 24.6534 62.1111C26.469 62.2067 28.6668 58.2889 29.8134 57.1422L29.909 57.0467C28.189 60.6778 27.9023 63.5444 28.3801 67.2711C28.4756 67.94 29.3356 68.5133 30.0045 67.94C31.9156 65.8378 33.6356 65.36 35.6423 63.3533C34.4956 66.6022 35.2601 67.8444 36.1201 70.9978C36.3112 71.7622 37.7445 71.8578 37.8401 70.9978C38.3179 68.1311 39.0823 67.94 40.0379 65.2645C40.0379 65.1689 40.1334 65.0733 40.1334 64.9778C40.4201 65.6467 40.6112 66.3156 40.8023 66.9844C41.8534 70.4244 42.0445 69.4689 43.0956 72.8133C43.0956 72.9089 43.2868 73.0044 43.3823 73.0044C43.4779 73.0044 43.669 73.0044 43.669 72.8133C44.7201 69.4689 44.9112 70.3289 45.9623 66.9844C46.1534 66.3156 46.4401 65.6467 46.6312 64.9778C46.6312 65.0733 46.7268 65.1689 46.7268 65.2645C47.7779 67.94 48.4468 68.1311 48.9245 70.9978C49.1156 71.8578 50.4534 71.7622 50.6445 70.9978C51.409 67.8444 52.269 66.6022 51.1223 63.3533C53.129 65.36 54.849 65.8378 56.7601 67.94C57.3334 68.6089 58.289 68.0356 58.3845 67.2711C58.8623 63.5444 58.5756 60.7733 56.8556 57.0467L56.9512 57.1422C58.0979 58.2889 60.2956 62.2067 62.1112 62.1111C62.589 62.1111 63.0668 61.7289 63.0668 61.1556C62.9712 58.48 63.0668 53.8933 62.0156 50.2622C63.8312 51.9822 65.6468 53.9889 66.6979 55.9956C67.0801 56.8556 68.4179 56.3778 68.4179 55.5178C68.609 47.2044 69.5645 38.6044 63.5445 32.2022C63.7356 32.2978 63.9268 32.2978 64.1179 32.3933C66.889 33.7311 67.749 36.5022 68.4179 39.4644C68.609 40.3244 70.0423 40.3244 70.2334 39.4644C71.4756 34.4956 70.5201 27.9978 66.3156 24.6533Z" fill="#FDDD85"/>
<path id="Vector_4" d="M43.4778 69.0867C43.1912 68.5133 42.9045 67.94 42.5223 66.5067C42.3312 65.8378 42.0445 65.1689 41.8534 64.4045C41.6623 63.7356 40.9934 63.2578 40.2289 63.2578C39.5601 63.2578 38.8912 63.64 38.6045 64.3089C38.5089 64.4045 38.5089 64.5 38.5089 64.5956C38.1267 65.5511 37.8401 66.1245 37.5534 66.6978C37.3623 66.9845 37.2667 67.3667 37.0756 67.6533C36.7889 66.4111 36.7889 65.4556 37.3623 63.8311C37.6489 63.0667 37.3623 62.3022 36.5978 61.8244C36.3112 61.6333 36.0245 61.5378 35.7378 61.5378C35.2601 61.5378 34.7823 61.7289 34.4956 62.0156C33.6356 62.8756 32.8712 63.4489 32.0112 64.0222C31.4378 64.4044 30.7689 64.8822 30.1001 65.4556C29.9089 62.5889 30.3867 60.2956 31.6289 57.62C32.0112 56.8556 31.7245 55.9956 31.0556 55.6133C30.7689 55.4222 30.3867 55.3267 30.1001 55.3267C29.6223 55.3267 29.2401 55.5178 28.8578 55.8045C28.3801 56.2822 27.9023 56.8556 27.3289 57.62C26.9467 58.0978 26.2778 59.0533 25.6089 59.7222C25.7045 57.0467 25.8001 53.5111 26.5645 50.6445C26.7556 49.88 26.4689 49.1156 25.8001 48.7333C25.5134 48.5422 25.2267 48.5422 24.9401 48.5422C24.4623 48.5422 24.0801 48.7333 23.6978 49.02C22.5512 50.1667 21.3089 51.4089 20.2578 52.8422C19.9712 45.4844 19.7801 38.5089 24.7489 33.2533C25.3223 32.68 25.3223 31.82 24.8445 31.1511C24.5578 30.6733 23.9845 30.4822 23.4112 30.4822C23.2201 30.4822 22.9334 30.4822 22.7423 30.5778H22.6467C22.4556 30.6733 22.2645 30.6733 22.0734 30.7689C19.9712 31.82 18.7289 33.4445 18.0601 35.1644C18.0601 31.6289 19.1112 27.9022 21.8823 25.8C22.0734 25.6089 22.3601 25.4178 22.5512 25.2267C23.6023 24.3667 24.8445 23.3156 26.4689 22.8378C27.2334 22.6467 27.7112 21.8822 27.6156 21.1178C27.5201 20.3533 26.9467 19.6844 26.1823 19.5889C25.4178 19.4933 24.6534 19.3978 23.9845 19.3978C23.6023 19.3978 23.2201 19.3978 22.8378 19.4933C24.3667 18.2511 26.3734 17.6778 28.0934 17.6778H28.4756C29.4312 17.6778 31.9156 17.8689 33.1578 18.7289C33.4445 18.92 33.8267 19.0156 34.2089 19.0156C34.4956 19.0156 34.8778 18.92 35.0689 18.7289C35.6423 18.3467 36.0245 17.7733 35.9289 17.1044C35.9289 16.8178 35.8334 16.6267 35.8334 16.4356C35.6423 15.5756 35.2601 14.8111 34.8778 14.1422C35.4512 14.4289 36.0245 14.8111 36.5023 15.2889C37.3623 15.9578 38.1267 17.0089 38.6045 17.9644C38.8912 18.5378 39.4645 18.92 40.1334 18.92C40.3245 18.92 40.4201 18.92 40.6112 18.8245C41.3756 18.6333 41.9489 17.8689 41.8534 17.1044V16.8178C41.8534 16.9133 41.8534 16.9133 41.9489 17.0089C42.2356 17.6778 42.8089 18.06 43.5734 18.06C44.2423 18.06 44.9112 17.6778 45.1978 17.0089C45.1978 16.9133 45.1978 16.9133 45.2934 16.8178V17.1044C45.1978 17.8689 45.7712 18.6333 46.5356 18.8245C46.7267 18.8245 46.8223 18.92 47.0134 18.92C47.6823 18.92 48.2556 18.5378 48.5423 17.9644C49.0201 17.0089 49.8801 15.9578 50.6445 15.2889C51.2178 14.8111 51.6956 14.4289 52.269 14.1422C51.8867 14.8111 51.5045 15.5756 51.3134 16.4356C51.2178 16.6267 51.2178 16.9133 51.2178 17.2C51.1223 17.8689 51.4089 18.5378 52.0778 18.8245C52.3645 19.0156 52.6512 19.1111 52.9378 19.1111C53.3201 19.1111 53.6067 19.0156 53.9889 18.8245C55.2312 17.9644 57.7156 17.8689 58.6712 17.7733H59.0534C60.7734 17.7733 62.7801 18.2511 64.3089 19.5889C63.9267 19.5889 63.5445 19.4933 63.1623 19.4933C62.4934 19.4933 61.729 19.5889 60.9645 19.6844C60.2001 19.78 59.6267 20.4489 59.5312 21.2133C59.4356 21.9778 60.0089 22.6467 60.6778 22.9333C62.3023 23.4111 63.5445 24.4622 64.5956 25.3222C64.8823 25.5133 65.0734 25.7044 65.2645 25.8956C68.0356 28.0933 69.0867 31.82 69.0867 35.26C68.3223 33.54 67.1756 31.9156 65.0734 30.8644C64.8823 30.7689 64.6912 30.6733 64.5001 30.6733H64.4045C64.2134 30.5778 63.9267 30.5778 63.7356 30.5778C63.1623 30.5778 62.6845 30.8645 62.3023 31.2467C61.8245 31.9156 61.9201 32.7756 62.3978 33.3489C67.3667 38.6045 67.0801 45.58 66.8889 52.9378C65.8378 51.6 64.5956 50.2622 63.4489 49.1156C63.1623 48.8289 62.6845 48.6378 62.2067 48.6378C61.9201 48.6378 61.6334 48.7333 61.3467 48.8289C60.6778 49.2111 60.2956 49.9756 60.5823 50.74C61.4423 53.6067 61.5378 57.1422 61.5378 59.8178C60.9645 59.1489 60.2001 58.2889 59.8178 57.7156C59.2445 57.0467 58.8623 56.3778 58.3845 55.9956C58.0023 55.7089 57.6201 55.5178 57.1423 55.5178C56.8556 55.5178 56.4734 55.6133 56.1867 55.8045C55.5178 56.2822 55.2312 57.1422 55.5178 57.8111C56.7601 60.4867 57.2378 62.78 57.0467 65.6467C56.3778 65.0733 55.8045 64.6911 55.1356 64.2133C54.2756 63.64 53.5112 63.0667 52.6512 62.2067C52.2689 61.8244 51.8867 61.7289 51.409 61.7289C51.1223 61.7289 50.8356 61.8245 50.5489 62.0156C49.8801 62.3978 49.5934 63.2578 49.7845 64.0222C50.3578 65.6467 50.3578 66.6022 50.0712 67.8445C49.8801 67.4622 49.7845 67.1756 49.5934 66.8889C49.3067 66.3156 49.0201 65.7422 48.6378 64.7867C48.6378 64.6911 48.5423 64.5956 48.5423 64.5956C48.2556 63.9267 47.5867 63.4489 46.9178 63.4489C46.1534 63.4489 45.5801 63.8311 45.2934 64.5C45.0067 65.1689 44.8156 65.9333 44.6245 66.6022C43.9556 67.94 43.6689 68.5133 43.4778 69.0867Z" fill="#FDC11C"/>
<path id="Vector_5" d="M60.7733 27.1378C60.6778 26.8511 49.1155 20.64 43.4778 21.0222H43.2866C37.6489 20.64 26.0866 26.7556 25.9911 27.1378C25.2266 30.0044 26.5644 32.1067 28.8578 33.8267C30.1 34.7822 31.6289 35.7378 33.2533 36.12C34.8778 36.4067 36.4067 35.7378 36.2155 38.2222C36.0244 42.14 32.8711 46.5356 32.7755 50.5489C32.68 54.2756 33.2533 60.5822 41.9489 59.0533C42.4267 58.9578 42.9044 58.7667 43.2866 58.48C43.6689 58.7667 44.1467 58.9578 44.6244 59.0533C53.32 60.5822 53.8933 54.2756 53.7978 50.5489C53.7022 46.5356 50.5489 42.14 50.3578 38.2222C50.2622 35.7378 51.6955 36.4067 53.32 36.12C54.9444 35.8333 56.4733 34.7822 57.7155 33.8267C60.2 32.1067 61.5378 30.0044 60.7733 27.1378Z" fill="#FF6A38"/>
<path id="Vector_6" d="M52.9377 29.3356C49.7844 28.1889 48.2555 24.3667 49.5932 20.8311C50.931 17.2956 54.6577 15.3844 57.811 16.6267C60.9644 17.7733 62.4932 21.5956 61.1555 25.1311C59.8177 28.6667 56.091 30.5778 52.9377 29.3356Z" fill="#C43100"/>
<path id="Vector_7" d="M48.6379 24.7489C49.0201 23.0289 50.9312 21.2133 52.1734 20.0667C53.7023 18.7289 55.709 17.8689 57.7157 18.1556C58.3845 18.2511 58.6712 19.0156 58.5757 19.5889C58.5757 19.6844 58.5757 19.8756 58.4801 19.9711C58.289 21.3089 56.569 21.1178 56.1868 20.0667C54.849 19.78 53.3201 20.8311 52.269 21.5C50.8357 22.4556 50.0712 23.6978 49.0201 24.8444C48.829 25.1311 48.5423 24.94 48.6379 24.7489Z" fill="#A82A00"/>
<path id="Vector_8" d="M33.9221 29.3356C37.0754 28.1889 38.6043 24.3667 37.2666 20.8311C35.9288 17.2956 32.2021 15.3844 29.0488 16.6267C25.8954 17.7733 24.3666 21.5956 25.7043 25.1311C27.0421 28.6667 30.7688 30.5778 33.9221 29.3356Z" fill="#C43100"/>
<path id="Vector_9" d="M38.2223 24.7489C37.8401 23.0289 35.929 21.2133 34.6867 20.0667C33.1579 18.7289 31.1512 17.8689 29.1445 18.1556C28.4756 18.2511 28.189 19.0156 28.2845 19.5889C28.2845 19.6844 28.2845 19.8756 28.3801 19.9711C28.5712 21.3089 30.2912 21.1178 30.6734 20.0667C32.0112 19.78 33.5401 20.8311 34.5912 21.5C36.0245 22.4556 36.789 23.6978 37.8401 24.8444C38.0312 25.1311 38.3179 24.94 38.2223 24.7489Z" fill="#A82A00"/>
<path id="Vector_10" d="M57.9067 27.6156C54.5623 24.8444 44.0512 21.5 43.5734 21.5C43.0956 21.5 32.5845 24.8444 29.2401 27.6156C26.2779 30.1 27.8067 33.9222 28.0934 37.0756C28.2845 38.9867 28.189 41.0889 29.049 42.8089C30.1956 45.0067 31.5334 48.5422 32.2979 50.8356C33.0623 52.9378 34.0179 54.4667 35.3556 56.1867C35.7379 56.6644 36.0245 57.2378 36.4067 57.5244C37.2667 60.2 37.3623 62.4933 40.229 62.78H46.7268C49.5934 62.4933 49.689 60.2 50.549 57.5244C50.9312 57.1422 51.3134 56.6644 51.6001 56.1867C52.9379 54.4667 53.8934 52.8422 54.6579 50.8356C55.5179 48.4467 56.7601 44.9111 57.9067 42.8089C58.8623 41.0889 58.6712 38.9867 58.8623 37.0756C59.3401 33.9222 60.869 30.1 57.9067 27.6156Z" fill="#C43100"/>
<path id="Vector_11" d="M35.8333 35.3556C35.0688 33.2533 33.3488 32.0111 32.011 32.4889C30.6733 32.9667 30.1955 35.0689 30.8644 37.1711C31.6288 39.2733 33.3488 40.5156 34.6866 40.0378C36.1199 39.4644 36.5977 37.4578 35.8333 35.3556Z" fill="#471302"/>
<path id="Vector_12" d="M32.3932 37.0756C32.2021 36.6933 31.8199 36.5022 31.6288 36.5978C31.4377 36.6933 31.4377 37.0756 31.7244 37.4578C31.9155 37.84 32.2977 38.0311 32.4888 37.9356C32.6799 37.84 32.6799 37.4578 32.3932 37.0756ZM33.2532 38.4133C33.1577 38.3178 33.0621 38.2222 32.871 38.3178C32.7755 38.4133 32.6799 38.5089 32.7755 38.7C32.871 38.7956 32.9666 38.8911 33.1577 38.7956C33.2532 38.7 33.2532 38.5089 33.2532 38.4133Z" fill="#FDDD85"/>
<path id="Vector_13" d="M56.0912 37.1711C56.8556 35.0689 56.3779 33.0622 55.0401 32.4889C53.7023 32.0111 51.9823 33.2533 51.2179 35.3556C50.4534 37.4578 50.9312 39.4644 52.269 40.0378C53.6067 40.5156 55.3267 39.1778 56.0912 37.1711Z" fill="#471302"/>
<path id="Vector_14" d="M52.0778 37.4578C51.9823 37.0755 51.6956 36.7889 51.5045 36.7889C51.3134 36.8844 51.2178 37.2667 51.3134 37.6489C51.4089 38.0311 51.6956 38.3178 51.8867 38.3178C52.0778 38.2222 52.1734 37.84 52.0778 37.4578ZM52.46 38.9867C52.46 38.8911 52.2689 38.7955 52.0778 38.7955C51.8867 38.7955 51.8867 38.9867 51.8867 39.0822C51.8867 39.1778 52.0778 39.2733 52.2689 39.2733C52.46 39.2733 52.5556 39.0822 52.46 38.9867Z" fill="#FDDD85"/>
<path id="Vector_15" d="M60.7733 27.1378C60.6778 26.8511 49.1155 20.64 43.4778 21.0222H43.2866C37.6489 20.64 26.0866 26.7556 25.9911 27.1378C25.2266 30.0044 26.5644 32.1067 28.8578 33.8267C30.1 34.7822 31.6289 35.7378 33.2533 36.12C34.8778 36.4067 36.4067 35.7378 36.2155 38.2222C36.0244 42.14 32.8711 46.5356 32.7755 50.5489C32.68 54.2756 33.2533 60.5822 41.9489 59.0533C42.4267 58.9578 42.9044 58.7667 43.2866 58.48C43.6689 58.7667 44.1467 58.9578 44.6244 59.0533C53.32 60.5822 53.8933 54.2756 53.7978 50.5489C53.7022 46.5356 50.5489 42.14 50.3578 38.2222C50.2622 35.7378 51.6955 36.4067 53.32 36.12C54.9444 35.8333 56.4733 34.7822 57.7155 33.8267C60.2 32.1067 61.5378 30.0044 60.7733 27.1378Z" fill="#FF6A38"/>
<path id="Vector_16" d="M36.98 46.3444C36.98 52.46 36.98 51.6956 43.5733 51.6956C50.1666 51.6956 50.1666 52.46 50.1666 46.3444C50.1666 40.2289 47.2044 29.8133 43.5733 29.8133C39.8466 29.8133 36.98 40.2289 36.98 46.3444Z" fill="#FF8961"/>
<path id="Vector_17" d="M43.4779 58.5756C44.1467 59.34 45.7712 60.1044 46.7267 60.0089C47.7779 59.9133 49.0201 59.1489 50.2623 58.2889C50.3578 58.0022 50.4534 57.8111 50.549 57.5244C49.689 58.0978 48.829 58.5756 48.0645 58.7667C46.3445 59.0533 44.7201 58.7667 43.8601 57.3333C44.1467 57.1422 44.2423 56.4733 44.3379 56.2822C44.6245 55.4222 46.5356 53.32 46.7267 53.2244C47.3956 52.7467 47.969 51.9822 48.4467 51.4089C48.6379 51.2178 48.3512 50.8356 48.1601 51.0267C47.4912 51.5044 46.9179 51.9822 46.1534 52.3644C45.389 52.6511 44.4334 52.5556 43.669 52.6511C43.5734 52.6511 43.4779 52.6511 43.4779 52.7467C43.3823 52.7467 43.3823 52.6511 43.2867 52.6511C42.5223 52.5556 41.5667 52.6511 40.8023 52.3644C40.0379 52.0778 39.4645 51.5044 38.7956 51.0267C38.6045 50.8356 38.3179 51.2178 38.509 51.4089C39.0823 52.0778 39.5601 52.7467 40.229 53.2244C40.4201 53.4156 42.3312 55.4222 42.6178 56.2822C42.7134 56.4733 42.809 57.1422 43.0956 57.3333C42.2356 58.7667 40.6112 59.0533 38.8912 58.7667C38.1267 58.6711 37.2667 58.0978 36.4067 57.5244C36.5023 57.8111 36.5979 58.0022 36.6934 58.2889C37.8401 59.1489 39.0823 59.9133 40.229 60.0089C41.1845 60.1044 42.9045 59.34 43.4779 58.5756Z" fill="#A82A00"/>
<path id="Vector_18" d="M39.1778 53.1289C39.2734 53.1289 40.7067 53.6067 40.8023 53.6067C41.7578 53.8933 45.1978 53.8933 46.1534 53.6067C46.2489 53.6067 47.6823 53.1289 47.7778 53.1289C48.7334 52.6511 49.4023 51.0267 50.0712 50.3578C50.2623 50.1667 49.9756 49.7844 49.6889 49.9755C48.8289 50.4533 38.0312 50.4533 37.1712 49.9755C36.8845 49.7844 36.5978 50.1667 36.7889 50.3578C37.6489 51.0267 38.3178 52.6511 39.1778 53.1289Z" fill="#471302"/>
<path id="Vector_19" d="M60.7732 27.1378C60.7732 27.0422 59.8177 26.4689 58.3843 25.8C57.811 25.8956 57.2377 25.9911 56.6643 26.1822C51.2177 27.6156 47.3954 30.96 48.0643 33.6356C48.4466 34.9733 49.7843 35.9289 51.6954 36.3111C52.2688 36.2156 52.9377 36.3111 53.6066 36.12C55.231 35.8333 56.7599 34.7822 58.0021 33.8267C60.1999 32.1067 61.5377 30.0044 60.7732 27.1378ZM26.0866 27.1378C25.3221 30.0044 26.6599 32.1067 28.9532 33.8267C30.1954 34.7822 31.7243 35.7378 33.3488 36.12C34.0177 36.2156 34.6866 36.2156 35.2599 36.3111C37.171 35.8333 38.5088 34.9733 38.891 33.6356C39.5599 30.96 35.7377 27.6156 30.291 26.1822C29.7177 25.9911 29.1443 25.8956 28.571 25.8C27.0421 26.4689 26.0866 27.0422 26.0866 27.1378Z" fill="#FF8961"/>
</g>
</svg>
