<svg width="86" height="86" viewBox="0 0 86 86" fill="none" xmlns="http://www.w3.org/2000/svg">
<g id="libra 2">
<path id="Vector" d="M43.0001 9.55556C24.5579 9.55556 9.55566 24.5578 9.55566 43C9.55566 61.4422 24.5579 76.4444 43.0001 76.4444C61.4423 76.4444 76.4445 61.4422 76.4445 43C76.4445 24.5578 61.4423 9.55556 43.0001 9.55556Z" fill="#D5CAE9"/>
<path id="Vector_2" d="M76.2534 20.4489C76.2534 20.4489 61.6334 16.9133 43.5734 16.9133C25.5134 16.9133 10.8934 20.4489 10.8934 20.4489C10.8934 20.4489 25.5134 23.9844 43.5734 23.9844C61.6334 23.9844 76.2534 20.4489 76.2534 20.4489ZM31.1512 50.1667C31.1512 46.9178 25.3223 44.2422 18.1556 44.2422C10.9889 44.2422 5.25562 46.9178 5.25562 50.1667C5.25562 53.4156 11.0845 58.6711 18.2512 58.6711C25.4178 58.6711 31.1512 53.4156 31.1512 50.1667Z" fill="#FDC11C"/>
<path id="Vector_3" d="M9.17338 54.4667C11.9445 56.76 15.48 57.4289 17.2 55.9C18.92 54.3711 17.9645 51.3133 15.2889 49.02C12.5178 46.7267 8.98227 46.0578 7.26227 47.5867C5.54227 49.02 6.40227 52.1733 9.17338 54.4667Z" fill="#FDDD85"/>
<path id="Vector_4" d="M29.7178 49.5933C29.7178 47.6822 24.5578 45.0067 18.1555 45.0067C11.6578 45.0067 6.30664 47.6822 6.30664 49.5933C6.30664 51.5044 11.5622 53.0333 17.9644 53.0333C24.5578 53.0333 29.7178 51.5044 29.7178 49.5933Z" fill="#FF6A38"/>
<path id="Vector_5" d="M29.7178 49.5933C29.7178 48.6378 28.5712 47.5867 26.5645 46.7267H25.8001C19.3023 46.7267 13.9512 49.4022 13.9512 51.3133C13.9512 51.9822 14.5245 52.5556 15.4801 53.0333C16.2445 53.1289 17.1045 53.1289 17.9645 53.1289C24.5578 53.0333 29.7178 51.5044 29.7178 49.5933Z" fill="#FF8961"/>
<path id="Vector_6" d="M81.7001 50.1667C81.7001 46.9178 75.8712 44.2422 68.7045 44.2422C61.5379 44.2422 55.709 46.9178 55.709 50.1667C55.709 53.4156 61.5379 58.6711 68.7045 58.6711C75.8712 58.6711 81.7001 53.4156 81.7001 50.1667Z" fill="#FDC11C"/>
<path id="Vector_7" d="M59.7222 54.4667C62.4933 56.76 66.0289 57.4289 67.7489 55.9C69.4689 54.3711 68.5133 51.3133 65.8378 49.02C63.0667 46.7267 59.5311 46.0578 57.8111 47.5867C56.0911 49.02 56.9511 52.1733 59.7222 54.4667Z" fill="#FDDD85"/>
<path id="Vector_8" d="M80.2666 49.5933C80.2666 47.6822 75.1066 45.0067 68.7044 45.0067C62.2066 45.0067 56.8555 47.6822 56.8555 49.5933C56.8555 51.5044 62.111 53.0333 68.5132 53.0333C75.011 53.0333 80.2666 51.5044 80.2666 49.5933Z" fill="#FF6A38"/>
<path id="Vector_9" d="M80.2667 49.5933C80.2667 48.6378 79.12 47.5867 77.1133 46.7267H76.3489C69.8511 46.7267 64.5 49.4022 64.5 51.3133C64.5 51.9822 65.0733 52.5556 66.0289 53.0333C66.7933 53.1289 67.6533 53.1289 68.5133 53.1289C75.0111 53.0333 80.2667 51.5044 80.2667 49.5933Z" fill="#FF8961"/>
<path id="Vector_10" d="M64.5957 71.1889C64.5957 67.2711 55.1357 64.0222 43.4779 64.0222C31.8201 64.0222 22.3601 67.2711 22.3601 71.1889C22.3601 75.1067 31.8201 78.3556 43.4779 78.3556C55.1357 78.3556 64.5957 75.1067 64.5957 71.1889Z" fill="#C43100"/>
<path id="Vector_11" d="M22.2644 71.0933C25.4177 73.5778 32.2022 75.2978 40.2288 75.2978C51.1222 75.2978 59.9133 72.0489 59.9133 68.1311C59.9133 67.5578 59.7222 66.9844 59.34 66.4111C55.4222 64.9778 49.7844 64.0222 43.4777 64.0222C31.82 64.0222 22.36 67.1756 22.2644 71.0933Z" fill="#FF6A38"/>
<path id="Vector_12" d="M48.5423 64.5956C48.5423 62.0156 46.3445 59.8178 43.669 59.8178C40.9934 59.8178 38.7957 61.92 38.7957 64.5956C38.7957 67.1756 40.9934 69.3733 43.669 69.3733C46.3445 69.3733 48.5423 67.1756 48.5423 64.5956Z" fill="#C43100"/>
<path id="Vector_13" d="M38.7 64.5956C38.7 65.2644 38.7955 65.8378 39.0822 66.4111C39.7511 66.7933 40.5155 67.08 41.3755 67.08C43.9555 67.08 46.0577 65.0733 46.0577 62.5889C46.0577 61.7289 45.7711 60.9644 45.3888 60.2956C44.8155 60.1044 44.2422 59.9133 43.5733 59.9133C40.8977 59.8178 38.7 61.92 38.7 64.5956Z" fill="#FF6A38"/>
<path id="Vector_14" d="M46.9179 42.3311C46.9179 21.2133 45.389 22.9333 43.5734 22.9333C41.7579 22.9333 40.229 21.2133 40.229 42.3311C40.229 63.4489 41.7579 61.7289 43.5734 61.7289C45.389 61.7289 46.9179 63.4489 46.9179 42.3311Z" fill="#C43100"/>
<path id="Vector_15" d="M45.7711 39.6556C45.7711 30.3867 45.4845 25.5133 45.0067 23.0289C44.6245 22.8378 44.1467 22.9333 43.6689 22.9333C41.8534 22.9333 40.3245 21.2133 40.3245 42.3311C40.3245 51.6 40.6111 56.3778 41.0889 58.9578C41.4711 59.1489 41.9489 59.0533 42.4267 59.0533C44.2422 59.0533 45.7711 60.7733 45.7711 39.6556Z" fill="#FF6A38"/>
<path id="Vector_16" d="M47.2044 20.3533C47.2044 18.4422 45.58 16.9133 43.6689 16.9133C41.7577 16.9133 40.1333 18.4422 40.1333 20.3533C40.1333 22.2644 41.7577 23.7933 43.6689 23.7933C45.58 23.7933 47.2044 22.2644 47.2044 20.3533Z" fill="#C43100"/>
<path id="Vector_17" d="M40.0378 20.3533C40.0378 20.8311 40.1334 21.2133 40.3245 21.6911C40.8023 21.9778 41.3756 22.1689 42.0445 22.1689C43.9556 22.1689 45.4845 20.64 45.4845 18.8244C45.4845 18.2511 45.2934 17.6778 45.0067 17.2C44.6245 17.0089 44.1467 16.9133 43.669 16.9133C41.6623 16.9133 40.0378 18.4422 40.0378 20.3533Z" fill="#FF6A38"/>
<path id="Vector_18" d="M32.6799 69.7556C34.3999 69.2778 35.6421 68.0356 35.5466 66.9844C35.451 65.8378 33.9221 65.36 32.2021 65.7422C30.4821 66.22 29.2399 67.4622 29.3355 68.5133C29.5266 69.66 30.9599 70.2333 32.6799 69.7556ZM42.1399 63.2578C41.8533 64.1178 41.1844 64.6911 40.611 64.5C40.0377 64.3089 39.8466 63.4489 40.1333 62.5889C40.4199 61.7289 41.0888 61.1556 41.6621 61.2511C42.2355 61.4422 42.4266 62.3022 42.1399 63.2578ZM43.2866 19.3022C42.9999 20.1622 42.331 20.7356 41.7577 20.5444C41.1844 20.3533 40.9933 19.4933 41.2799 18.6333C41.5666 17.7733 42.2355 17.2 42.8088 17.2956C43.3821 17.4867 43.5733 18.3467 43.2866 19.3022ZM41.0888 33.9222C41.0888 38.7956 41.471 42.6178 42.0444 42.6178C42.5221 42.6178 42.9999 38.7 42.9999 33.9222C42.9999 29.0489 42.6177 25.2267 42.0444 25.2267C41.5666 25.2267 41.0888 29.1444 41.0888 33.9222Z" fill="#FDDD85"/>
<path id="Vector_19" d="M45.7711 14.3333C45.7711 11.4667 43.3822 7.54889 43.3822 7.54889C43.3822 7.54889 41.0889 11.4667 41.0889 14.3333C41.0889 17.2 42.14 17.8689 43.4778 17.8689C44.72 17.8689 45.7711 17.2 45.7711 14.3333Z" fill="#FDC11C"/>
<path id="Vector_20" d="M43.3823 8.6C43.0001 9.17333 41.4712 11.9444 41.4712 14.0467C41.4712 16.34 42.3312 17.0089 43.3823 17.0089V8.6Z" fill="#FDDD85"/>
<path id="Vector_21" d="M5.82887 49.6889H5.54221C5.25554 49.5933 5.25554 49.2111 5.35109 49.02L18.1555 20.2578L30.96 49.02C31.0555 49.3067 30.96 49.5933 30.7689 49.6889C30.4822 49.7844 30.1955 49.6889 30.1 49.4978L18.1555 22.2644L6.21109 49.4022C6.11554 49.5933 6.01998 49.6889 5.82887 49.6889ZM56.2822 49.6889C56.1867 49.6889 56.0911 49.6889 56.0911 49.5933C55.8044 49.4978 55.8044 49.1156 55.9 48.9244L68.7044 20.1622L81.5089 48.9244C81.6044 49.2111 81.5089 49.4978 81.3178 49.5933C81.0311 49.6889 80.7444 49.5933 80.6489 49.4022L68.7044 22.2644L56.76 49.4022C56.6644 49.5933 56.4733 49.6889 56.2822 49.6889Z" fill="#C43100"/>
</g>
</svg>
