<svg width="70" height="70" viewBox="0 0 70 70" fill="none" xmlns="http://www.w3.org/2000/svg">
<g id="libra 1" clip-path="url(#clip0_4_321)">
<path id="Vector" d="M35 70C54.33 70 70 54.33 70 35C70 15.67 54.33 0 35 0C15.67 0 0 15.67 0 35C0 54.33 15.67 70 35 70Z" fill="#E5CFCA"/>
<path id="Vector_2" d="M34.2998 22.2H35.7998V50.8H34.2998V22.2Z" fill="#74625C"/>
<path id="Vector_3" d="M37.7999 54.5C37.7999 48 35.0999 48.1 35.0999 48.1C35.0999 48.1 32.3999 48 32.3999 54.5C32.3999 54.5 33.0999 57 21.3999 57V58.2H48.8999V57C37.0999 57 37.7999 54.5 37.7999 54.5ZM35.0999 17.4C34.3999 17.4 33.5999 18.8 33.5999 21.9C33.5999 25 36.7999 25 36.7999 21.9C36.6999 18.8 35.6999 17.4 35.0999 17.4Z" fill="#74625C"/>
<path id="Vector_4" d="M52.2001 27C52.0001 26.9 51.7001 27 51.6001 27.3L46.4001 43C46.3001 43.2 46.4001 43.5 46.6001 43.6H46.8001C47.0001 43.6 47.1001 43.5 47.2001 43.3L52.5001 27.5C52.6001 27.3 52.4001 27.1 52.2001 27ZM59.7001 43L54.5001 27.2C54.4001 27 54.1001 26.8 53.9001 26.9C53.7001 27 53.5001 27.3 53.6001 27.5L59.0001 43.4C59.1001 43.6 59.2001 43.7 59.4001 43.7H59.6001C59.7001 43.5 59.8001 43.3 59.7001 43Z" fill="#AC9994"/>
<path id="Vector_5" d="M46.2998 42.9C46.2998 42.9 46.3998 49.7 53.0998 49.7C59.7998 49.7 59.7998 42.9 59.7998 42.9H46.2998Z" fill="#AC9994"/>
<path id="Vector_6" d="M54.5002 24.1C54.3002 23.7 53.9002 23.4 53.4002 23.2C52.5002 22.9 51.5002 23.3 51.3002 24.1C51.0002 24.9 51.6002 25.8 52.5002 26.1H52.6002C52.1002 26.2 51.7002 26.2 51.2002 26C50.5002 25.8 49.3002 24.4 46.8002 23.6C44.8002 23 40.4002 22.9 34.8002 21L34.2002 22.9C38.7002 24.4 43.3002 24.4 45.3002 25C49.0002 26.1 49.9002 27.1 50.9002 27.8C51.9002 28.5 54.2002 28.2 54.7002 26.5C55.0002 25.7 54.9002 24.8 54.5002 24.1Z" fill="#74625C"/>
<path id="Vector_7" d="M23.7998 31.7L18.3998 15.9C18.2998 15.7 17.9998 15.5 17.7998 15.6C17.5998 15.7 17.3998 16 17.4998 16.2L22.9998 32C23.0998 32.2 23.1998 32.3 23.3998 32.3H23.5998C23.7998 32.2 23.8998 32 23.7998 31.7ZM16.0998 15.7C15.8998 15.6 15.5998 15.7 15.4998 16L10.0998 31.8C9.99978 32 10.0998 32.3 10.2998 32.4H10.4998C10.6998 32.4 10.7998 32.3 10.8998 32.1L16.3998 16.3C16.3998 16 16.2998 15.8 16.0998 15.7Z" fill="#AC9994"/>
<path id="Vector_8" d="M9.8999 31.6C9.8999 31.6 9.8999 38.4 16.7999 38.4C23.6999 38.4 23.7999 31.6 23.7999 31.6H9.8999Z" fill="#AC9994"/>
<path id="Vector_9" d="M23.4998 16.1C20.9998 15.3 19.1998 15.7 18.4998 15.5C17.9998 15.3 17.5998 15.1 17.2998 14.7H17.3998C18.2998 15 19.2998 14.6 19.4998 13.8C19.7998 13 19.1998 12.1 18.2998 11.8C17.7998 11.6 17.2998 11.7 16.8998 11.9C16.1998 12.3 15.5998 12.9 15.2998 13.8C14.6998 15.5 16.4998 17.1 17.6998 17.1C18.8998 17.1 20.2998 16.8 23.8998 18.1C25.8998 18.8 29.5998 21.5 34.1998 22.9L34.7998 21C29.0998 19.3 25.3998 16.8 23.4998 16.1Z" fill="#74625C"/>
</g>
<defs>
<clipPath id="clip0_4_321">
<rect width="70" height="70" fill="white"/>
</clipPath>
</defs>
</svg>
