<svg width="86" height="86" viewBox="0 0 86 86" fill="none" xmlns="http://www.w3.org/2000/svg">
<g id="pisces 2">
<path id="Vector" d="M43.0001 9.55554C24.5579 9.55554 9.55566 24.5578 9.55566 43C9.55566 61.4422 24.5579 76.4444 43.0001 76.4444C61.4423 76.4444 76.4445 61.4422 76.4445 43C76.4445 24.5578 61.4423 9.55554 43.0001 9.55554Z" fill="#D5CAE9"/>
<path id="Vector_2" d="M13.3778 36.6933C9.26887 39.2733 10.1289 35.3555 8.21776 32.3933C6.30665 29.4311 2.48443 28.4755 6.59332 25.8955C10.7022 23.3155 15.48 23.6978 17.3911 26.66C19.2067 29.6222 17.4867 34.1133 13.3778 36.6933Z" fill="#471302"/>
<path id="Vector_3" d="M10.8933 32.7755C6.78445 35.3555 8.69556 33.1578 8.21778 32.2978C7.64445 31.4378 4.87334 32.2022 8.98223 29.7178C13.0911 27.2333 16.8178 25.8 17.2956 26.5644C17.8689 27.4244 15.0022 30.1955 10.8933 32.7755Z" fill="#A82A00"/>
<path id="Vector_4" d="M17.3911 26.66C18.4422 28.38 15.8622 31.9155 11.4666 34.6866C10.5111 35.26 9.93774 35.5466 9.45996 35.7378C9.84218 36.7889 10.6066 37.1711 12.8044 35.7378C16.8177 33.1578 18.92 29.0489 17.3911 26.66Z" fill="#A82A00"/>
<path id="Vector_5" d="M7.16655 26.8511C4.96877 28.2845 4.96877 29.0489 5.73322 29.9089C6.01988 29.5267 6.59322 29.1444 7.54877 28.5711C11.8488 25.8956 16.2443 25.0356 17.391 26.7556C15.8621 24.1756 11.2754 24.2711 7.16655 26.8511Z" fill="#A82A00"/>
<path id="Vector_6" d="M49.2112 40.7066C56.6646 45.9622 66.9846 51.1222 69.469 45.1022C71.9534 39.0822 69.7557 24.94 58.0979 19.0155C30.8646 5.06441 10.5112 30.1 10.5112 30.1C10.5112 30.1 30.6735 27.6155 49.2112 40.7066Z" fill="#FF6A38"/>
<path id="Vector_7" d="M49.2112 40.7067C51.0268 42.0445 53.0334 43.2867 55.1356 44.4334C53.5112 39.0822 50.0712 33.7311 43.9556 30.5778C31.2468 24.08 20.0668 26.0867 11.7534 30.0045C16.3401 29.7178 33.4445 29.5267 49.2112 40.7067Z" fill="#FF8961"/>
<path id="Vector_8" d="M38.2223 22.2644C40.1334 22.1689 41.6623 20.9266 41.5667 19.4933C41.4712 18.06 39.8467 17.0089 37.9356 17.1044C36.0245 17.2 34.4956 18.4422 34.5912 19.8755C34.6867 21.3089 36.3112 22.36 38.2223 22.2644Z" fill="#C43100"/>
<path id="Vector_9" d="M39.0822 21.7866C40.7067 21.6911 42.0445 20.64 41.9489 19.3978C41.8533 18.1555 40.5156 17.2955 38.7956 17.3911C37.1711 17.4866 35.8333 18.5378 35.9289 19.78C36.0244 21.0222 37.4578 21.8822 39.0822 21.7866Z" fill="#FF6A38"/>
<path id="Vector_10" d="M39.2733 19.1111C39.751 19.1111 40.0377 18.7289 40.0377 18.3467C40.0377 17.9645 39.6555 17.6778 39.1777 17.6778C38.6999 17.6778 38.4133 18.06 38.4133 18.4422C38.4133 18.92 38.7955 19.1111 39.2733 19.1111ZM37.6488 19.3978C37.9355 19.3022 38.031 19.0156 37.9355 18.8245C37.8399 18.6334 37.5533 18.4422 37.2666 18.6334C36.9799 18.7289 36.8844 19.0156 36.9799 19.2067C37.0755 19.3978 37.3621 19.4934 37.6488 19.3978Z" fill="#FDDD85"/>
<path id="Vector_11" d="M31.0554 22.7422C32.4888 22.6467 33.5399 21.7867 33.5399 20.7356C33.4443 19.6845 32.2977 18.92 30.8643 19.0156C29.431 19.1111 28.3799 19.9711 28.3799 21.0222C28.4754 22.0733 29.6221 22.8378 31.0554 22.7422Z" fill="#C43100"/>
<path id="Vector_12" d="M31.7245 22.36C32.9667 22.2645 33.8267 21.5 33.8267 20.64C33.7312 19.78 32.7756 19.1111 31.5334 19.2067C30.2912 19.3022 29.4312 20.0667 29.4312 20.9267C29.4312 21.7867 30.4823 22.4556 31.7245 22.36Z" fill="#FF6A38"/>
<path id="Vector_13" d="M31.8199 20.4489C32.1066 20.4489 32.3932 20.1622 32.3932 19.8755C32.3932 19.5889 32.1066 19.3978 31.8199 19.3978C31.5332 19.3978 31.2466 19.6844 31.2466 19.9711C31.2466 20.2578 31.4377 20.4489 31.8199 20.4489ZM30.5777 20.64C30.7688 20.5444 30.8643 20.3533 30.7688 20.1622C30.7688 20.0667 30.5777 19.9711 30.3866 20.0667C30.1954 20.1622 30.0999 20.3533 30.1954 20.5444C30.1954 20.64 30.3866 20.7355 30.5777 20.64Z" fill="#FDDD85"/>
<path id="Vector_14" d="M44.4333 22.9334C47.0133 23.3156 49.3066 22.1689 49.5933 20.2578C49.88 18.3467 48.0644 16.5311 45.58 16.1489C43 15.7667 40.7066 16.9134 40.42 18.8245C40.0378 20.7356 41.8533 22.5511 44.4333 22.9334Z" fill="#C43100"/>
<path id="Vector_15" d="M45.5799 22.5511C47.7777 22.9333 49.6888 21.8822 49.9755 20.3533C50.2621 18.8245 48.6377 17.2 46.5355 16.9133C44.3377 16.5311 42.4266 17.5822 42.1399 19.1111C41.9488 20.64 43.4777 22.2645 45.5799 22.5511Z" fill="#FF6A38"/>
<path id="Vector_16" d="M46.6311 19.2066C47.2045 19.3022 47.6822 18.92 47.7778 18.4422C47.8734 17.9644 47.3956 17.4866 46.9178 17.3911C46.3445 17.2955 45.8667 17.6777 45.7711 18.1555C45.58 18.6333 46.0578 19.1111 46.6311 19.2066ZM44.4334 19.1111C44.8156 19.0155 45.1022 18.7289 45.0067 18.4422C44.9111 18.1555 44.6245 17.8689 44.2422 17.9644C43.86 18.06 43.5734 18.3466 43.6689 18.6333C43.6689 18.92 44.0511 19.1111 44.4334 19.1111Z" fill="#FDDD85"/>
<path id="Vector_17" d="M42.7135 27.52C44.8157 27.9022 46.8223 26.8511 47.0135 25.2267C47.3001 23.6022 45.7712 22.0734 43.5735 21.7867C41.4712 21.4045 39.4646 22.4556 39.2735 24.08C39.0823 25.6089 40.6112 27.2334 42.7135 27.52Z" fill="#C43100"/>
<path id="Vector_18" d="M43.7643 27.2333C45.5799 27.52 47.2043 26.66 47.3955 25.3222C47.5866 23.9844 46.3443 22.6467 44.4332 22.36C42.6177 22.0733 40.9932 22.9333 40.7066 24.2711C40.611 25.6089 41.8532 26.9467 43.7643 27.2333Z" fill="#FF6A38"/>
<path id="Vector_19" d="M44.5289 24.3667C45.0067 24.4622 45.4844 24.1755 45.4844 23.6978C45.58 23.3155 45.1978 22.8378 44.72 22.8378C44.2422 22.7422 43.7644 23.0289 43.7644 23.5067C43.6689 23.8889 44.0511 24.2711 44.5289 24.3667ZM42.7133 24.2711C43 24.1755 43.2867 23.9844 43.1911 23.6978C43.1911 23.4111 42.8089 23.22 42.5222 23.3155C42.2355 23.3155 42.0444 23.6022 42.0444 23.8889C42.0444 24.1755 42.4267 24.3667 42.7133 24.2711Z" fill="#FDDD85"/>
<path id="Vector_20" d="M58.6712 39.2733C60.9645 40.2289 63.5445 39.0822 64.5001 36.8844C65.4556 34.5911 64.309 32.0111 62.1112 31.0555C59.8178 30.1 57.2378 31.2466 56.2823 33.4444C55.3267 35.7378 56.3778 38.3178 58.6712 39.2733Z" fill="#471302"/>
<path id="Vector_21" d="M58.8622 38.7C60.8689 39.4645 63.0667 38.6045 63.8311 36.5978C64.5955 34.5911 63.7355 32.3934 61.7289 31.6289C59.7222 30.8645 57.5244 31.7245 56.76 33.7311C55.9955 35.6422 56.9511 37.84 58.8622 38.7Z" fill="#FF8961"/>
<path id="Vector_22" d="M59.6267 36.8844C60.5822 37.2667 61.6333 36.7889 62.0156 35.8333C62.3978 34.8778 61.92 33.8267 60.9644 33.4444C60.0089 33.0622 58.9578 33.54 58.5756 34.4956C58.1933 35.3556 58.6711 36.5022 59.6267 36.8844Z" fill="#471302"/>
<path id="Vector_23" d="M62.4932 34.7822C63.3532 35.1644 64.2132 34.9733 64.4043 34.4955C64.5955 34.0177 64.1177 33.2533 63.2577 32.9666C62.3977 32.5844 61.5377 32.7755 61.3466 33.2533C61.1555 33.7311 61.6332 34.4955 62.4932 34.7822ZM59.8177 34.4C60.2955 34.5911 60.7732 34.4955 60.8688 34.2089C60.9643 33.9222 60.6777 33.54 60.2955 33.3489C59.8177 33.1578 59.3399 33.2533 59.2443 33.54C59.1488 33.8266 59.3399 34.2089 59.8177 34.4Z" fill="#FDDD85"/>
<path id="Vector_24" d="M50.8355 23.6022C53.2243 24.5578 55.7088 23.9844 56.4732 22.1689C57.2377 20.4489 55.8999 18.1555 53.511 17.2C51.1221 16.2444 48.6377 16.8178 47.8732 18.6333C47.1088 20.3533 48.4466 22.5511 50.8355 23.6022Z" fill="#C43100"/>
<path id="Vector_25" d="M52.0777 23.5066C54.0844 24.3666 56.2821 23.7933 56.8555 22.36C57.4288 20.9266 56.2821 19.0155 54.2755 18.1555C52.2688 17.2955 50.071 17.8689 49.4977 19.3022C48.9244 20.7355 50.071 22.6466 52.0777 23.5066Z" fill="#FF6A38"/>
<path id="Vector_26" d="M53.7977 20.3533C54.3711 20.5444 54.9444 20.3533 55.1355 19.8756C55.3266 19.3978 55.0399 18.8244 54.4666 18.6333C53.8933 18.4422 53.3199 18.6333 53.1288 19.1111C53.0333 19.5889 53.3199 20.1622 53.7977 20.3533ZM51.6955 19.78C52.0777 19.78 52.3644 19.5889 52.4599 19.2067C52.4599 18.92 52.1733 18.5378 51.7911 18.5378C51.4088 18.5378 51.1222 18.7289 51.0266 19.1111C51.0266 19.4933 51.3133 19.78 51.6955 19.78Z" fill="#FDDD85"/>
<path id="Vector_27" d="M47.5866 27.6155C49.5932 28.5711 51.6955 28.0933 52.3643 26.66C53.0332 25.2267 51.9821 23.3155 50.071 22.36C48.0643 21.4044 45.9621 21.8822 45.2932 23.3155C44.6243 24.8444 45.6755 26.7555 47.5866 27.6155Z" fill="#C43100"/>
<path id="Vector_28" d="M48.6377 27.6155C50.3577 28.38 52.0777 27.9978 52.651 26.8511C53.2244 25.6089 52.3644 23.9844 50.6444 23.22C48.9244 22.4555 47.2044 22.8378 46.631 23.9844C46.0577 25.2266 47.0133 26.8511 48.6377 27.6155Z" fill="#FF6A38"/>
<path id="Vector_29" d="M50.2623 25.0356C50.7401 25.2267 51.2179 25.0356 51.409 24.6534C51.6001 24.2711 51.3134 23.7934 50.9312 23.6022C50.4534 23.4111 49.9757 23.6022 49.7845 23.9845C49.5934 24.3667 49.7845 24.8445 50.2623 25.0356ZM48.4468 24.5578C48.7334 24.5578 49.0201 24.3667 49.1157 24.08C49.1157 23.7934 48.9246 23.5067 48.6379 23.5067C48.3512 23.5067 48.0645 23.6978 47.969 23.9845C47.969 24.1756 48.1601 24.4622 48.4468 24.5578ZM63.9268 26.7556C66.029 29.3356 66.7934 32.2978 67.4623 31.7245C68.1312 31.1511 66.9846 28.5711 64.7868 25.9911C62.6846 23.4111 60.3912 21.6911 59.7223 22.2645C59.0534 22.9334 61.8246 24.1756 63.9268 26.7556ZM67.6534 33.54C67.749 33.9222 68.0357 34.2089 68.2268 34.2089C68.5134 34.1134 68.609 33.8267 68.5134 33.3489C68.4179 32.9667 68.1312 32.68 67.9401 32.68C67.749 32.7756 67.5579 33.0622 67.6534 33.54ZM68.4179 35.8334C68.4179 36.0245 68.609 36.2156 68.8001 36.12C68.9912 36.12 68.9912 35.9289 68.9912 35.7378C68.9912 35.5467 68.8001 35.4511 68.609 35.4511C68.4179 35.4511 68.3223 35.6422 68.4179 35.8334Z" fill="#FDDD85"/>
<path id="Vector_30" d="M37.6488 33.3489C33.4443 30.96 36.5977 30.96 37.6488 29.3356C38.6043 27.7111 36.9799 24.94 41.1843 27.3289C45.3888 29.7178 47.9688 33.0622 47.0132 34.6867C45.9621 36.4067 41.8532 35.8333 37.6488 33.3489Z" fill="#471302"/>
<path id="Vector_31" d="M38.8911 31.2467C34.6867 28.8578 37.3622 29.8133 37.5533 29.3356C37.84 28.8578 35.6422 27.1378 39.8467 29.5267C44.0511 31.9156 47.2044 34.3044 46.9178 34.7822C46.7266 35.1644 43.0955 33.6356 38.8911 31.2467Z" fill="#A82A00"/>
<path id="Vector_32" d="M46.9177 34.7823C46.3444 35.7378 42.3311 34.4 37.9355 31.9156C36.98 31.3423 36.4066 30.96 36.0244 30.6734C35.5466 31.0556 35.6422 31.6289 37.9355 32.9667C42.14 35.26 46.1533 36.12 46.9177 34.7823ZM40.8022 27.9023C38.5089 26.5645 38.0311 26.7556 37.9355 27.3289C38.4133 27.52 38.9866 27.8067 39.9422 28.38C44.3378 30.96 47.4911 33.8267 47.0133 34.6867C47.7778 33.3489 45.0066 30.2911 40.8022 27.9023Z" fill="#A82A00"/>
<path id="Vector_33" d="M45.8668 36.5022C48.2557 37.84 50.6445 38.1266 51.2179 37.1711C51.7912 36.2155 50.3579 34.3044 47.969 32.8711C45.5801 31.5333 43.1912 31.2466 42.6179 32.2022C42.1401 33.2533 43.5734 35.1644 45.8668 36.5022Z" fill="#C43100"/>
<path id="Vector_34" d="M46.9177 37.0756C48.7333 38.1267 50.6444 38.1267 51.2177 37.1711C51.7911 36.2156 50.7399 34.4956 48.9244 33.4444C47.1088 32.3933 45.1977 32.3933 44.6244 33.3489C44.0511 34.4 45.1022 36.0244 46.9177 37.0756Z" fill="#FF6A38"/>
<path id="Vector_35" d="M51.0267 41.9489C57.7156 46.3445 65.8378 50.0711 68.8001 46.2489C64.9778 47.1089 59.8178 45.2934 55.6134 41.3756C51.2178 37.1711 49.1156 31.82 50.0712 27.9978L49.4978 28.5711C46.6312 31.4378 47.3956 37.0756 51.0267 41.9489Z" fill="#C43100"/>
<path id="Vector_36" d="M72.6222 49.3066C76.7311 46.7266 75.8711 50.6444 77.7822 53.6066C79.6933 56.5689 83.5155 57.5244 79.4067 60.1044C75.2978 62.6844 70.52 62.3022 68.6089 59.34C66.7933 56.3778 68.5133 51.8866 72.6222 49.3066Z" fill="#471302"/>
<path id="Vector_37" d="M75.1066 53.2245C79.2154 50.6445 77.3043 52.8422 77.7821 53.7022C78.3555 54.5622 81.1266 53.7978 77.0177 56.2822C72.9088 58.8622 69.1821 60.2 68.7043 59.4356C68.131 58.5756 70.9977 55.8045 75.1066 53.2245Z" fill="#A82A00"/>
<path id="Vector_38" d="M68.6088 59.34C67.5577 57.62 70.1377 54.0845 74.5333 51.3134C75.4888 50.74 76.0622 50.4534 76.5399 50.2623C76.1577 49.2111 75.3933 48.8289 73.1955 50.2623C69.1822 52.8423 67.0799 56.9511 68.6088 59.34Z" fill="#A82A00"/>
<path id="Vector_39" d="M78.8333 59.1489C81.0311 57.7156 81.0311 56.9511 80.2667 56.0911C79.98 56.4733 79.4067 56.8556 78.4511 57.4289C74.1511 60.1045 69.7556 60.9645 68.6089 59.2445C70.1378 61.8245 74.7244 61.7289 78.8333 59.1489Z" fill="#A82A00"/>
<path id="Vector_40" d="M36.7888 45.2934C29.3355 40.0378 19.0155 34.8778 16.531 40.8978C14.0466 46.9178 16.2444 61.06 27.9022 66.9845C55.1355 80.9356 75.4888 55.9 75.4888 55.9C75.4888 55.9 55.3266 58.3845 36.7888 45.2934Z" fill="#FF6A38"/>
<path id="Vector_41" d="M36.7889 45.2933C34.9734 43.9555 32.9667 42.7133 30.8645 41.5667C32.4889 46.9178 35.9289 52.2689 42.0445 55.4222C54.7534 61.92 65.9334 59.9133 74.2467 55.9955C69.6601 56.2822 52.5556 56.4733 36.7889 45.2933Z" fill="#FF8961"/>
<path id="Vector_42" d="M47.7779 63.7355C45.8668 63.8311 44.3379 65.0733 44.4334 66.5066C44.529 67.94 46.1534 68.9911 48.0646 68.8955C49.9757 68.8 51.5046 67.5577 51.409 66.1244C51.3134 64.6911 49.689 63.64 47.7779 63.7355Z" fill="#C43100"/>
<path id="Vector_43" d="M46.9179 64.2134C45.2934 64.3089 43.9557 65.36 44.0512 66.6022C44.1468 67.8445 45.4845 68.7045 47.2045 68.6089C48.829 68.5134 50.1668 67.4623 50.0712 66.22C49.9757 64.9778 48.5423 64.1178 46.9179 64.2134Z" fill="#FF6A38"/>
<path id="Vector_44" d="M46.7266 66.8889C46.2488 66.8889 45.9622 67.2711 45.9622 67.6534C45.9622 68.0356 46.3444 68.3222 46.8222 68.3222C47.2999 68.3222 47.5866 67.94 47.5866 67.5578C47.5866 67.08 47.2044 66.8889 46.7266 66.8889ZM48.351 66.6022C48.0644 66.6978 47.9688 66.9845 48.0644 67.1756C48.1599 67.3667 48.4466 67.5578 48.7333 67.3667C49.0199 67.2711 49.1155 66.9845 49.0199 66.7934C48.9244 66.6022 48.6377 66.5067 48.351 66.6022Z" fill="#FDDD85"/>
<path id="Vector_45" d="M54.9444 63.2578C53.5111 63.3533 52.46 64.2133 52.46 65.2644C52.5555 66.3155 53.7022 67.08 55.1355 66.9844C56.5688 66.8889 57.62 66.0289 57.62 64.9778C57.5244 64.0222 56.3777 63.1622 54.9444 63.2578Z" fill="#C43100"/>
<path id="Vector_46" d="M54.371 63.64C53.1288 63.7356 52.2688 64.5 52.2688 65.36C52.3644 66.22 53.3199 66.8889 54.5621 66.7934C55.8044 66.6978 56.6644 65.9334 56.6644 65.0734C56.5688 64.2134 55.5177 63.5445 54.371 63.64Z" fill="#FF6A38"/>
<path id="Vector_47" d="M54.18 65.5511C53.8934 65.5511 53.6067 65.8378 53.6067 66.1244C53.6067 66.4111 53.8934 66.6022 54.18 66.6022C54.4667 66.6022 54.7534 66.3155 54.7534 66.0289C54.7534 65.7422 54.5622 65.5511 54.18 65.5511ZM55.4222 65.36C55.2311 65.4556 55.1356 65.6467 55.2311 65.8378C55.3267 66.0289 55.5178 66.1244 55.7089 66.0289C55.9 65.9333 55.9956 65.7422 55.9 65.5511C55.8045 65.36 55.6134 65.2644 55.4222 65.36Z" fill="#FDDD85"/>
<path id="Vector_48" d="M41.5667 63.0666C38.9867 62.6844 36.6934 63.8311 36.4067 65.7422C36.1201 67.6533 37.9356 69.4689 40.4201 69.8511C43.0001 70.2333 45.2934 69.0866 45.5801 67.1755C45.9623 65.2644 44.1467 63.4489 41.5667 63.0666Z" fill="#C43100"/>
<path id="Vector_49" d="M40.4199 63.4489C38.2221 63.0667 36.2154 64.0222 36.0243 65.6467C35.7377 67.1756 37.3621 68.8 39.4643 69.0867C41.6621 69.4689 43.5732 68.4178 43.8599 66.8889C44.051 65.36 42.5221 63.7356 40.4199 63.4489Z" fill="#FF6A38"/>
<path id="Vector_50" d="M39.3689 66.7933C38.7956 66.6977 38.3178 67.08 38.2223 67.5577C38.1267 68.0355 38.6045 68.5133 39.0823 68.6089C39.6556 68.7044 40.1334 68.3222 40.2289 67.8444C40.42 67.3666 39.9423 66.8889 39.3689 66.7933ZM41.5667 66.8889C41.1845 66.9844 40.8978 67.2711 40.9934 67.5577C41.0889 67.8444 41.3756 68.1311 41.7578 68.0355C42.14 67.94 42.4267 67.6533 42.3311 67.3666C42.3311 67.08 41.9489 66.8889 41.5667 66.8889Z" fill="#FDDD85"/>
<path id="Vector_51" d="M43.2867 58.48C41.1845 58.0978 39.1778 59.1489 38.9867 60.7733C38.7 62.3978 40.2289 63.9266 42.4267 64.2133C44.5289 64.5955 46.5356 63.5444 46.7267 61.92C46.9178 60.3911 45.3889 58.7667 43.2867 58.48Z" fill="#C43100"/>
<path id="Vector_52" d="M42.2355 58.7667C40.42 58.48 38.7955 59.34 38.5088 60.6778C38.3177 62.0156 39.56 63.3533 41.4711 63.64C43.2866 63.9267 44.9111 63.0667 45.1977 61.7289C45.3888 60.3911 44.1466 59.0533 42.2355 58.7667Z" fill="#FF6A38"/>
<path id="Vector_53" d="M41.471 61.6334C40.9933 61.5378 40.5155 61.8245 40.5155 62.3022C40.4199 62.6845 40.8021 63.1622 41.2799 63.1622C41.7577 63.2578 42.2355 62.9711 42.2355 62.4934C42.331 62.1111 41.9488 61.7289 41.471 61.6334ZM43.2866 61.7289C42.9999 61.8245 42.7132 62.0156 42.8088 62.3022C42.8088 62.5889 43.191 62.78 43.4777 62.6845C43.7644 62.5889 44.051 62.3978 43.9555 62.1111C43.9555 61.8245 43.5732 61.6334 43.2866 61.7289Z" fill="#FDDD85"/>
<path id="Vector_54" d="M23.9844 54.9445C26.2777 55.9 28.8577 54.7533 29.8133 52.5556C30.7689 50.2622 29.6222 47.6822 27.4244 46.7267C25.1311 45.7711 22.5511 46.9178 21.5955 49.1156C20.64 51.5045 21.6911 54.0845 23.9844 54.9445Z" fill="#471302"/>
<path id="Vector_55" d="M24.1754 54.4667C26.1821 55.2311 28.3799 54.3711 29.1443 52.3645C29.9088 50.3578 29.0488 48.16 27.0421 47.3956C25.0354 46.6311 22.8377 47.4911 22.0732 49.4978C21.3088 51.4089 22.2643 53.6067 24.1754 54.4667Z" fill="#FF8961"/>
<path id="Vector_56" d="M24.9401 52.5555C25.8957 52.9377 26.9468 52.46 27.329 51.5044C27.7112 50.5489 27.2334 49.4978 26.2779 49.1155C25.3223 48.7333 24.2712 49.2111 23.889 50.1666C23.6023 51.1222 23.9846 52.1733 24.9401 52.5555Z" fill="#471302"/>
<path id="Vector_57" d="M27.8067 50.5489C28.6667 50.9311 29.5267 50.74 29.7178 50.2622C29.9089 49.7845 29.4312 49.02 28.5712 48.7334C27.7112 48.3511 26.8512 48.5422 26.66 49.02C26.4689 49.4978 26.9467 50.1667 27.8067 50.5489ZM25.1312 50.1667C25.6089 50.3578 26.0867 50.2622 26.1823 49.9756C26.2778 49.6889 25.9912 49.3067 25.6089 49.1156C25.1312 48.9245 24.6534 49.02 24.5578 49.3067C24.4623 49.5934 24.7489 49.9756 25.1312 50.1667Z" fill="#FDDD85"/>
<path id="Vector_58" d="M35.1644 62.3978C32.7756 61.4423 30.2911 62.0156 29.5267 63.8311C28.7622 65.6467 30.1956 67.8445 32.4889 68.8C34.8778 69.7556 37.3622 69.1823 38.1267 67.3667C38.8911 65.6467 37.5533 63.4489 35.1644 62.3978Z" fill="#C43100"/>
<path id="Vector_59" d="M33.9222 62.4934C31.9155 61.6334 29.7177 62.2067 29.1444 63.64C28.5711 65.0734 29.7177 66.9845 31.7244 67.8445C33.7311 68.7045 35.9289 68.1311 36.5022 66.6978C37.0755 65.2645 35.9289 63.3534 33.9222 62.4934Z" fill="#FF6A38"/>
<path id="Vector_60" d="M32.2022 65.6467C31.6288 65.4555 31.0555 65.6467 30.8644 66.1244C30.6733 66.6022 30.9599 67.1756 31.5333 67.3667C32.1066 67.5578 32.6799 67.3667 32.8711 66.8889C32.9666 66.4111 32.6799 65.8378 32.2022 65.6467ZM34.3044 66.22C33.9222 66.22 33.6355 66.4111 33.5399 66.7933C33.5399 67.1756 33.8266 67.4622 34.2088 67.4622C34.591 67.4622 34.8777 67.2711 34.9733 66.8889C34.9733 66.5067 34.6866 66.22 34.3044 66.22Z" fill="#FDDD85"/>
<path id="Vector_61" d="M38.4133 58.3845C36.4066 57.4289 34.3044 57.9067 33.6355 59.34C32.9666 60.7734 34.0177 62.6845 35.9289 63.64C37.9355 64.5956 40.0377 64.1178 40.7066 62.6845C41.3755 61.1556 40.3244 59.2445 38.4133 58.3845Z" fill="#C43100"/>
<path id="Vector_62" d="M37.3623 58.3845C35.7379 57.62 33.9223 58.0022 33.349 59.1489C32.7757 60.3911 33.6357 62.0156 35.3557 62.78C36.9801 63.5445 38.7957 63.1622 39.369 62.0156C39.9423 60.7734 38.9868 59.1489 37.3623 58.3845Z" fill="#FF6A38"/>
<path id="Vector_63" d="M35.7377 60.9644C35.2599 60.7733 34.7821 60.9644 34.591 61.3467C34.3999 61.7289 34.6866 62.2067 35.0688 62.3978C35.5466 62.5889 36.0243 62.3978 36.2155 62.0156C36.4066 61.6333 36.2155 61.1556 35.7377 60.9644ZM37.5532 61.4422C37.2666 61.4422 36.9799 61.6333 36.8843 61.92C36.8843 62.2067 37.0755 62.4933 37.3621 62.4933C37.6488 62.4933 37.9355 62.3022 38.031 62.0156C38.031 61.8245 37.8399 61.5378 37.5532 61.4422ZM22.0732 59.2444C19.971 56.6644 19.2066 53.7022 18.5377 54.2756C17.8688 54.8489 19.0155 57.4289 21.2132 60.0089C23.3155 62.5889 25.6088 64.3089 26.2777 63.7356C26.9466 63.0667 24.1755 61.8244 22.0732 59.2444ZM18.3466 52.46C18.251 52.0778 17.9643 51.7911 17.7732 51.7911C17.4866 51.8867 17.391 52.1733 17.4866 52.6511C17.5821 53.0333 17.8688 53.32 18.0599 53.32C18.251 53.2244 18.4421 52.9378 18.3466 52.46ZM17.5821 50.1667C17.5821 49.9756 17.391 49.88 17.1999 49.88C17.0088 49.88 17.0088 50.0711 17.0088 50.2622C17.0088 50.4533 17.1999 50.6445 17.391 50.5489C17.5821 50.5489 17.6777 50.3578 17.5821 50.1667Z" fill="#FDDD85"/>
<path id="Vector_64" d="M48.3511 52.6511C52.5556 55.04 49.4022 55.04 48.4467 56.6644C47.4911 58.2889 49.1156 61.06 44.9111 58.6711C40.7067 56.2822 38.1267 52.9378 39.0822 51.3133C40.0378 49.5933 44.1467 50.1666 48.3511 52.6511Z" fill="#471302"/>
<path id="Vector_65" d="M47.109 54.7533C51.3134 57.1422 48.6379 56.1867 48.4467 56.6645C48.1601 57.1422 50.3579 58.8622 46.1534 56.4733C41.949 54.0845 38.7956 51.6956 39.0823 51.2178C39.2734 50.8356 42.9045 52.3645 47.109 54.7533Z" fill="#A82A00"/>
<path id="Vector_66" d="M39.0822 51.2177C39.6555 50.2622 43.6688 51.6 48.0644 54.0844C49.0199 54.6578 49.5933 55.04 49.9755 55.3266C50.4533 54.9444 50.3577 54.3711 48.0644 53.0333C43.8599 50.74 39.8466 49.88 39.0822 51.2177ZM45.1977 58.0978C47.491 59.4355 47.9688 59.2444 48.1599 58.6711C47.6822 58.48 47.1088 58.1933 46.1533 57.62C41.7577 55.04 38.6044 52.1733 39.0822 51.3133C38.2222 52.6511 40.9933 55.7089 45.1977 58.0978Z" fill="#A82A00"/>
<path id="Vector_67" d="M40.1332 49.4978C37.7443 48.16 35.3554 47.8733 34.7821 48.8289C34.2088 49.7845 35.6421 51.6956 38.031 53.1289C40.4199 54.4667 42.8088 54.7533 43.3821 53.7978C43.8599 52.7467 42.4266 50.8356 40.1332 49.4978Z" fill="#C43100"/>
<path id="Vector_68" d="M39.0823 48.9245C37.2668 47.8734 35.3557 47.7778 34.7823 48.8289C34.209 49.7845 35.2601 51.5045 37.0757 52.5556C38.8912 53.6067 40.8023 53.6067 41.3757 52.6511C41.949 51.6 40.8979 49.9756 39.0823 48.9245Z" fill="#FF6A38"/>
<path id="Vector_69" d="M34.9733 44.0511C28.2844 39.6555 20.1622 35.9289 17.2 39.7511C21.0222 38.8911 26.1822 40.7066 30.3866 44.6244C34.7822 48.8289 36.8844 54.18 35.9288 58.0022L36.5022 57.4289C39.3688 54.5622 38.6044 48.9244 34.9733 44.0511Z" fill="#C43100"/>
</g>
</svg>
