<svg width="70" height="70" viewBox="0 0 70 70" fill="none" xmlns="http://www.w3.org/2000/svg">
<g id="pisces 1" clip-path="url(#clip0_4_427)">
<path id="Vector" d="M35 70C54.33 70 70 54.33 70 35C70 15.67 54.33 0 35 0C15.67 0 0 15.67 0 35C0 54.33 15.67 70 35 70Z" fill="#E5CFCA"/>
<path id="Vector_2" d="M42.0999 14.9C41.7999 14.8 35 12.3 30.9 12.5C28.3 12.6 26.5 15.4 26.4 15.6C26.3 15.7 26.3 15.9 26.4 16C26.5 16.1 26.6 16.2 26.7 16.2L41.7 18.9H41.8C41.9 18.9 42 18.9 42 18.8C42.1 18.7 42.1 18.6 42.2 18.5L42.5 15.4C42.4 15.1 42.2999 15 42.0999 14.9ZM39.9 33L37.9 28.6C37.8 28.4 37.6 28.3 37.4 28.4L30.4 31C30.3 31.1 30.2 31.2 30.2 31.3C30.2 31.5 30.3 31.6 30.4 31.6C30.6 31.7 35 33.5 39.5999 33.4C39.7 33.4 39.8 33.3 39.9 33.2C40 33.2 40 33.1 39.9 33Z" fill="#74625C"/>
<path id="Vector_3" d="M56.1001 31.9L54.7001 23.2L56.1001 14.4C56.1001 14.2 56.0001 14.1 55.9001 14C55.7001 13.9 55.6001 14 55.5001 14.1C53.5001 16.9 49.9001 21.1 48.5001 21.1C47.3001 21.1 44.3001 19.5 43.0001 18.5C40.2001 16.4 36.4001 14.7 31.9001 14.7C23.9001 14.7 14.5001 19.2 14.1001 22.9L19.5001 25L14.3001 24C15.6001 27.5 24.4001 31.6 32.0001 31.6C37.0001 31.6 41.5001 29.2 44.2001 27C45.1001 26.3 47.4001 24.9 48.6001 24.9C50.0001 24.9 53.6001 29.1 55.6001 31.9C55.7001 32 55.8001 32.1 55.9001 32.1H56.0001C56.0001 32.2 56.1001 32.1 56.1001 31.9Z" fill="#AC9994"/>
<path id="Vector_4" d="M23.4 21.7C24.3388 21.7 25.1 20.9389 25.1 20C25.1 19.0611 24.3388 18.3 23.4 18.3C22.4611 18.3 21.7 19.0611 21.7 20C21.7 20.9389 22.4611 21.7 23.4 21.7Z" fill="#7C6A65"/>
<path id="Vector_5" d="M23.9 20.1C24.2865 20.1 24.6 19.7866 24.6 19.4C24.6 19.0134 24.2865 18.7 23.9 18.7C23.5134 18.7 23.2 19.0134 23.2 19.4C23.2 19.7866 23.5134 20.1 23.9 20.1Z" fill="white"/>
<path id="Vector_6" d="M43.6001 39.6C43.5001 39.5 41.7001 36.7 39.1001 36.5C34.9001 36.3 28.1001 38.8 27.9001 38.9C27.7001 39 27.6001 39.1 27.6001 39.3L27.9001 42.4C27.9001 42.5 28.0001 42.6 28.1001 42.7C28.2001 42.8 28.3001 42.8 28.3001 42.8H28.4001L43.4001 40.1C43.5001 40.1 43.6001 40 43.7001 39.9C43.7001 39.8 43.7001 39.7 43.6001 39.6ZM39.6001 55.1L32.5001 52.4C32.3001 52.3 32.1001 52.4 32.0001 52.6L30.0001 57C29.9001 57.1 30.0001 57.2 30.0001 57.3C30.1001 57.4 30.2001 57.5 30.3001 57.5C34.9001 57.7 39.3001 55.8 39.5001 55.7C39.6001 55.6 39.7001 55.5 39.7001 55.4C39.8001 55.3 39.7001 55.1 39.6001 55.1Z" fill="#74625C"/>
<path id="Vector_7" d="M56.0999 47.1C55.6999 43.3 46.2999 38.9 38.2999 38.9C33.7999 38.9 29.9999 40.6 27.1999 42.7C25.8999 43.7 22.8999 45.3 21.6999 45.3C20.2999 45.3 16.5999 41.1 14.6999 38.3C14.5999 38.2 14.3999 38.1 14.2999 38.2C14.0999 38.3 13.9999 38.4 14.0999 38.6L15.4999 47.4L13.8999 56C13.8999 56.2 13.9999 56.3 14.0999 56.4H14.1999C14.2999 56.4 14.3999 56.3 14.4999 56.2C16.4999 53.4 20.1999 49.2 21.4999 49.2C22.6999 49.2 24.9999 50.6 25.8999 51.3C28.5999 53.5 33.0999 55.9 38.0999 55.9C45.6999 55.9 54.4999 51.8 55.7999 48.3L50.5999 49.3L56.0999 47.1Z" fill="#AC9994"/>
<path id="Vector_8" d="M46.5999 45.8C47.5388 45.8 48.2999 45.0389 48.2999 44.1C48.2999 43.1611 47.5388 42.4 46.5999 42.4C45.661 42.4 44.8999 43.1611 44.8999 44.1C44.8999 45.0389 45.661 45.8 46.5999 45.8Z" fill="#7C6A65"/>
<path id="Vector_9" d="M46.0999 44.1C46.4865 44.1 46.7999 43.7866 46.7999 43.4C46.7999 43.0134 46.4865 42.7 46.0999 42.7C45.7133 42.7 45.3999 43.0134 45.3999 43.4C45.3999 43.7866 45.7133 44.1 46.0999 44.1Z" fill="white"/>
</g>
<defs>
<clipPath id="clip0_4_427">
<rect width="70" height="70" fill="white"/>
</clipPath>
</defs>
</svg>
