<svg width="70" height="70" viewBox="0 0 70 70" fill="none" xmlns="http://www.w3.org/2000/svg">
<g id="sagittarius 1" clip-path="url(#clip0_4_392)">
<path id="Vector" d="M35 70C54.33 70 70 54.33 70 35C70 15.67 54.33 0 35 0C15.67 0 0 15.67 0 35C0 54.33 15.67 70 35 70Z" fill="#E5CFCA"/>
<path id="Vector_2" d="M19.9999 33.6L14.1999 29.6H7.8999L11.0999 34.1L7.9999 38.6H14.2999L20.0999 34.6C20.2999 34.3 20.2999 33.9 19.9999 33.6Z" fill="#887771"/>
<path id="Vector_3" d="M23.3999 33.7L18.7999 30.6H13.8999L16.4999 34.1L13.9999 37.6H18.8999L23.4999 34.4C23.5999 34.3 23.5999 34 23.3999 33.7Z" fill="#74625C"/>
<path id="Vector_4" d="M7.5998 33.9L37.4998 9.19999L37.0998 8.79999L6.7998 33.9L37.1998 61L37.5998 60.6L7.5998 33.9Z" fill="#74625C"/>
<path id="Vector_5" d="M63.5 33.5C62.6 32.6 61.7 31.6 60.7 30.7C60.2 30.2 59.6 30.2 59.1 30.4C58.6 30.6 58.2 31 58.2 31.7V33L5.19996 32.7C4.99996 32.8 4.79996 33 4.69996 33.2C4.29996 33.9 4.49996 34.7 5.19996 35.3C5.19996 35.3 57.9 35.9 58.2 35.9V37.2C58.2 38.5 59.8 39.2 60.7 38.3C61.6 37.4 62.6 36.5 63.5 35.5C64 35 64 34 63.5 33.5Z" fill="#AC9994"/>
<path id="Vector_6" d="M4.5 34.1C4.5 34.5 4.8 35 5.2 35.3C5.2 35.3 57.9 35.9 58.2 35.9V37.2C58.2 38.5 59.8 39.2 60.7 38.3C61.6 37.4 62.6 36.5 63.5 35.5C63.8 35.2 63.9 34.8 63.9 34.5L4.5 34.1Z" fill="#887771"/>
<path id="Vector_7" d="M49.3001 26.1C49.0001 25.4 48.7001 24.7 48.3001 24C48.2001 23.8 48.1001 23.6 48.0001 23.5L47.8001 23.2L47.6001 23C47.4001 22.7 47.1001 22.4 46.9001 22.1C46.4001 21.5 45.8001 20.9 45.2001 20.4C44.6001 19.9 43.9001 19.4 43.2001 19C41.8001 18.2 40.6001 17.8 39.5001 17.1C39.0001 16.8 38.4001 16.4 37.9001 16C37.6001 15.8 37.4001 15.6 37.2001 15.4L36.8001 15L36.5001 14.7C36.1001 14.3 35.7001 13.8 35.4001 13.4C35.1001 13 35.1001 12.5 35.0001 12.1C34.9001 11.7 34.8001 11.3 35.0001 10.8C35.1001 10.6 35.2001 10.3 35.3001 10.1C35.4001 9.90002 35.6001 9.60002 35.7001 9.40002L35.6001 9.50002C35.9001 9.20002 36.3001 9.00002 36.6001 8.80002C36.9001 8.60002 37.3001 8.50002 37.5001 8.50002C37.6001 8.50002 37.7001 8.50002 37.8001 8.70002C37.9001 8.80002 38.0001 9.00002 38.1001 9.20002C38.2001 9.60002 38.3001 10.1 38.3001 10.5C38.5001 10.1 38.6001 9.60002 38.7001 9.10002C38.7001 8.80002 38.7001 8.60002 38.6001 8.30002C38.5001 8.00002 38.3001 7.70002 38.0001 7.60002C37.4001 7.30002 36.8001 7.30002 36.2001 7.40002C35.7001 7.50002 35.2001 7.60002 34.7001 7.80002L34.6001 7.90002C34.4001 8.00002 34.2001 8.10002 34.0001 8.30002C33.8001 8.40002 33.7001 8.60002 33.5001 8.70002C33.2001 9.00002 32.9001 9.30002 32.6001 9.70002C32.1001 10.5 31.7001 11.5 31.7001 12.5C31.7001 13.5 32.2001 14.4 32.6001 15.2C33.1001 16 33.6001 16.6 34.2001 17.2L34.6001 17.6L35.0001 18C35.3001 18.2 35.6001 18.5 35.9001 18.7C36.5001 19.2 37.1001 19.6 37.8001 20C39.1001 20.8 40.5001 21.4 41.6001 22C42.7001 22.6 43.5001 23.4 44.4001 24.3C44.6001 24.5 44.8001 24.8 45.0001 25.1L45.1001 25.3L45.2001 25.5C45.3001 25.6 45.4001 25.7 45.4001 25.9C45.7001 26.4 46.0001 27 46.2001 27.6C47.1001 30 47.5001 32.6 47.5001 35.3C47.5001 37.9 47.1001 40.6 46.2001 43C46.0001 43.6 45.7001 44.2 45.4001 44.7C45.3001 44.8 45.2001 45 45.2001 45.1L45.1001 45.3L44.9001 45L44.6001 45.4L44.3001 45.8C43.5001 46.8 42.6001 47.5 41.5001 48.1C40.4001 48.7 39.0001 49.3 37.7001 50.1C36.4001 50.9 35.2001 51.9 34.1001 52.9C33.5001 53.5 33.0001 54.1 32.5001 54.9C32.1001 55.7 31.6001 56.6 31.6001 57.6C31.6001 58.6 32.0001 59.6 32.5001 60.4C32.8001 60.8 33.1001 61.1 33.4001 61.4C33.7001 61.7 34.0001 61.9 34.5001 62.2L34.6001 62.3C35.1001 62.5 35.6001 62.6 36.1001 62.7C36.6001 62.8 37.2001 62.8 37.8001 62.5C38.1001 62.3 38.3001 62 38.4001 61.8C38.5001 61.5 38.5001 61.2 38.5001 61C38.5001 60.5 38.3001 60 38.1001 59.6C38.1001 60.1 38.1001 60.5 37.9001 60.9C37.8001 61.1 37.7001 61.3 37.6001 61.4C37.5001 61.5 37.4001 61.6 37.3001 61.6C37.1001 61.6 36.7001 61.5 36.4001 61.3C36.1001 61.1 35.7001 60.9 35.4001 60.6L35.5001 60.7C35.4001 60.5 35.2001 60.3 35.1001 60C35.0001 59.8 34.9001 59.5 34.8001 59.3C34.7001 58.8 34.7001 58.4 34.8001 58C35.0001 57.6 35.0001 57.2 35.3001 56.7C35.6001 56.3 35.9001 55.8 36.3001 55.4C37.2001 54.5 38.2001 53.7 39.3001 53C40.4001 52.3 41.6001 51.8 43.0001 51.1C43.7001 50.7 44.4001 50.2 45.0001 49.7C45.6001 49.2 46.2001 48.6 46.7001 48L47.1001 47.6L47.4001 47.2L47.6001 47L47.8001 46.7C47.9001 46.5 48.0001 46.3 48.1001 46.2C48.5001 45.5 48.8001 44.8 49.1001 44.1C50.2001 41.2 50.6001 38.2 50.7001 35.2C50.8001 32 50.4001 29 49.3001 26.1Z" fill="#74625C"/>
<path id="Vector_8" d="M37.2 7.40002C36.3 7.40002 35.5 8.10002 35.5 9.10002C35.5 10 36.2 10.8 37.2 10.8C38.2 10.8 38.9 10.1 38.9 9.10002C38.9 8.20002 38.1 7.40002 37.2 7.40002Z" fill="#74625C"/>
<path id="Vector_9" d="M37.1999 8.29999C36.6999 8.29999 36.3999 8.69999 36.3999 9.09999C36.3999 9.59999 36.7999 9.89999 37.1999 9.89999C37.6999 9.89999 37.9999 9.49999 37.9999 9.09999C37.9999 8.59999 37.6999 8.29999 37.1999 8.29999Z" fill="#AC9994"/>
<path id="Vector_10" d="M37.4998 59.2C36.5998 59.2 35.7998 59.9 35.7998 60.9C35.7998 61.8 36.4998 62.6 37.4998 62.6C38.3998 62.6 39.1998 61.9 39.1998 60.9C39.0998 59.9 38.3998 59.2 37.4998 59.2Z" fill="#74625C"/>
<path id="Vector_11" d="M37.5002 59.9C37.0002 59.9 36.7002 60.3 36.7002 60.7C36.7002 61.2 37.1002 61.5 37.5002 61.5C38.0002 61.5 38.3002 61.1 38.3002 60.7C38.3002 60.3 37.9002 59.9 37.5002 59.9Z" fill="#AC9994"/>
</g>
<defs>
<clipPath id="clip0_4_392">
<rect width="70" height="70" fill="white"/>
</clipPath>
</defs>
</svg>
