<svg width="86" height="86" viewBox="0 0 86 86" fill="none" xmlns="http://www.w3.org/2000/svg">
<g id="sagittarius 2">
<path id="Vector" d="M43.0001 9.55554C24.5579 9.55554 9.55566 24.5578 9.55566 43C9.55566 61.4422 24.5579 76.4444 43.0001 76.4444C61.4423 76.4444 76.4445 61.4422 76.4445 43C76.4445 24.5578 61.4423 9.55554 43.0001 9.55554Z" fill="#D5CAE9"/>
<path id="Vector_2" d="M67.08 68.8955L67.1756 68.3222L17.4867 68.5133L17.6778 18.8244L17.1044 18.92L16.9133 69.0867L67.08 68.8955Z" fill="#A82A00"/>
<path id="Vector_3" d="M72.24 64.6911C71.9533 64.4044 71.38 64.2133 70.9022 64.5H70.9978C70.52 64.5955 70.0422 64.9778 69.9467 65.5511C69.7556 65.9333 69.7556 66.22 69.7556 66.4111C69.0867 66.4111 67.4622 65.6466 67.3667 65.4555C66.8889 64.7866 66.6022 64.0222 66.4111 63.1622C66.1244 61.4422 65.8378 59.7222 66.1244 57.8111C66.7933 52.8422 68.7044 47.7778 67.94 44.3378C66.0289 35.1644 58.2889 27.8067 58.1933 27.8067C58.0978 27.8067 50.74 20.0667 41.5667 18.1555C38.1267 17.3911 33.0622 19.3022 28.0933 19.9711C26.2778 20.2578 24.4622 19.9711 22.7422 19.6844C21.8822 19.4933 21.1178 19.2067 20.4489 18.7289C20.2578 18.6333 19.4933 17.0089 19.4933 16.34C19.6844 16.34 19.9711 16.34 20.3533 16.2444C20.9267 16.1489 21.3089 15.6711 21.4044 15.1933V15.2889C21.6911 14.8111 21.5 14.2378 21.2133 13.9511C19.1111 12.1355 16.4356 14.9067 16.2444 17.5822C15.8622 22.4555 20.64 23.5066 24.6533 23.7933C30.1 24.08 38.2222 20.5444 43.86 24.4622C51.7911 29.9089 56.2822 34.4 61.7289 42.3311C65.6467 47.9689 62.0156 56.1866 62.3978 61.5378C62.5889 65.5511 63.64 70.3289 68.6089 69.9466C71.2844 69.4689 74.0556 66.8889 72.24 64.6911Z" fill="#A82A00"/>
<path id="Vector_4" d="M66.4112 66.6978C65.2645 65.5511 64.5956 63.3533 64.4045 60.2C64.309 58.5756 64.5956 56.4733 64.9778 54.3711C65.6467 49.7845 66.5067 44.5289 63.6401 40.5156C60.7734 36.4067 58.289 33.2533 55.5178 30.5778C52.7467 27.8067 49.689 25.3222 45.5801 22.4556C41.4712 19.6844 36.3112 20.4489 31.7245 21.1178C29.6223 21.4044 27.6156 21.7867 25.8956 21.6911C22.6467 21.5 20.5445 20.8311 19.3978 19.6844C18.5378 18.8244 19.3978 14.4289 19.3978 14.4289V15.7667C19.3978 16.6267 20.1623 18.4422 20.5445 18.7289V18.8245L20.6401 18.92C21.5001 19.4933 22.3601 19.8756 23.3156 19.9711C25.2267 20.2578 27.0423 20.5444 28.9534 20.2578C30.6734 20.0667 32.3934 19.6845 34.1134 19.3022C37.1712 18.6333 40.0378 17.9644 42.1401 18.4422C50.1667 20.1622 56.8556 26.4689 58.0978 27.7111L58.289 27.9022L58.4801 28.0933C59.7223 29.3356 66.1245 36.0244 67.749 44.0511C68.2267 46.1533 67.5578 49.02 66.889 52.0778C66.5067 53.7022 66.1245 55.4222 65.9334 57.2378C65.6467 59.1489 65.9334 60.9645 66.2201 62.8756C66.4112 63.8311 66.6978 64.6911 67.2712 65.5511V65.6467L67.3667 65.7422C67.749 66.1245 71.6667 66.8889 71.6667 66.8889C71.6667 66.8889 67.2712 67.4622 66.4112 66.6978Z" fill="#C43100"/>
<path id="Vector_5" d="M18.2511 73.0045L17.3911 69.5645L18.3467 68.5133L19.3022 72.0489L18.2511 73.0045Z" fill="#FF6A38"/>
<path id="Vector_6" d="M19.2068 72.1444L18.2512 68.7044L19.3023 67.6533L20.1623 71.0933L19.2068 72.1444Z" fill="#FDC11C"/>
<path id="Vector_7" d="M20.0666 71.2844L19.1111 67.7489L20.1622 66.7933L21.1178 70.2333L20.0666 71.2844Z" fill="#FF6A38"/>
<path id="Vector_8" d="M20.9267 70.4245L20.0667 66.8889L21.0222 65.9333L21.9778 69.3733L20.9267 70.4245Z" fill="#FDC11C"/>
<path id="Vector_9" d="M21.8823 69.4689L20.9268 66.0289L21.8823 64.9778L22.8379 68.5133L21.8823 69.4689Z" fill="#FF6A38"/>
<path id="Vector_10" d="M22.7422 68.6089L21.7866 65.1689L22.8377 64.1178L23.7933 67.5578L22.7422 68.6089Z" fill="#FDC11C"/>
<path id="Vector_11" d="M23.6023 67.7489L22.6467 64.2133L23.6978 63.2578L24.6534 66.6978L23.6023 67.7489Z" fill="#FF6A38"/>
<path id="Vector_12" d="M24.4623 66.7933L23.6023 63.3533L24.5579 62.3022L25.5134 65.8378L24.4623 66.7933Z" fill="#FDC11C"/>
<path id="Vector_13" d="M25.4177 65.9333L24.4622 62.4933L25.5133 61.4422L26.3733 64.8822L25.4177 65.9333Z" fill="#FF6A38"/>
<path id="Vector_14" d="M26.2778 65.0733L25.3223 61.5378L26.3734 60.5822L27.3289 64.0222L26.2778 65.0733Z" fill="#FDC11C"/>
<path id="Vector_15" d="M12.9956 67.7489L16.4356 68.6089L17.4867 67.6533L13.9512 66.6978L12.9956 67.7489Z" fill="#FF6A38"/>
<path id="Vector_16" d="M13.8555 66.7933L17.2955 67.7489L18.3466 66.6978L14.9066 65.8378L13.8555 66.7933Z" fill="#FDC11C"/>
<path id="Vector_17" d="M14.7156 65.9333L18.2511 66.8889L19.2067 65.8378L15.7667 64.8822L14.7156 65.9333Z" fill="#FF6A38"/>
<path id="Vector_18" d="M15.5754 65.0733L19.111 65.9333L20.0666 64.9778L16.6266 64.0222L15.5754 65.0733Z" fill="#FDC11C"/>
<path id="Vector_19" d="M16.531 64.1178L19.971 65.0733L21.0221 64.1178L17.4866 63.1622L16.531 64.1178Z" fill="#FF6A38"/>
<path id="Vector_20" d="M17.3911 63.2578L20.8311 64.2133L21.8822 63.1622L18.4422 62.2067L17.3911 63.2578Z" fill="#FDC11C"/>
<path id="Vector_21" d="M18.2512 62.3978L21.7868 63.3534L22.7423 62.3022L19.3023 61.3467L18.2512 62.3978Z" fill="#FF6A38"/>
<path id="Vector_22" d="M19.2068 61.5378L22.6468 62.3978L23.6979 61.4422L20.1623 60.4867L19.2068 61.5378Z" fill="#FDC11C"/>
<path id="Vector_23" d="M20.0667 60.5822L23.5067 61.5378L24.5578 60.4867L21.1178 59.6267L20.0667 60.5822Z" fill="#FF6A38"/>
<path id="Vector_24" d="M20.9268 59.7222L24.4623 60.6778L25.4179 59.6267L21.9779 58.6711L20.9268 59.7222Z" fill="#FDC11C"/>
<path id="Vector_25" d="M16.4143 68.6758L62.7651 22.3233L63.7111 23.2693L17.3603 69.6217L16.4143 68.6758Z" fill="#471302"/>
<path id="Vector_26" d="M63.2578 22.7422L62.9712 22.5511L16.6267 68.8956L16.9134 69.0867L63.2578 22.7422Z" fill="#A82A00"/>
<path id="Vector_27" d="M68.1312 17.8689L63.2578 22.7422L65.8378 25.3222L68.1312 17.8689Z" fill="#FDC11C"/>
<path id="Vector_28" d="M68.1311 17.8689L63.2577 22.7422L60.6777 20.1622L68.1311 17.8689Z" fill="#FDC11C"/>
<path id="Vector_29" d="M61.8245 20.4489L68.1311 17.8689L63.5445 22.1689L61.8245 20.4489Z" fill="#FDDD85"/>
</g>
</svg>
