<svg width="70" height="70" viewBox="0 0 70 70" fill="none" xmlns="http://www.w3.org/2000/svg">
<g id="scorpio 1" clip-path="url(#clip0_4_331)">
<path id="Vector" d="M35 70C54.33 70 70 54.33 70 35C70 15.67 54.33 0 35 0C15.67 0 0 15.67 0 35C0 54.33 15.67 70 35 70Z" fill="#E5CFCA"/>
<path id="Vector_2" d="M48.6 22.2C47.8 21.7 46.2 22.6 45 24.3C43.8 26 43.5 27.8 44.2 28.4C45 28.9 46.6 28 47.8 26.3C49 24.5 49.4 22.7 48.6 22.2Z" fill="#7C6A65"/>
<path id="Vector_3" d="M48.3998 22.8C48.3998 22.7 48.3998 22.7 48.3998 22.8C48.2998 22.7 44.8998 22.8 44.7998 26.6V26.7C44.7998 26.7 44.7998 26.8 44.8998 26.8C44.8998 26.8 44.9998 26.8 44.9998 26.7C44.8998 26.7 45.1998 23.5 48.3998 22.8Z" fill="#9F8C87"/>
<path id="Vector_4" d="M48.3998 15.4C48.3998 15.4 45.8998 11.4 40.3998 11.4C39.6998 11.4 39.0998 11.5 38.3998 11.6C38.2998 11.6 38.1998 11.7 38.1998 11.8C38.1998 11.9 38.2998 12 38.3998 12.1C39.5998 12.5 42.3998 13.6 42.9998 15C43.0998 15.2 43.3998 16.1 43.0998 16.4C43.0998 16.4 42.9998 16.6 42.5998 16.6C42.2998 16.4 40.1998 15.4 38.2998 13C38.1998 12.9 38.0998 12.9 37.9998 12.9C37.8998 13 37.7998 13.1 37.8998 13.2C37.9998 13.6 40.3998 22.6 46.1998 23.3H46.2998C46.3998 23.3 48.5998 22.6 49.2998 20.6C49.8998 19.2 49.5998 17.4 48.3998 15.4Z" fill="#887771"/>
<path id="Vector_5" d="M39.9 11.8H39.6C39.5 11.8 39.5 11.9 39.5 11.9C39.5 12 39.6 12 39.6 12C39.7 12 47 12.6 48.8 19.6C48.8 19.7 48.9 19.7 48.9 19.7C49 19.7 49 19.6 49 19.6C49 19.5 48.8 11.8 39.9 11.8Z" fill="#9F8C87"/>
<path id="Vector_6" d="M45.1865 28.4949C45.4546 27.5951 44.0414 26.3799 42.03 25.7807C40.0187 25.1815 38.1709 25.4252 37.9028 26.325C37.6348 27.2248 39.048 28.44 41.0593 29.0392C43.0706 29.6384 44.9185 29.3947 45.1865 28.4949Z" fill="#887771"/>
<path id="Vector_7" d="M44.8002 28.3C44.8002 28.3 42.9002 25.1 38.4002 26.2C38.3002 26.2 38.3002 26.2 38.2002 26.3C38.2002 26.3 38.1002 26.3 38.2002 26.4C38.2002 26.4 38.3002 26.5 38.3002 26.4C38.3002 26.4 42.0002 25.8 44.7002 28.4C44.7002 28.3 44.7002 28.3 44.8002 28.3Z" fill="#9F8C87"/>
<path id="Vector_8" d="M48.1998 28.5C48.1998 28.5 47.9998 28.3 47.6998 28.4V29.9C47.6998 29.9 45.7998 32.9 43.7998 32.6C43.6998 32.6 43.2998 32.9 43.0998 33.2C42.9998 33.5 42.9998 33.9 43.2998 34C43.8998 34.2 45.0998 34.3 46.3998 33.5C46.3998 33.5 48.4998 32.2 48.6998 31C48.7998 31 48.6998 29.1 48.1998 28.5Z" fill="#7C6A65"/>
<path id="Vector_9" d="M44.8999 32.7C47.4999 32.5 47.9999 30.1 47.9999 30.1C46.5999 32.2 44.8999 32.7 44.8999 32.7Z" fill="#9F8C87"/>
<path id="Vector_10" d="M43.4002 32.3L40.3002 29.7C40.0002 29.4 39.5002 29.5 39.2002 29.8C38.9002 30.1 39.0002 30.6 39.3002 30.9L42.4002 33.5C42.7002 33.8 43.2002 33.7 43.5002 33.4C43.8002 33.1 43.8002 32.6 43.4002 32.3Z" fill="#887771"/>
<path id="Vector_11" d="M43.2001 32.4L40.6001 30.2C40.3001 30 40.1001 29.8 40.0001 29.9C39.9001 30 40.1001 30.2 40.4001 30.4L43.0001 32.6C43.3001 32.8 43.5001 33 43.6001 32.9C43.7001 32.9 43.5001 32.6 43.2001 32.4Z" fill="#9F8C87"/>
<path id="Vector_12" d="M48.1002 34.1C48.1002 34.1 47.9002 33.9 47.6002 34V35.5C47.6002 35.5 45.7002 38.4 43.7002 38.2C43.6002 38.2 43.2002 38.5 43.0002 38.8C42.8002 39.1 42.8002 39.5 43.1002 39.6C43.7002 39.8 44.9002 39.9 46.2002 39.1C46.2002 39.1 48.2002 37.8 48.5002 36.7C48.7002 36.6 48.6002 34.7 48.1002 34.1Z" fill="#7C6A65"/>
<path id="Vector_13" d="M44.7998 38.2C47.3998 38 47.7998 35.7 47.7998 35.7C46.4998 37.7 44.7998 38.2 44.7998 38.2Z" fill="#9F8C87"/>
<path id="Vector_14" d="M43.4002 37.9L40.3002 35.3C40.0002 35 39.5002 35.1 39.2002 35.4C38.9002 35.7 39.0002 36.2 39.3002 36.5L42.4002 39.1C42.7002 39.4 43.2002 39.3 43.5002 39C43.7002 38.6 43.7002 38.1 43.4002 37.9Z" fill="#887771"/>
<path id="Vector_15" d="M43.2001 37.9L40.6001 35.7C40.3001 35.5 40.1001 35.3 40.0001 35.4C39.9001 35.5 40.1001 35.7 40.4001 35.9L43.0001 38.1C43.3001 38.3 43.5001 38.5 43.6001 38.4C43.6001 38.4 43.5001 38.2 43.2001 37.9Z" fill="#9F8C87"/>
<path id="Vector_16" d="M47.6998 39.4C47.6998 39.4 47.4998 39.2 47.1998 39.3V40.7C47.1998 40.7 45.3998 43.5 43.4998 43.3C43.3998 43.3 42.9998 43.6 42.8998 43.8C42.7998 44.1 42.6998 44.4 42.9998 44.5C43.5998 44.7 44.6998 44.8 45.8998 44C45.8998 44 47.7998 42.8 48.0998 41.7C48.1998 41.8 48.1998 40 47.6998 39.4Z" fill="#7C6A65"/>
<path id="Vector_17" d="M44.5 43.3C47 43.1 47.4 40.9 47.4 40.9C46.1 42.9 44.5 43.3 44.5 43.3Z" fill="#9F8C87"/>
<path id="Vector_18" d="M43.2002 43L40.2002 40.5C39.9002 40.2 39.4002 40.3 39.2002 40.6C38.9002 40.9 39.0002 41.4 39.3002 41.6L42.3002 44.1C42.6002 44.4 43.1002 44.3 43.3002 44C43.5002 43.7 43.5002 43.3 43.2002 43Z" fill="#887771"/>
<path id="Vector_19" d="M43 43.1L40.5 41C40.2 40.8 40 40.7 39.9 40.7C39.8 40.8 40 41 40.3 41.2L42.8 43.3C43.1 43.5 43.3 43.6 43.4 43.6C43.4 43.5 43.3 43.3 43 43.1Z" fill="#9F8C87"/>
<path id="Vector_20" d="M45.8 46.1C45.8 46.1 45.7 45.9 45.4 45.9L45 47.1C45 47.1 42.7 49 41.1 48.3C41 48.3 40.6 48.4 40.4 48.6C40.2 48.8 40 49.1 40.3 49.3C40.8 49.6 41.7 50.1 43 49.7C43 49.7 45 49.2 45.6 48.3C45.6 48.3 46.1 46.7 45.8 46.1Z" fill="#7C6A65"/>
<path id="Vector_21" d="M41.8999 48.6C44.0999 49.2 45.0999 47.3 45.0999 47.3C43.3999 48.6 41.8999 48.6 41.8999 48.6Z" fill="#9F8C87"/>
<path id="Vector_22" d="M40.7999 47.9L38.8999 44.9C38.6999 44.6 38.2999 44.5 37.9999 44.7C37.6999 44.9 37.5999 45.3 37.7999 45.6L39.6999 48.6C39.8999 48.9 40.2999 49 40.5999 48.8C40.8999 48.6 40.9999 48.2 40.7999 47.9Z" fill="#887771"/>
<path id="Vector_23" d="M40.5998 47.9L38.9998 45.4C38.7998 45.1 38.6998 45 38.5998 45C38.4998 45 38.5998 45.3 38.7998 45.5L40.3998 48C40.5998 48.3 40.6998 48.4 40.7998 48.4C40.8998 48.4 40.7998 48.2 40.5998 47.9Z" fill="#9F8C87"/>
<path id="Vector_24" d="M24.6002 24.3C23.4002 22.6 21.8002 21.6 21.0002 22.2C20.2002 22.7 20.6002 24.6 21.8002 26.3C23.0002 28 24.6002 29 25.4002 28.4C26.1002 27.8 25.8002 26 24.6002 24.3Z" fill="#7C6A65"/>
<path id="Vector_25" d="M24.8001 26.6C24.7001 22.7 21.3001 22.7 21.2001 22.7C21.2001 22.7 21.1001 22.7 21.1001 22.8V22.9C24.2001 23.6 24.6001 26.8 24.6001 26.8C24.6001 26.8 24.6001 26.9 24.7001 26.9C24.7001 26.9 24.8001 26.9 24.8001 26.8V26.6Z" fill="#9F8C87"/>
<path id="Vector_26" d="M31.6002 12.9C31.5002 12.8 31.4002 12.9 31.3002 13C29.4002 15.4 27.4002 16.4 27.0002 16.6C26.6002 16.6 26.5002 16.5 26.5002 16.4C26.3002 16.1 26.4002 15.7 26.6002 15C27.2002 13.7 30.0002 12.4 31.2002 12.1C31.3002 12.1 31.4002 12 31.4002 11.8C31.4002 11.7 31.3002 11.6 31.2002 11.6C30.5002 11.5 29.8002 11.4 29.2002 11.4C23.7002 11.4 21.2002 15.4 21.2002 15.4C20.0002 17.4 19.7002 19.2 20.2002 20.6C21.0002 22.6 23.1002 23.2 23.2002 23.3H23.3002C29.1002 22.6 31.5002 13.6 31.6002 13.2C31.7002 13.1 31.7002 13 31.6002 12.9Z" fill="#887771"/>
<path id="Vector_27" d="M30.0001 11.8H29.7001C20.8001 11.8 20.6001 19.5 20.6001 19.6C20.6001 19.7 20.6001 19.7 20.7001 19.7C20.8001 19.7 20.8001 19.7 20.8001 19.6C22.6001 12.6 29.9001 12 30.0001 12C30.1001 12 30.1001 11.9 30.1001 11.9C30.1001 11.8 30.1001 11.8 30.0001 11.8Z" fill="#9F8C87"/>
<path id="Vector_28" d="M28.5914 29.0208C30.6027 28.4218 32.0161 27.2067 31.7481 26.3069C31.4801 25.4071 29.6323 25.1632 27.6209 25.7622C25.6096 26.3612 24.1962 27.5763 24.4642 28.4761C24.7322 29.3759 26.58 29.6198 28.5914 29.0208Z" fill="#887771"/>
<path id="Vector_29" d="M31.3002 26.2C31.2002 26.2 31.2002 26.2 31.1002 26.1C26.6002 25 24.7002 28.2 24.7002 28.2V28.3H24.8002C27.5002 25.7 31.1002 26.3 31.2002 26.3C31.3002 26.3 31.4002 26.3 31.3002 26.2C31.4002 26.2 31.4002 26.2 31.3002 26.2Z" fill="#9F8C87"/>
<path id="Vector_30" d="M26.4002 33.2C26.2002 32.9 25.8002 32.6 25.7002 32.6C23.7002 32.8 21.8002 29.9 21.8002 29.9V28.4C21.5002 28.3 21.3002 28.5 21.3002 28.5C20.8002 29.1 20.7002 31 20.7002 31C21.0002 32.2 23.0002 33.5 23.0002 33.5C24.3002 34.3 25.5002 34.2 26.1002 34C26.6002 33.9 26.6002 33.5 26.4002 33.2Z" fill="#7C6A65"/>
<path id="Vector_31" d="M21.7002 30.1C21.7002 30.1 22.1002 32.5 24.8002 32.7C24.7002 32.7 23.0002 32.2 21.7002 30.1Z" fill="#9F8C87"/>
<path id="Vector_32" d="M30.4001 29.8C30.1001 29.5 29.6001 29.4 29.3001 29.7L26.2001 32.3C25.9001 32.6 25.8001 33.1 26.1001 33.4C26.4001 33.7 26.9001 33.8 27.2001 33.5L30.3001 30.9C30.6001 30.6 30.6001 30.1 30.4001 29.8Z" fill="#887771"/>
<path id="Vector_33" d="M29.6 29.9C29.5 29.8 29.3 30 29 30.2L26.4 32.4C26.1 32.6 26 32.9 26 32.9C26.1 33 26.3 32.8 26.6 32.6L29.2 30.4C29.5 30.2 29.6 30 29.6 29.9Z" fill="#9F8C87"/>
<path id="Vector_34" d="M26.4998 38.7C26.2998 38.4 25.8998 38.1 25.7998 38.1C23.7998 38.3 21.8998 35.4 21.8998 35.4V33.9C21.5998 33.8 21.3998 34 21.3998 34C20.8998 34.6 20.7998 36.5 20.7998 36.5C21.0998 37.7 23.0998 38.9 23.0998 38.9C24.3998 39.7 25.4998 39.6 26.1998 39.4C26.6998 39.4 26.5998 39 26.4998 38.7Z" fill="#7C6A65"/>
<path id="Vector_35" d="M21.7998 35.7C21.7998 35.7 22.1998 38 24.7998 38.2C24.7998 38.2 23.0998 37.7 21.7998 35.7Z" fill="#9F8C87"/>
<path id="Vector_36" d="M30.4001 35.4C30.1001 35.1 29.7001 35 29.3001 35.3L26.2001 37.9C25.9001 38.2 25.8001 38.6 26.1001 39C26.4001 39.3 26.8001 39.4 27.2001 39.1L30.3001 36.5C30.6001 36.2 30.6001 35.7 30.4001 35.4Z" fill="#887771"/>
<path id="Vector_37" d="M29.6 35.5C29.5 35.4 29.3 35.6 29 35.8L26.4 38C26.1 38.2 26 38.5 26 38.5C26.1 38.6 26.3 38.4 26.6 38.2L29.2 36C29.5 35.8 29.7 35.6 29.6 35.5Z" fill="#9F8C87"/>
<path id="Vector_38" d="M26.5998 43.8C26.4998 43.5 25.9998 43.3 25.9998 43.3C24.0998 43.5 22.2998 40.7 22.2998 40.7V39.3C21.9998 39.2 21.7998 39.4 21.7998 39.4C21.2998 40 21.2998 41.8 21.2998 41.8C21.4998 42.9 23.4998 44.1 23.4998 44.1C24.7998 44.9 25.7998 44.8 26.3998 44.6C26.7998 44.5 26.7998 44.1 26.5998 43.8Z" fill="#7C6A65"/>
<path id="Vector_39" d="M22.2002 40.9C22.2002 40.9 22.6002 43.1 25.1002 43.3C25.1002 43.3 23.5002 42.9 22.2002 40.9Z" fill="#9F8C87"/>
<path id="Vector_40" d="M30.4 40.6C30.1 40.3 29.7 40.3 29.4 40.5L26.4 43C26.1 43.3 26.1 43.7 26.3 44C26.6 44.3 27 44.3 27.3 44.1L30.3 41.6C30.6 41.4 30.6 40.9 30.4 40.6Z" fill="#887771"/>
<path id="Vector_41" d="M29.6001 40.7C29.5001 40.6 29.3001 40.8 29.0001 41L26.5001 43.1C26.2001 43.3 26.1001 43.5 26.1001 43.6C26.2001 43.7 26.4001 43.5 26.7001 43.3L29.2001 41.2C29.5001 41 29.7001 40.8 29.6001 40.7Z" fill="#9F8C87"/>
<path id="Vector_42" d="M29.2 48.5C29 48.3 28.6 48.2 28.5 48.2C26.9 48.9 24.6 47 24.6 47L24.2 45.7C23.9 45.7 23.8 45.9 23.8 45.9C23.5 46.5 24 48.1 24 48.1C24.5 49 26.6 49.5 26.6 49.5C27.9 49.8 28.8 49.4 29.3 49.1C29.6 49 29.4 48.7 29.2 48.5Z" fill="#7C6A65"/>
<path id="Vector_43" d="M24.5 47.3C24.5 47.3 25.5 49.1 27.7 48.6C27.7 48.6 26.2 48.6 24.5 47.3Z" fill="#9F8C87"/>
<path id="Vector_44" d="M31.5002 44.7C31.2002 44.5 30.8002 44.6 30.6002 44.9L28.7002 47.9C28.5002 48.2 28.6002 48.6 28.9002 48.8C29.2002 49 29.6002 48.9 29.8002 48.6L31.7002 45.6C31.9002 45.3 31.8002 44.9 31.5002 44.7Z" fill="#887771"/>
<path id="Vector_45" d="M30.8998 45C30.7998 45 30.5998 45.1 30.4998 45.4L28.9998 47.9C28.7998 48.2 28.7998 48.4 28.7998 48.4C28.8998 48.4 29.0998 48.3 29.1998 48L30.7998 45.5C30.8998 45.3 30.9998 45 30.8998 45Z" fill="#9F8C87"/>
<path id="Vector_46" d="M37.8002 26C37.8002 26 36.9002 24.4 37.2002 22.1C37.2002 22 37.1002 21.8 37.0002 21.8C36.9002 21.8 36.7002 21.8 36.7002 22C36.7002 22 36.1002 23.6 35.0002 23.6H34.7002C33.5002 23.6 33.0002 22 33.0002 22C33.0002 21.9 32.8002 21.8 32.7002 21.8C32.6002 21.8 32.5002 22 32.5002 22.1C32.7002 24.4 31.9002 26 31.9002 26C31.8002 26.1 31.8002 26.2 31.9002 26.3C31.9002 26.4 32.0002 26.4 32.1002 26.4H32.2002L34.8002 25.6H35.0002L37.6002 26.4H37.7002C37.8002 26.4 37.9002 26.4 37.9002 26.3C37.9002 26.2 37.9002 26.1 37.8002 26Z" fill="#887771"/>
<path id="Vector_47" d="M39.3 29.4C38.5 25.9 36.7 24.4 34.8 24.4C32.9 24.4 31.2 25.9 30.3 29.2C29.9 30.6 39.7 30.8 39.3 29.4Z" fill="#AC9994"/>
<path id="Vector_48" d="M39.4002 29.8C38.6002 26.1 31.0002 26.1 30.2002 29.8C29.9002 31.2 29.7002 32.8 29.7002 34.7C29.7002 41.9 32.0002 50.6 34.8002 50.6C37.6002 50.6 39.9002 41.9 39.9002 34.7C39.9002 32.8 39.7002 31.1 39.4002 29.8Z" fill="#887771"/>
<path id="Vector_49" d="M34.8002 27C32.7002 27 30.6002 27.9 30.2002 29.8C29.9002 31.2 29.7002 32.8 29.7002 34.7C29.7002 41.9 32.0002 50.6 34.8002 50.6V27Z" fill="#74625C"/>
<path id="Vector_50" d="M38.9998 34.2C38.4998 34.3 37.8998 34.3 37.4998 34.2C37.2998 34.2 36.9998 34.2 36.7998 34.1C36.5998 34.1 36.2998 34 36.0998 34C35.9998 34 35.8998 34 35.7998 34.1C35.5998 34.2 35.3998 34.4 35.2998 34.6C35.1998 34.7 35.0998 34.8 35.0998 34.9C34.9998 35 34.7998 35 34.6998 34.9C34.5998 34.8 34.4998 34.7 34.4998 34.6L33.9998 34.1C33.8998 34.1 33.7998 34 33.6998 34C33.4998 34 33.1998 34.1 32.9998 34.1C32.7998 34.1 32.4998 34.2 32.2998 34.2C31.7998 34.2 31.2998 34.2 30.7998 34.1V34.2C30.9998 34.3 31.2998 34.4 31.4998 34.5C31.7998 34.6 31.9998 34.6 32.2998 34.7C32.5998 34.7 32.7998 34.8 33.0998 34.8H33.6998C33.8998 34.9 33.9998 35 34.1998 35C34.2998 35 34.3998 35.1 34.5998 35.1C34.6998 35.1 34.8998 35.2 34.9998 35.2C35.0998 35.2 35.2998 35.2 35.3998 35.1C35.4998 35.1 35.5998 35 35.7998 35C35.9998 34.9 36.1998 34.8 36.2998 34.8H36.8998C37.1998 34.8 37.3998 34.8 37.6998 34.7C37.9998 34.7 38.1998 34.6 38.4998 34.5C38.4998 34.5 38.6998 34.4 38.9998 34.2ZM38.5998 38.6C38.0998 38.7 37.5998 38.7 37.1998 38.6C36.9998 38.6 36.6998 38.6 36.4998 38.5C36.2998 38.5 36.0998 38.4 35.7998 38.4C35.6998 38.4 35.5998 38.4 35.5998 38.5C35.3998 38.6 35.2998 38.8 35.0998 38.9C34.9998 39 34.9998 39.1 34.8998 39.2C34.7998 39.3 34.5998 39.3 34.5998 39.2C34.4998 39.1 34.4998 39 34.3998 38.9C34.1998 38.7 34.0998 38.6 33.8998 38.5C33.7998 38.5 33.6998 38.4 33.6998 38.4C33.4998 38.4 33.2998 38.5 32.9998 38.5C32.7998 38.5 32.4998 38.5 32.2998 38.6C31.7998 38.6 31.3998 38.6 30.8998 38.5C31.0998 38.6 31.2998 38.7 31.5998 38.8C31.7998 38.9 32.0998 38.9 32.2998 39C32.4998 39 32.7998 39.1 32.9998 39.1H33.5998C33.6998 39.2 33.8998 39.3 34.0998 39.3C34.1998 39.3 34.2998 39.4 34.3998 39.4C34.4998 39.4 34.5998 39.4 34.7998 39.5C34.8998 39.5 34.9998 39.5 35.1998 39.4C35.2998 39.4 35.3998 39.3 35.4998 39.3C35.6998 39.2 35.7998 39.2 35.9998 39.1H36.5998C36.7998 39.1 37.0998 39.1 37.2998 39C37.4998 39 37.7998 38.9 37.9998 38.8C38.1998 38.8 38.3998 38.8 38.5998 38.6ZM37.8998 43H36.6998C36.4998 43 36.2998 43 36.0998 42.9C35.8998 42.9 35.6998 42.8 35.5998 42.8H35.3998C35.2998 42.9 35.0998 43 34.9998 43.2L34.7998 43.4C34.7998 43.5 34.5998 43.5 34.4998 43.4L34.2998 43.2L33.8998 42.8C33.7998 42.8 33.7998 42.7 33.6998 42.8C33.4998 42.8 33.2998 42.9 33.1998 42.9C32.9998 42.9 32.7998 42.9 32.5998 43H31.4998C31.6998 43.1 31.8998 43.2 31.9998 43.2C32.1998 43.3 32.3998 43.3 32.5998 43.3C32.7998 43.3 32.9998 43.4 33.1998 43.4H33.6998C33.7998 43.5 33.9998 43.5 34.0998 43.6C34.1998 43.6 34.2998 43.7 34.3998 43.7H34.9998C35.0998 43.7 35.1998 43.7 35.2998 43.6C35.3998 43.5 35.5998 43.5 35.6998 43.4H36.1998C36.3998 43.4 36.5998 43.4 36.7998 43.3C36.9998 43.3 37.1998 43.2 37.3998 43.2C37.4998 43.2 37.6998 43.1 37.8998 43ZM36.9998 47.1C36.9998 47 36.9998 47 36.9998 47.1H35.7998C35.6998 47.1 35.4998 47 35.3998 47H35.2998L34.9998 47.3C34.9998 47.3 34.8998 47.4 34.8998 47.5H34.6998C34.6998 47.4 34.5998 47.4 34.5998 47.3L34.2998 47H34.1998C34.0998 47 33.8998 47.1 33.7998 47.1H32.5998C32.6998 47.2 32.8998 47.2 32.9998 47.3C33.0998 47.3 33.2998 47.4 33.3998 47.4H34.0998C34.1998 47.5 34.2998 47.5 34.3998 47.5C34.4998 47.5 34.4998 47.5 34.5998 47.6H34.9998C35.0998 47.6 35.0998 47.6 35.1998 47.5C35.2998 47.5 35.3998 47.4 35.4998 47.4H36.1998C36.2998 47.4 36.4998 47.3 36.5998 47.3C36.6998 47.2 36.8998 47.2 36.9998 47.1Z" fill="#AC9994"/>
<path id="Vector_51" d="M37.6 51.9C36.4 50.3 34.8 49.5 34 50.2C33.2 50.8 33.4 52.6 34.6 54.2C35.8 55.8 37.4 56.6 38.2 55.9C39.1 55.2 38.8 53.5 37.6 51.9Z" fill="#887771"/>
<path id="Vector_52" d="M37.2001 52.2C36.3001 51 35.2001 50.5 34.6001 50.9C34.0001 51.4 37.1001 55.5 37.7001 55.1C38.3001 54.6 38.1001 53.3 37.2001 52.2Z" fill="#AC9994"/>
<path id="Vector_53" d="M42 55.4C40.4 54.3 38.6 54.1 38 55C37.4 55.9 38.3 57.4 39.9 58.5C41.5 59.6 43.3 59.8 43.9 58.9C44.5 58 43.7 56.5 42 55.4Z" fill="#887771"/>
<path id="Vector_54" d="M41.7998 55.8C40.5998 55 39.2998 54.9 38.8998 55.5C38.4998 56.1 42.7998 59 43.1998 58.4C43.5998 57.8 42.9998 56.6 41.7998 55.8Z" fill="#AC9994"/>
<path id="Vector_55" d="M47.1001 55.9C45.1001 55.9 43.6001 56.7 43.6001 57.8C43.6001 58.8 45.2001 59.7 47.1001 59.7C49.1001 59.7 50.6001 58.9 50.6001 57.8C50.6001 56.7 49.0001 55.9 47.1001 55.9Z" fill="#887771"/>
<path id="Vector_56" d="M47.1 56.4C45.7 56.4 44.5 57 44.5 57.8C44.5 58.6 49.7 58.6 49.7 57.8C49.7 57 48.5 56.4 47.1 56.4Z" fill="#AC9994"/>
<path id="Vector_57" d="M55.5002 53.2C54.9002 52.4 53.1002 52.6 51.5002 53.8C49.9002 54.9 49.1002 56.6 49.7002 57.4C50.3002 58.2 52.1002 58 53.7002 56.8C55.3002 55.7 56.1002 54.1 55.5002 53.2Z" fill="#887771"/>
<path id="Vector_58" d="M54.6999 53.8C54.2999 53.2 52.8999 53.4 51.7999 54.2C50.5999 55 50.0999 56.2 50.4999 56.8C50.9999 57.4 55.1999 54.4 54.6999 53.8Z" fill="#AC9994"/>
<path id="Vector_59" d="M56.7999 50.1C56.2999 46.5 53.4999 46.7 53.4999 46.7C53.9999 44.4 55.9999 43.4 55.9999 43.4C53.4999 43.3 52.2999 46.5 52.2999 46.5C50.6999 50.8 53.5999 53.1 53.5999 53.1L55.4999 53.6C57.1999 52.5 56.7999 50.1 56.7999 50.1Z" fill="#887771"/>
<path id="Vector_60" d="M54 47.4C54 47.4 56.5 49 55.4 52.4C55.5 52.4 58.3 49.2 54 47.4Z" fill="#AC9994"/>
</g>
<defs>
<clipPath id="clip0_4_331">
<rect width="70" height="70" fill="white"/>
</clipPath>
</defs>
</svg>
