<svg width="86" height="86" viewBox="0 0 86 86" fill="none" xmlns="http://www.w3.org/2000/svg">
<g id="scorpio 2">
<path id="Vector" d="M43.0001 9.55556C24.5579 9.55556 9.55566 24.5578 9.55566 43C9.55566 61.4422 24.5579 76.4444 43.0001 76.4444C61.4423 76.4444 76.4445 61.4422 76.4445 43C76.4445 24.5578 61.4423 9.55556 43.0001 9.55556Z" fill="#D5CAE9"/>
<path id="Vector_2" d="M25.4178 34.8778C25.9911 35.6422 26.2778 36.12 26.0867 36.8844C26.0867 37.1711 26.1823 37.4578 26.3734 37.3622C29.0489 36.8844 31.2467 36.5978 31.7245 36.3111C31.9156 36.2156 32.2978 36.0244 32.1067 35.6422C31.9156 35.1644 31.7245 35.1644 30.8645 34.9733C29.1445 34.5911 27.4245 34.2089 25.7045 34.2089C25.3223 34.2089 25.1311 34.5911 25.4178 34.8778Z" fill="#C43100"/>
<path id="Vector_3" d="M24.8445 34.4C23.1245 35.8333 22.7423 38.0311 22.7423 40.2289C22.7423 41.9489 22.3601 44.2422 23.4112 45.7711C23.6023 46.0578 23.889 46.1533 24.1757 45.9622C25.5134 44.72 25.9912 42.8089 26.1823 41.0889C26.469 39.2733 26.3734 37.2667 25.9912 35.3556C25.9912 34.9733 25.4179 33.9222 24.8445 34.4Z" fill="#FF6A38"/>
<path id="Vector_4" d="M33.1577 37.1711C33.5399 38.0311 33.731 38.5089 33.5399 39.2733C33.4443 39.56 33.5399 39.8467 33.731 39.8467C36.4066 39.8467 38.6999 39.9422 39.1777 39.7511C39.3688 39.6556 39.751 39.56 39.6554 39.1778C39.5599 38.6044 39.3688 38.6044 38.5088 38.3178C36.8843 37.6489 35.2599 36.98 33.5399 36.6933C33.2532 36.5022 33.0621 36.8844 33.1577 37.1711Z" fill="#C43100"/>
<path id="Vector_5" d="M32.7755 36.5978C30.8644 37.7444 30.1 39.8467 29.7177 41.9489C29.4311 43.5733 28.6666 45.8667 29.3355 47.4911C29.4311 47.7778 29.8133 47.9689 30.1 47.7778C31.6289 46.8222 32.3933 44.9111 32.9666 43.2867C33.54 41.5667 33.8266 39.56 33.8266 37.5533C33.7311 37.3622 33.4444 36.2156 32.7755 36.5978Z" fill="#FF6A38"/>
<path id="Vector_6" d="M40.7066 40.8022C40.9932 41.6622 41.0888 42.2356 40.7066 42.9044C40.611 43.0956 40.611 43.4778 40.8021 43.4778C43.4777 43.9556 45.6755 44.4333 46.1532 44.3378C46.3443 44.3378 46.7266 44.2422 46.7266 43.86C46.7266 43.2867 46.5355 43.2867 45.771 42.8089C44.2421 41.8533 42.8088 40.9933 41.0888 40.3244C40.8977 40.2289 40.611 40.5156 40.7066 40.8022Z" fill="#C43100"/>
<path id="Vector_7" d="M40.4201 40.1333C38.3179 40.8978 37.1712 42.8089 36.5023 44.9111C35.929 46.5356 34.7823 48.6378 35.1646 50.3578C35.2601 50.6444 35.5468 50.9311 35.8334 50.74C37.4579 50.0711 38.6046 48.3511 39.4646 46.8222C40.4201 45.1978 40.9934 43.2867 41.2801 41.3756C41.2801 41.0889 41.089 39.9422 40.4201 40.1333Z" fill="#FF6A38"/>
<path id="Vector_8" d="M61.6334 70.9022C62.0156 70.2333 62.4934 69.7556 62.9712 69.2778C63.9267 69.7556 65.2645 69.2778 65.36 67.94V67.7489C66.22 68.3222 67.6534 68.0356 67.8445 66.7933C68.5134 67.4622 69.7556 67.2711 70.0423 66.4111C71.5712 66.22 73.1 66.1244 74.4378 65.6467C74.82 65.5511 74.7245 65.0733 74.4378 64.8822C72.4312 63.3533 68.3223 63.3533 65.9334 63.3533C62.5889 63.3533 58.7667 63.9267 56.4734 66.6022C53.0334 70.4244 59.1489 75.0111 61.6334 70.9022ZM43.7645 78.26C47.4912 78.1644 51.1223 77.3044 54.8489 76.4444C56.6645 76.0622 57.0467 76.0622 57.4289 75.0111C57.7156 74.2467 57.0467 73.7689 56.5689 73.5778C55.5178 73.0044 50.8356 72.4311 45.1023 71.5711C44.6245 71.4756 44.3378 72.1444 44.4334 72.6222C44.72 74.1511 44.1467 75.2978 43 76.8267C42.6178 77.4956 43 78.26 43.7645 78.26Z" fill="#A82A00"/>
<path id="Vector_9" d="M64.1179 79.98C68.609 79.12 76.5401 72.7178 76.349 67.7489C76.349 67.5578 76.0623 67.4622 75.9668 67.6533C75.6801 67.94 75.489 68.2267 75.2023 68.5133C74.629 68.2267 73.8646 68.3222 73.6734 69.1822V69.5644C73.1957 69.4689 72.7179 69.66 72.5268 70.3289V70.7111C71.8579 70.4244 70.9979 70.6156 70.9023 71.5711C70.8068 71.8578 70.9023 72.1444 71.0934 72.4311C70.9979 72.5267 70.9023 72.5267 70.9023 72.6222C70.329 71.7622 68.7046 71.7622 68.4179 73.1V73.7689C68.1312 73.4822 67.749 73.2911 67.3668 73.1956C66.3157 73.0044 65.2646 73.6733 65.0734 74.7244V75.2022H64.9779C65.169 74.0556 64.4046 73.0044 63.2579 72.8133C62.3023 72.6222 61.3468 73.1956 60.9646 74.0556C60.6779 73.6733 60.4868 73.1 60.2001 72.4311C59.7223 70.9022 59.6268 69.1822 58.289 68.1311C56.6646 66.6978 54.3712 67.3667 53.3201 69.1822C52.0779 71.38 53.7023 75.1067 54.849 77.1133C56.9512 80.1711 60.3912 80.6489 64.1179 79.98ZM44.2423 76.1578C45.0068 72.0489 45.1979 67.8444 44.529 63.9267C43.9557 60.2956 42.9046 56.0911 40.0379 53.5111C39.4646 53.0333 38.7957 53.32 38.4134 53.7978C36.3112 56.9511 37.1712 62.0156 37.1712 65.6467C37.1712 70.2333 38.1268 74.9156 41.7579 77.9733C43.0001 78.9289 44.1468 76.6356 44.2423 76.1578ZM68.8957 49.9756C68.8957 50.74 69.0868 51.4089 69.2779 52.0778C70.329 52.0778 71.3801 53.1289 70.8068 54.3711C70.8068 54.4667 70.7112 54.4667 70.7112 54.4667C71.7623 54.3711 72.909 55.2311 72.5268 56.4733C73.3868 56.1867 74.4379 56.8556 74.3423 57.8111C75.5846 58.6711 76.9223 59.4356 77.8779 60.4867C78.1646 60.7733 77.8779 61.1556 77.5912 61.1556C75.1068 61.6333 71.4757 59.7222 69.2779 58.5756C66.3157 57.0467 63.1623 54.7533 62.3023 51.4089C60.9646 46.44 68.609 45.1978 68.8957 49.9756ZM55.0401 36.2156C55.3268 38.1267 55.3268 39.3689 54.3712 40.6111C54.0846 41.0889 53.989 41.6622 54.4668 41.8533C59.9134 43.6689 64.4046 45.2933 65.5512 45.2933C66.029 45.2933 66.889 45.1978 66.9846 44.3378C67.1757 43.1911 66.6979 43 65.3601 41.8533C62.4934 39.4644 59.6268 37.0756 56.2823 35.1644C55.709 34.8778 54.9446 35.4511 55.0401 36.2156Z" fill="#C43100"/>
<path id="Vector_10" d="M75.2022 43.0956C78.7377 45.8667 82.9422 55.2311 80.4577 59.5311C80.3622 59.7222 80.0755 59.6267 80.0755 59.4356L79.7888 58.2889C79.2155 58.2889 78.5466 57.8111 78.7377 57.0467C78.7377 56.9511 78.8333 56.76 78.9288 56.6644C78.4511 56.4733 78.0688 56.0911 78.2599 55.5178C78.2599 55.4222 78.3555 55.3267 78.4511 55.2311C77.7822 55.1356 77.1133 54.5622 77.3999 53.7978C77.4955 53.5111 77.6866 53.32 77.8777 53.1289C77.8777 53.0333 77.7822 52.9378 77.7822 52.8422C76.8266 53.32 75.3933 52.5556 75.7755 51.3133L76.0622 50.74C75.6799 50.8356 75.2977 50.9311 74.82 50.74C73.7688 50.4533 73.1955 49.3067 73.4822 48.2556C73.4822 48.0644 73.5777 47.9689 73.6733 47.7778C73.6733 47.7778 73.5777 47.7778 73.5777 47.6822C73.1955 48.7333 72.0488 49.4022 70.9977 49.02C70.0422 48.7333 69.4688 47.7778 69.4688 46.9178C69.0866 47.2044 68.6088 47.4911 68.0355 48.0644C66.8888 49.2111 66.0288 50.6444 64.3088 51.0267C62.2066 51.5044 60.4866 49.88 60.3911 47.8733C60.1999 45.3889 63.4488 42.7133 65.3599 41.5667C68.9911 39.56 72.2399 40.7067 75.2022 43.0956ZM54.4666 34.6867C49.7844 35.7378 46.8222 39.4644 44.7199 43.5733C43.0955 46.7267 40.0377 50.8356 40.4199 54.6578C40.5155 55.3267 40.9933 55.9 41.7577 55.7089C45.4844 54.6578 48.2555 51.4089 50.4533 48.4467C52.8422 45.2933 54.6577 41.3756 55.8044 37.3622C55.8999 36.8844 55.9955 34.3044 54.4666 34.6867Z" fill="#FF6A38"/>
<path id="Vector_11" d="M11.7532 53.9889C12.5177 55.6133 13.5688 57.0467 14.5243 58.48C15.0021 59.1489 15.0977 59.34 15.671 59.34C16.0532 59.34 16.1488 58.9578 16.1488 58.6711C16.1488 58.0978 15.5754 55.9956 14.9065 53.32C14.811 53.1289 14.5243 53.1289 14.3332 53.2244C13.7599 53.6067 13.091 53.6067 12.231 53.4156C11.8488 53.32 11.5621 53.7022 11.7532 53.9889Z" fill="#C43100"/>
<path id="Vector_12" d="M12.8044 53.8933C14.7155 53.5111 16.531 52.7467 18.1555 51.7911C19.5888 50.8356 21.2132 49.6889 21.7866 47.9689C21.8821 47.6822 21.5955 47.3956 21.3088 47.3C19.5888 47.0133 17.4866 48.2556 15.9577 48.9244C13.951 49.7844 12.1355 51.0267 11.4666 53.2244C11.371 53.8933 12.5177 53.9889 12.8044 53.8933Z" fill="#FF6A38"/>
<path id="Vector_13" d="M17.8689 61.4422C18.92 62.8756 20.1623 64.1178 21.4045 65.36C21.9778 65.9333 22.0734 66.1244 22.6467 66.0289C23.0289 65.9333 23.0289 65.5511 23.0289 65.36C22.9334 64.6911 21.9778 62.6844 20.9267 60.2C20.8312 60.0089 20.5445 60.0089 20.3534 60.2C19.78 60.6778 19.2067 60.7733 18.3467 60.6778C17.9645 60.7733 17.6778 61.06 17.8689 61.4422Z" fill="#C43100"/>
<path id="Vector_14" d="M18.9199 61.1556C20.7355 60.3911 22.4555 59.34 23.7932 58.0978C25.0355 56.9511 26.4688 55.4222 26.7555 53.7022C26.851 53.32 26.4688 53.1289 26.1821 53.1289C24.3666 53.1289 22.6466 54.7533 21.2132 55.7089C19.3977 56.8556 17.8688 58.48 17.5821 60.6778C17.4866 61.3467 18.7288 61.1556 18.9199 61.1556Z" fill="#FF6A38"/>
<path id="Vector_15" d="M26.2778 67.1756C27.52 68.4178 28.9533 69.3733 30.3867 70.4244C31.0556 70.9022 31.2467 71.0933 31.7245 70.9022C32.1067 70.7111 32.0111 70.3289 31.9156 70.1378C31.82 69.66 30.4822 67.7489 28.9533 65.5511C28.8578 65.36 28.5711 65.4556 28.38 65.6467C27.9022 66.22 27.3289 66.4111 26.4689 66.5067C26.1822 66.5067 25.9911 66.8889 26.2778 67.1756Z" fill="#C43100"/>
<path id="Vector_16" d="M27.2333 66.6978C28.8578 65.6467 30.3867 64.3089 31.5333 62.8756C32.5844 61.5378 33.7311 59.8178 33.6355 58.0022C33.6355 57.62 33.2533 57.5244 32.9667 57.5244C31.2467 57.8111 29.7178 59.7222 28.5711 60.8689C27.0422 62.3978 25.7044 64.2133 25.8 66.4111C25.8955 67.1756 27.0422 66.7933 27.2333 66.6978Z" fill="#FF6A38"/>
<path id="Vector_17" d="M7.16657 21.9778C4.39546 24.1756 4.01323 28.1889 6.21101 30.96C8.40879 33.7311 12.4221 34.1133 15.1932 31.9156C17.9643 29.7178 18.3466 25.7044 16.1488 22.9333C13.8555 20.1622 9.84212 19.78 7.16657 21.9778Z" fill="#A82A00"/>
<path id="Vector_18" d="M9.36454 30.4822C8.6001 30.1956 7.83565 29.6222 7.26232 28.9533C6.40232 27.9022 6.0201 26.5644 6.11565 25.2267C6.21121 23.8889 6.8801 22.6467 8.02676 21.7867C9.4601 20.64 11.3712 20.3533 13.0912 21.0222C13.9512 21.3089 14.6201 21.8822 15.1934 22.5511C16.0534 23.6022 16.4357 24.94 16.3401 26.2778C16.149 27.6156 15.5757 28.8578 14.429 29.7178C13.7271 30.2803 12.889 30.6472 11.9996 30.7815C11.1102 30.9157 10.2012 30.8125 9.36454 30.4822Z" fill="#C43100"/>
<path id="Vector_19" d="M18.7288 39.9422C20.0666 36.5978 18.3466 32.7756 15.0022 31.4378C11.6577 30.1 7.83551 31.82 6.49773 35.1644C5.15995 38.5089 6.87995 42.3311 10.2244 43.6689C13.6644 45.0067 17.4866 43.2867 18.7288 39.9422Z" fill="#A82A00"/>
<path id="Vector_20" d="M10.7977 41.4711C8.02656 40.42 6.59322 37.2667 7.64433 34.4956C8.69545 31.7244 11.8488 30.3867 14.6199 31.4378C17.391 32.4889 18.8243 35.6422 17.6777 38.4133C16.6266 41.1844 13.5688 42.5222 10.7977 41.4711Z" fill="#C43100"/>
<path id="Vector_21" d="M13.2821 12.4222C10.511 13.6644 9.17326 17.0089 10.4155 19.78C11.6577 22.5511 15.0022 23.8889 17.7733 22.6467C20.5444 21.4044 21.8822 18.06 20.6399 15.2889C19.3022 12.4222 16.0533 11.0844 13.2821 12.4222Z" fill="#A82A00"/>
<path id="Vector_22" d="M14.0466 21.0222C12.8999 20.5444 11.9443 19.6844 11.4666 18.5378C10.9888 17.3911 10.8932 16.1489 11.371 15.0022C11.8488 13.8556 12.7088 12.9 13.8554 12.4222C15.0021 11.9444 16.2443 11.8489 17.391 12.3267C18.5377 12.8044 19.4932 13.6644 19.971 14.8111C20.4488 15.9578 20.5443 17.2 20.0666 18.3467C19.5888 19.4933 18.7288 20.4489 17.5821 20.9267C16.531 21.5 15.1932 21.5 14.0466 21.0222Z" fill="#C43100"/>
<path id="Vector_23" d="M49.2111 56.1867C47.5867 60.4867 41.28 62.0156 28.6667 57.2378C16.0534 52.46 12.4223 47.1089 14.0467 42.8089C15.6711 38.5089 21.9778 36.98 34.5911 41.7578C47.2045 46.5356 50.8356 51.8867 49.2111 56.1867Z" fill="#A82A00"/>
<path id="Vector_24" d="M33.9223 54.9444C32.0111 54.5622 29.9089 53.8933 27.7111 53.0333C18.7289 49.5933 14.3334 45.58 15.7667 41.9489C16.8178 39.2733 20.3534 38.5089 25.8 39.6556C27.7111 40.0378 29.8134 40.7067 32.0111 41.5667C40.9934 45.0067 45.3889 49.02 43.9556 52.6511C42.9045 55.3267 39.3689 56.0911 33.9223 54.9444Z" fill="#C43100"/>
<path id="Vector_25" d="M21.8822 7.16667C19.0155 7.64444 17.1044 10.32 17.5822 13.0911C18.06 15.9578 20.7355 17.8689 23.5066 17.3911C26.3733 16.9133 28.2844 14.2378 27.8066 11.4667C27.3289 8.69556 24.6533 6.68889 21.8822 7.16667Z" fill="#A82A00"/>
<path id="Vector_26" d="M21.4045 14.7156C20.1623 14.2378 19.2067 13.0911 18.92 11.6578C18.7289 10.6067 19.0156 9.65111 19.5889 8.79111C20.1623 7.93111 21.1178 7.45333 22.0734 7.26222C22.7423 7.16667 23.4112 7.26222 24.08 7.45333C25.3223 7.93111 26.2778 9.07778 26.4689 10.5111C26.66 11.5622 26.3734 12.5178 25.8 13.3778C25.2267 14.2378 24.2712 14.8111 23.22 14.9067C22.6467 15.0022 21.9778 14.9067 21.4045 14.7156Z" fill="#C43100"/>
<path id="Vector_27" d="M31.3421 5.82889C28.7621 5.54222 26.3733 7.45333 26.0866 10.0333C25.7999 12.6133 27.711 15.0022 30.291 15.2889C32.871 15.5756 35.2599 13.6644 35.5466 11.0844C35.8333 8.40889 34.0177 6.11556 31.3421 5.82889Z" fill="#A82A00"/>
<path id="Vector_28" d="M29.7177 12.4222C28.2844 11.8489 27.4244 10.4156 27.5199 8.88667C27.6155 8.02667 28.0932 7.16667 28.7621 6.59333C29.431 6.02 30.3866 5.73333 31.2466 5.82889C31.5332 5.82889 31.8199 5.92444 32.1066 6.02C33.5399 6.59333 34.3999 8.02667 34.3044 9.55555C34.2088 10.4156 33.731 11.2756 33.0621 11.8489C32.3932 12.4222 31.5332 12.7089 30.5777 12.6133C30.291 12.6133 30.0044 12.5178 29.7177 12.4222Z" fill="#C43100"/>
<path id="Vector_29" d="M40.2288 7.93111C37.0755 7.35778 34.0177 9.46 33.4444 12.6133C32.871 15.7667 33.8266 19.8756 37.9355 21.5C41.0888 22.8378 49.0199 24.08 48.1599 23.4111C42.9044 19.3022 43.3821 16.5311 43.7644 14.5244C44.3377 11.3711 43.3821 8.50444 40.2288 7.93111Z" fill="#C43100"/>
<path id="Vector_30" d="M44.051 20.5444C41.6621 20.0667 39.4643 19.4933 38.2221 19.0156C34.7821 17.5822 34.1132 14.1422 34.591 11.5622C35.0688 9.17333 37.3621 7.54889 39.8466 8.02667C40.8977 8.21778 41.6621 8.79111 42.0443 9.65111C42.4266 10.5111 42.5221 11.7533 42.2355 13.0911C41.8532 15.1933 41.6621 17.6778 44.2421 20.64C44.2421 20.5444 44.1466 20.5444 44.051 20.5444Z" fill="#FF6A38"/>
<path id="Vector_31" d="M21.5955 41.9489C22.5511 41.7578 23.3155 41.1844 23.22 40.6111C23.1244 40.0378 22.2644 39.7511 21.2133 39.8467C20.2577 40.0378 19.4933 40.6111 19.5889 41.1844C19.6844 41.8533 20.5444 42.14 21.5955 41.9489ZM11.6577 34.1133C12.7089 34.1133 13.5689 33.6356 13.5689 32.9667C13.5689 32.3933 12.7089 31.9156 11.6577 31.9156C10.6066 31.9156 9.74664 32.3933 9.74664 33.0622C9.74664 33.6356 10.6066 34.1133 11.6577 34.1133ZM9.74664 23.9844C10.7022 23.9844 11.4666 23.5067 11.3711 23.0289C11.3711 22.4556 10.6066 22.0733 9.65108 22.0733C8.69553 22.0733 7.93108 22.5511 8.02664 23.1244C8.02664 23.6022 8.79108 23.9844 9.74664 23.9844ZM15.1933 14.9067C16.0533 14.9067 16.8177 14.4289 16.8177 13.9511C16.8177 13.4733 16.0533 12.9956 15.1933 12.9956C14.3333 12.9956 13.5689 13.4733 13.5689 13.9511C13.5689 14.5244 14.3333 14.9067 15.1933 14.9067ZM23.0289 9.74667C23.8889 9.74667 24.6533 9.26889 24.6533 8.79111C24.6533 8.31334 23.8889 7.83556 23.0289 7.83556C22.1689 7.83556 21.4044 8.31334 21.4044 8.79111C21.4044 9.26889 22.1689 9.74667 23.0289 9.74667ZM31.1511 8.40889C32.0111 8.40889 32.7755 7.93111 32.7755 7.45334C32.7755 6.97556 32.0111 6.49778 31.1511 6.49778C30.2911 6.49778 29.5266 6.97556 29.5266 7.45334C29.5266 7.93111 30.1955 8.40889 31.1511 8.40889ZM38.7 11.0844C39.8466 10.8933 40.6111 10.1289 40.5155 9.46C40.42 8.79111 39.3689 8.40889 38.2222 8.69556C37.0755 8.88667 36.3111 9.65111 36.4066 10.32C36.5022 10.8933 37.5533 11.2756 38.7 11.0844ZM25.1311 41.28C25.6089 41.4711 26.1822 41.3756 26.2777 40.9933C26.4689 40.6111 26.1822 40.1333 25.6089 39.9422C25.1311 39.7511 24.5577 39.8467 24.4622 40.2289C24.3666 40.6111 24.6533 41.0889 25.1311 41.28Z" fill="#FDDD85"/>
<path id="Vector_32" d="M52.3645 56.3778C53.7023 56.9511 55.2311 56.3778 55.9 55.04C56.4734 53.7022 55.9 52.1733 54.5623 51.5044C53.2245 50.9311 47.1089 49.4022 46.5356 50.74C45.9623 52.1733 51.0267 55.8044 52.3645 56.3778ZM49.4023 63.0667C50.74 63.64 52.2689 63.0667 52.9378 61.7289C53.5111 60.3911 52.9378 58.8622 51.6 58.1933C50.2623 57.62 44.1467 56.0911 43.5734 57.4289C43 58.7667 48.0645 62.3978 49.4023 63.0667Z" fill="#471302"/>
<path id="Vector_33" d="M51.4088 60.5822C51.6955 61.1556 52.1733 61.4422 52.46 61.3467C52.7466 61.1555 52.7466 60.5822 52.46 60.1044C52.1733 59.5311 51.6955 59.2444 51.4088 59.34C51.1222 59.5311 51.1222 60.0089 51.4088 60.5822ZM54.3711 53.8933C54.6577 54.4667 55.1355 54.7533 55.4222 54.6578C55.7088 54.4667 55.7088 53.8933 55.4222 53.4156C55.1355 52.8422 54.6577 52.5555 54.3711 52.6511C54.0844 52.7467 54.0844 53.32 54.3711 53.8933Z" fill="#FDDD85"/>
</g>
</svg>
