<svg width="70" height="70" viewBox="0 0 70 70" fill="none" xmlns="http://www.w3.org/2000/svg">
<g id="taurus 1" clip-path="url(#clip0_2_42)">
<path id="Vector" d="M35 0C15.7 0 0 15.7 0 35C0 54.3 15.7 70 35 70C54.3 70 70 54.3 70 35C70 15.7 54.3 0 35 0Z" fill="#E5CFCA"/>
<path id="Vector_2" d="M23.6001 28.1C21.4001 28.8 19.2001 28.1 17.9001 27.2C16.6001 26.3 15.0001 23.9 15.3001 20.5C16.0001 14.4 21.9001 14.4 21.9001 14.4C20.0001 12.8 17.4001 13.2 16.4001 13.6C10.5001 15.8 9.30013 22.3 9.30013 22.3C8.00013 33.2 22.8001 34.3 22.8001 34.3C30.6001 34 31.3001 25.5 31.3001 25.5C28.0001 25.7 23.6001 28.1 23.6001 28.1Z" fill="#887771"/>
<path id="Vector_3" d="M23.6002 28.1C13.6002 29.5 9.40022 22.3 9.40022 22.3C8.10022 33.2 22.9002 34.3 22.9002 34.3C30.7002 34 31.4002 25.5 31.4002 25.5C28.0002 25.7 23.6002 28.1 23.6002 28.1Z" fill="#74625C"/>
<path id="Vector_4" d="M60.3998 22.3C60.3998 22.3 59.1998 15.8 53.2998 13.6C52.2998 13.2 49.6998 12.9 47.7998 14.4C47.7998 14.4 53.6998 14.4 54.3998 20.5C54.7998 23.9 53.1998 26.2 51.7998 27.2C50.4998 28.1 48.2998 28.8 46.0998 28.1C46.0998 28.1 41.6998 25.7 38.2998 25.5C38.2998 25.5 39.0998 34.1 46.7998 34.3C46.8998 34.3 61.6998 33.2 60.3998 22.3Z" fill="#887771"/>
<path id="Vector_5" d="M60.3999 22.3C60.3999 22.3 56.1999 29.5 46.1999 28.1C46.1999 28.1 41.7999 25.7 38.3999 25.5C38.3999 25.5 39.1999 34.1 46.8999 34.3C46.8999 34.3 61.6999 33.2 60.3999 22.3Z" fill="#74625C"/>
<path id="Vector_6" d="M51.7998 34.4C48.4998 34 45.2998 36 45.2998 37.1C45.2998 38.1 46.4998 40.3 50.8998 41.1C54.1998 41.5 57.3998 38.2 57.3998 37.1C57.3998 36.1 55.0998 34.9 51.7998 34.4Z" fill="#9F8C87"/>
<path id="Vector_7" d="M50.8999 35.7C48.8999 35.4 46.8999 36.7 46.8999 37.3C46.8999 37.9 47.5999 39.3 50.2999 39.7C52.2999 40 54.2999 37.9 54.2999 37.3C54.2999 36.7 52.8999 36 50.8999 35.7Z" fill="#7B6E69"/>
<path id="Vector_8" d="M18.4999 34.4C15.1999 34.8 12.8999 36 12.8999 37.1C12.8999 38.1 16.0999 41.5 19.3999 41.1C23.8999 40.4 24.9999 38.2 24.9999 37.1C24.9999 36.1 21.7999 34 18.4999 34.4Z" fill="#9F8C87"/>
<path id="Vector_9" d="M19.4 35.7C17.4 36 16 36.7 16 37.3C16 37.9 17.9 40 20 39.7C22.7 39.3 23.4 37.9 23.4 37.3C23.4 36.7 21.4 35.5 19.4 35.7Z" fill="#7B6E69"/>
<path id="Vector_10" d="M47.0001 36.2C47.0001 36.2 48.5001 33.1 47.6001 31.6C47.6001 31.6 46.5001 30.7 44.9001 30.5C44.9001 30.5 39.3001 27.3 35.1001 27.3C30.9001 27.3 25.3001 30.5 25.3001 30.5C23.7001 30.7 22.6001 31.6 22.6001 31.6C21.7001 33.1 23.2001 36.2 23.2001 36.2C23.5001 37.4 22.9001 40 22.9001 40C22.2001 44.5 27.8001 55.2 27.8001 55.2C28.3001 56.1 30.4001 62 35.1001 62C39.8001 62 41.9001 56 42.4001 55.2C42.4001 55.2 48.0001 44.5 47.3001 40C47.3001 40 46.7001 37.4 47.0001 36.2Z" fill="#B8ADAA"/>
<path id="Vector_11" d="M44.8998 30.5C44.8998 30.5 39.2998 27.3 35.0998 27.3C30.8998 27.3 25.2998 30.5 25.2998 30.5C24.3998 30.5 27.8998 38.2 27.8998 38.2L29.6998 50.9C30.1998 51.8 30.2998 62 35.0998 62C39.8998 62 40.1998 51.5 40.6998 50.7L42.2998 38.3C42.2998 38.2 45.5998 30.5 44.8998 30.5Z" fill="#AC9994"/>
<path id="Vector_12" d="M25.4002 30.5C24.6002 30.5 28.0002 38.2 28.0002 38.2L29.8002 50.9C30.3002 51.8 30.4002 62 35.2002 62V27.3C31.0002 27.3 25.4002 30.5 25.4002 30.5Z" fill="#9F8C87"/>
<path id="Vector_13" d="M35.0002 50.3C27.3002 50.3 27.2002 53.4 27.2002 53.4C27.4002 55.2 27.6002 57.3 27.9002 58C28.2002 58.8 30.3002 62.2 35.2002 62.2C40.1002 62.2 42.1002 59.1 42.5002 58C42.9002 56.9 42.9002 55.2 43.2002 53.4C43.1002 53.4 42.7002 50.3 35.0002 50.3Z" fill="#A0928D"/>
<path id="Vector_14" d="M30.4999 53.8C28.4999 60.2 34.1999 58.6 34.1999 58.6C31.7999 57.8 30.4999 53.8 30.4999 53.8ZM40.1999 53.8C40.1999 53.8 38.8999 57.8 36.4999 58.6C36.3999 58.6 42.0999 60.2 40.1999 53.8ZM25.8999 33.1L22.3999 33C22.3999 33 22.1999 33.3 22.3999 34.5C22.5999 35.8 23.2999 36.1 23.2999 36.1L28.0999 38.1L28.3999 37.6L25.8999 33.1ZM47.8999 33L44.3999 33.1L41.9999 37.7L42.2999 38.2L47.0999 36.2C47.0999 36.2 47.7999 35.9 47.9999 34.6C48.0999 33.3 47.8999 33 47.8999 33Z" fill="#7C6A65"/>
<path id="Vector_15" d="M47.8999 33C47.9999 33.2 47.9999 33.4 47.9999 33.6C47.9999 33.1 47.8999 33 47.8999 33Z" fill="#494949"/>
<path id="Vector_16" d="M44.6 27.8C43.4 26.4 39.5 25.2 35 25.2C30.9 25.2 27.2 25.8 25.7 27.4C25.2 28 25 30.8 25 30.8C25 32.5 45.1 32.5 45.1 30.8C45 30.8 44.9 28.1 44.6 27.8Z" fill="#B2A39F"/>
<path id="Vector_17" d="M35.1 25.2C31 25.2 27.3 25.8 25.8 27.4C25.2 28 25 30.8 25 30.8C25 31.7 30.1 32.1 35.2 32.1L35.1 25.2Z" fill="#8C7F7A"/>
</g>
<defs>
<clipPath id="clip0_2_42">
<rect width="70" height="70" fill="white"/>
</clipPath>
</defs>
</svg>
