<svg width="86" height="86" viewBox="0 0 86 86" fill="none" xmlns="http://www.w3.org/2000/svg">
<g id="taurus 2">
<path id="Vector" d="M43.0001 9.55554C24.5579 9.55554 9.55566 24.5578 9.55566 43C9.55566 61.4422 24.5579 76.4444 43.0001 76.4444C61.4423 76.4444 76.4445 61.4422 76.4445 43C76.4445 24.5578 61.4423 9.55554 43.0001 9.55554Z" fill="#D5CAE9"/>
<path id="Vector_2" d="M33.9223 32.7756C33.4446 30.5778 28.7623 29.7178 23.5068 30.8645C18.2512 32.0111 14.429 34.7822 14.9068 37.0756C15.3846 39.2734 20.0668 40.1334 25.3223 38.9867C30.5779 37.84 34.4001 35.0689 33.9223 32.7756ZM52.0779 32.7756C52.5557 30.5778 57.2379 29.7178 62.4934 30.8645C67.749 32.0111 71.5712 34.7822 71.0934 37.0756C70.6157 39.2734 65.9334 40.1334 60.6779 38.9867C55.4223 37.84 51.6001 35.0689 52.0779 32.7756Z" fill="#FF6A38"/>
<path id="Vector_3" d="M24.0801 32.68C22.7423 32.2978 20.9267 32.8711 19.6845 33.3489C18.2512 33.8267 16.9134 34.8778 16.3401 36.4066C16.1489 36.8844 16.5312 37.3622 17.0089 37.5533C17.1045 37.5533 17.2001 37.6489 17.2956 37.6489C18.2512 38.0311 18.7289 36.7889 18.2512 36.12C18.5378 35.0689 19.7801 34.4955 20.6401 34.0178C21.7867 33.4444 22.8378 33.3489 24.0801 33.0622C24.2712 32.9666 24.2712 32.68 24.0801 32.68ZM61.8245 32.68C63.1623 32.2978 64.9778 32.8711 66.2201 33.3489C67.6534 33.8267 68.9912 34.8778 69.5645 36.4066C69.7556 36.8844 69.3734 37.3622 68.8956 37.5533C68.8001 37.5533 68.7045 37.6489 68.6089 37.6489C67.6534 38.0311 67.1756 36.7889 67.6534 36.12C67.3667 35.0689 66.1245 34.4955 65.2645 34.0178C64.1178 33.4444 63.0667 33.3489 61.8245 33.0622C61.6334 32.9666 61.6334 32.68 61.8245 32.68ZM60.5823 29.7178C59.7223 27.6155 58.3845 25.7044 58.2889 23.5067V23.22C58.2889 22.9333 58.2889 22.7422 58.3845 22.4555C58.48 21.9778 58.0023 21.6911 57.6201 21.6911C55.5178 19.6844 30.3867 19.6844 28.2845 21.6911C27.9023 21.5955 27.4245 21.8822 27.5201 22.4555C27.5201 22.7422 27.6156 22.9333 27.6156 23.22V23.5067C27.6156 25.8 26.1823 27.6155 25.3223 29.7178C24.2712 32.2022 24.7489 34.9733 25.2267 37.5533C26.0867 42.5222 26.2778 40.42 25.9912 45.4844C25.8956 47.3955 25.9912 49.4978 26.8512 51.2178C27.8067 53.32 29.6223 54.5622 31.3423 56.0911C34.3045 58.6711 34.4001 67.6533 38.7001 68.7044C41.0889 69.2778 44.6245 69.2778 47.0134 68.7044C51.3134 67.6533 51.4089 58.6711 54.3712 56.0911C56.0912 54.6578 57.9067 53.32 58.8623 51.2178C59.7223 49.4022 59.8178 47.3955 59.7223 45.4844C59.5312 40.42 59.6267 42.6178 60.4867 37.5533C61.1556 34.9733 61.6334 32.2978 60.5823 29.7178Z" fill="#C43100"/>
<path id="Vector_4" d="M60.5822 29.7178C59.7222 27.6155 58.3844 25.7044 58.2889 23.5066V23.22C58.2889 22.9333 58.2889 22.7422 58.3844 22.4555C58.48 21.9778 58.0022 21.6911 57.62 21.6911C56.76 20.8311 51.4089 20.3533 45.4844 20.2578H40.3244C34.4955 20.3533 29.1444 20.8311 28.1889 21.6911C27.8067 21.5955 27.3289 21.8822 27.4244 22.4555C27.4244 22.7422 27.52 22.9333 27.52 23.22V23.5066C27.52 25.8 26.0867 27.6155 25.2267 29.7178C24.1755 32.2022 24.6533 34.9733 25.1311 37.5533C25.1311 37.7444 25.2267 37.9355 25.2267 38.2222C26.8511 40.2289 29.9089 42.3311 31.6289 44.0511C34.4 46.7266 36.0244 48.16 36.98 51.9822C37.9355 55.7089 37.5533 59.7222 36.6933 63.4489C36.5022 64.3089 36.12 65.1689 35.7378 66.0289C36.5022 67.3666 37.3622 68.4178 38.7 68.8C41.0889 69.3733 44.6244 69.3733 47.0133 68.8C48.3511 68.5133 49.2111 67.4622 49.9755 66.0289C49.5933 65.1689 49.2111 64.3089 49.02 63.4489C48.16 59.7222 47.7778 55.8044 48.7333 51.9822C49.6889 48.16 51.3133 46.7266 54.0844 44.0511C55.9 42.3311 58.8622 40.2289 60.4867 38.2222C60.4867 38.0311 60.5822 37.84 60.5822 37.5533C61.1555 34.9733 61.6333 32.2978 60.5822 29.7178Z" fill="#A82A00"/>
<path id="Vector_5" d="M6.4978 17.4867C6.97557 18.5378 12.8045 21.8822 15.1934 22.1689C17.6778 22.5511 23.5067 22.1689 27.1378 21.7867C30.7689 21.4045 31.4378 29.8133 28.8578 29.9089C26.2778 30.0045 20.4489 30.6733 13.5689 27.6156C6.78446 24.6533 5.06446 18.5378 4.87335 17.4867C4.39557 15.9578 6.02002 16.34 6.4978 17.4867ZM79.5022 17.4867C79.0245 18.5378 73.1956 21.8822 70.8067 22.1689C68.3222 22.5511 62.4934 22.1689 58.9578 21.7867C55.3267 21.4045 54.6578 29.8133 57.2378 29.9089C59.8178 30.0045 65.6467 30.6733 72.5267 27.6156C79.3111 24.6533 81.0311 18.5378 81.2222 17.4867C81.6045 15.9578 79.98 16.34 79.5022 17.4867Z" fill="#FDC11C"/>
<path id="Vector_6" d="M58.8622 23.9844C62.4933 24.3666 68.3222 24.7489 70.7111 24.3666C73.1956 23.9844 78.9289 20.7355 79.4067 19.6844C79.6933 19.0155 80.3622 18.6333 80.7445 18.7289C80.9356 18.2511 81.0311 17.7733 81.0311 17.5822C81.5089 16.0533 79.8845 16.5311 79.4067 17.5822C78.9289 18.6333 73.1 21.9778 70.7111 22.2644C68.2267 22.6466 62.3978 22.2644 58.8622 21.8822C56.3778 21.5955 55.3267 25.5133 55.7089 27.9978C55.9956 25.8 57.0467 23.7933 58.8622 23.9844ZM27.1378 21.7866C23.5067 22.1689 17.6778 22.5511 15.1934 22.1689C12.7089 21.7866 6.97557 18.5378 6.4978 17.4866C6.02002 16.4355 4.39557 15.9578 4.87335 17.4866C4.87335 17.6778 4.96891 18.06 5.16002 18.6333C5.54224 18.5378 6.21113 19.0155 6.4978 19.5889C6.97557 20.64 12.8045 23.9844 15.1934 24.2711C17.6778 24.6533 23.5067 24.2711 27.1378 23.8889C28.9534 23.6978 30.0045 25.8 30.2911 27.9022C30.6734 25.4178 29.6222 21.5955 27.1378 21.7866Z" fill="#FDDD85"/>
<path id="Vector_7" d="M33.1578 37.4578C33.1578 34.8778 31.82 32.8711 30.1 32.8711C28.4756 32.8711 27.0422 34.8778 27.0422 37.4578C27.0422 40.0378 28.38 42.0444 30.1 42.0444C31.7245 42.14 33.1578 40.0378 33.1578 37.4578Z" fill="#471302"/>
<path id="Vector_8" d="M28.6667 38.0311C28.5711 37.5534 28.2845 37.1711 27.9978 37.1711C27.7111 37.1711 27.6156 37.6489 27.7111 38.1267C27.8067 38.6045 28.0933 38.9867 28.38 38.9867C28.6667 38.8911 28.7622 38.5089 28.6667 38.0311ZM29.0489 39.7511C29.0489 39.56 28.8578 39.4645 28.6667 39.56C28.4756 39.56 28.38 39.7511 28.38 39.9423C28.38 40.1334 28.5711 40.2289 28.7622 40.1334C28.9533 40.1334 29.0489 39.9423 29.0489 39.7511Z" fill="#FDDD85"/>
<path id="Vector_9" d="M58.9578 37.4578C58.9578 34.8778 57.6201 32.8711 55.9001 32.8711C54.2756 32.8711 52.8423 34.8778 52.8423 37.4578C52.8423 40.0378 54.1801 42.0444 55.9001 42.0444C57.5245 42.14 58.9578 40.0378 58.9578 37.4578Z" fill="#471302"/>
<path id="Vector_10" d="M54.6578 39.4645C54.3711 39.0822 53.9889 38.8911 53.7022 38.9867C53.5111 39.1778 53.6067 39.56 53.8933 40.0378C54.18 40.42 54.5622 40.6111 54.8489 40.5156C55.04 40.3245 54.9444 39.8467 54.6578 39.4645ZM55.7089 40.8978C55.6133 40.8022 55.4222 40.7067 55.2311 40.8022C55.1355 40.8978 55.04 41.0889 55.1355 41.1845C55.2311 41.28 55.4222 41.3756 55.6133 41.28C55.8044 41.1845 55.8044 40.9934 55.7089 40.8978Z" fill="#FDDD85"/>
<path id="Vector_11" d="M59.6266 28.7622C59.3399 27.3289 57.6199 23.7933 57.811 22.2645C57.811 22.1689 57.9066 21.7867 57.9066 21.6911H57.6199C56.5688 20.7356 49.8799 20.1622 43.191 20.1622H42.8088C36.0244 20.1622 29.3355 20.64 28.3799 21.6911H28.0933C28.0933 21.8822 28.1888 22.2645 28.1888 22.2645C28.3799 23.7933 26.6599 27.3289 26.3733 28.7622C25.8955 30.96 25.5133 33.4445 27.1377 35.3556C28.571 37.0756 31.4377 38.9867 33.0622 40.5156C35.5466 42.7133 36.9799 43.9556 37.8399 47.2045C38.6999 50.3578 38.3177 53.7978 37.5533 56.9511C36.7888 59.8178 34.3999 62.3978 34.591 65.4556C34.6866 66.6022 34.8777 69.66 36.5022 69.66C38.1266 69.5645 47.8733 69.5645 49.4977 69.66C51.1222 69.7556 51.4088 66.6022 51.4088 65.4556C51.5999 62.3978 49.211 59.8178 48.4466 56.9511C47.6822 53.7978 47.2999 50.4533 48.1599 47.2045C49.0199 43.9556 50.4533 42.7133 52.9377 40.5156C54.5622 38.9867 57.4288 37.0756 58.8622 35.3556C60.4866 33.54 60.1044 31.0556 59.6266 28.7622Z" fill="#FF6A38"/>
<path id="Vector_12" d="M40.7066 67.6533C40.7066 66.7933 40.7066 65.36 40.4199 63.9267C40.4199 63.64 40.3244 63.3533 40.2288 63.0667C39.8466 61.5378 39.1777 60.4867 37.8399 60.9644C36.311 61.6333 37.171 64.6911 38.031 65.5511C38.4132 66.0289 39.1777 66.0289 39.6555 65.7422C39.8466 66.4111 39.9421 67.08 40.1332 67.7489C40.3244 68.0355 40.7066 68.0355 40.7066 67.6533ZM45.3888 67.6533C45.3888 66.7933 45.3888 65.36 45.6755 63.9267C45.6755 63.64 45.771 63.3533 45.8666 63.0667C46.2488 61.5378 46.9177 60.4867 48.2555 60.9644C49.7844 61.6333 48.9244 64.6911 48.0644 65.5511C47.6821 66.0289 46.9177 66.0289 46.4399 65.7422C46.2488 66.4111 46.1532 67.08 45.9621 67.7489C45.771 68.0355 45.3888 68.0355 45.3888 67.6533Z" fill="#FF8961"/>
<path id="Vector_13" d="M40.0379 67.7489C40.0379 67.08 40.0379 65.9333 39.7512 64.8822C39.7512 64.5955 39.6557 64.4044 39.5601 64.2133C39.1779 63.0667 38.509 62.1111 37.1712 62.5889C35.6423 63.1622 36.5023 65.4555 37.3623 66.22C37.7445 66.6022 38.509 66.6022 38.9868 66.3155C39.1779 66.7933 39.2734 67.3667 39.5601 67.8444C39.6557 68.0355 40.0379 67.94 40.0379 67.7489ZM46.1534 67.7489C46.1534 67.08 46.1534 65.9333 46.4401 64.8822C46.4401 64.5955 46.5357 64.4044 46.6312 64.2133C47.0134 63.0667 47.6823 62.1111 49.0201 62.5889C50.549 63.1622 49.689 65.4555 48.829 66.22C48.4468 66.6022 47.6823 66.6022 47.2045 66.3155C47.0134 66.7933 46.9179 67.3667 46.7268 67.8444C46.5357 68.0355 46.1534 67.94 46.1534 67.7489Z" fill="#C43100"/>
<path id="Vector_14" d="M44.7199 53.2245C44.7199 58.6711 43.9555 63.0667 42.9999 63.0667C42.0444 63.0667 41.2799 58.6711 41.2799 53.32C41.2799 47.9689 42.0444 43.5733 42.9999 43.5733C43.9555 43.4778 44.7199 47.8733 44.7199 53.2245ZM37.6488 46.44C37.8399 43.6689 37.0755 40.2289 35.1644 36.7889C32.7755 32.4889 29.3355 29.5267 26.3733 28.7622C25.8955 30.96 25.6088 33.4445 27.1377 35.26C28.571 36.98 31.4377 38.8911 33.0621 40.42C35.3555 42.5222 36.7888 43.7645 37.6488 46.44ZM59.6266 28.8578C56.6644 29.5267 53.2244 32.4889 50.8355 36.8845C48.9244 40.3245 48.1599 43.7645 48.351 46.5356C49.211 43.7645 50.6444 42.6178 52.9377 40.5156C54.5621 38.9867 57.4288 37.0756 58.8621 35.3556C60.391 33.54 60.1044 31.0556 59.6266 28.8578ZM57.4288 21.5C55.8044 20.64 49.5933 20.1622 43.191 20.1622H42.8088C36.5021 20.1622 30.1955 20.64 28.6666 21.5C29.431 23.8889 35.5466 32.7756 42.9999 32.7756C50.4533 32.7756 56.5688 23.8889 57.4288 21.5Z" fill="#FF8961"/>
</g>
</svg>
