<svg width="86" height="86" viewBox="0 0 86 86" fill="none" xmlns="http://www.w3.org/2000/svg">
<g id="virgo 2">
<path id="Vector" d="M43.0001 9.55556C24.5579 9.55556 9.55566 24.5578 9.55566 43C9.55566 61.4422 24.5579 76.4444 43.0001 76.4444C61.4423 76.4444 76.4445 61.4422 76.4445 43C76.4445 24.5578 61.4423 9.55556 43.0001 9.55556Z" fill="#D5CAE9"/>
<path id="Vector_2" d="M62.4932 19.9711C62.4932 19.9711 64.2132 28.38 63.9266 30.3867C63.7354 32.0111 62.8754 33.9222 62.4932 34.6867C62.111 35.26 66.9843 41.28 67.7488 42.3311C68.5132 43.3822 68.3221 44.3378 66.8888 45.7711C65.4554 47.2044 64.5954 46.9178 64.2132 47.9689C63.831 48.9244 64.5954 49.3067 64.7866 49.4978C65.1688 49.88 64.9777 50.4533 64.2132 50.8356C64.9777 51.2178 65.1688 51.8867 64.7866 52.7467C64.4043 53.6067 63.5443 53.8933 63.0666 54.9444C62.6843 56.0911 64.4999 58.0022 63.4488 60.2956C62.3977 62.5889 58.671 62.78 54.2754 61.06C52.9377 60.6778 51.6954 62.8756 51.2177 63.5444C50.7399 64.3089 48.6377 70.8067 47.2043 74.82C45.771 75.5844 29.7177 78.0689 23.6977 70.0422C24.9399 65.2644 27.4243 53.8933 27.0421 50.5489C26.6599 47.3 25.7999 44.8156 24.3666 42.9044C22.9332 40.9933 13.5688 20.64 29.8132 11.6578C46.1532 2.58 61.251 14.0467 62.4932 19.9711Z" fill="#FF6A38"/>
<path id="Vector_3" d="M62.4934 19.9711C62.4934 19.9711 64.2134 28.38 63.9267 30.3867C63.7356 32.0111 62.8756 33.9222 62.4934 34.6867C62.1111 35.26 66.9845 41.28 67.7489 42.3311C68.5134 43.3822 68.3223 44.3378 66.8889 45.7711C65.4556 47.2044 64.5956 46.9178 64.2134 47.9689C63.8311 48.9244 64.5956 49.3067 64.7867 49.4978C65.1689 49.88 64.9778 50.4533 64.2134 50.8356C64.9778 51.2178 65.1689 51.8867 64.7867 52.7467C64.4045 53.6067 63.5445 53.8933 63.0667 54.9444C62.6845 56.0911 64.5 58.0022 63.4489 60.2956C62.3978 62.5889 58.6711 62.78 54.2756 61.06C52.9378 60.6778 42.7134 56.0911 41.6623 52.9378C40.3245 49.02 25.8 44.9111 24.4623 43C23.0289 41.0889 13.6645 20.7356 29.9089 11.7533C46.1534 2.58 61.2511 14.0467 62.4934 19.9711Z" fill="#FF8961"/>
<path id="Vector_4" d="M61.4421 29.8133C60.4866 28.9533 58.0021 27.9978 55.7088 28.8578C53.511 29.7178 51.0266 30.6733 49.4021 32.4889C49.3066 32.5844 49.4021 32.68 49.4977 32.68C52.1732 31.2467 56.951 28.9533 60.5821 30.8644C61.9199 31.4378 62.6844 30.96 61.4421 29.8133Z" fill="#C43100"/>
<path id="Vector_5" d="M59.6266 34.4956C59.531 35.3556 58.9577 35.9289 58.2888 35.9289C57.7155 35.9289 52.651 35.4511 51.4088 34.7822C51.3132 34.8778 51.3132 34.9733 51.3132 35.0689C51.3132 36.12 57.7155 36.98 58.4799 36.98C59.2443 36.98 59.8177 36.12 59.8177 35.0689C59.6266 34.8778 59.6266 34.6867 59.6266 34.4956Z" fill="#471302"/>
<path id="Vector_6" d="M57.8111 43.9556C58.0978 42.2356 56.2822 40.42 53.6067 39.9422C50.9311 39.4644 48.5422 40.42 48.2556 42.14C47.9689 43.86 49.7844 45.6756 52.46 46.1533C55.1356 46.6311 57.5244 45.6756 57.8111 43.9556ZM59.9133 51.6C59.9133 51.6 62.8756 52.5556 64.4044 53.1289C64.5 52.9378 64.6911 52.8422 64.7867 52.6511C65.1689 51.7911 64.9778 51.1222 64.2133 50.74C65.0733 50.3578 65.1689 49.7844 64.7867 49.4022L64.6911 49.3067C62.9711 50.0711 59.9133 51.6 59.9133 51.6Z" fill="#FF6A38"/>
<path id="Vector_7" d="M14.3333 62.5889C14.3333 62.4933 14.3333 62.4933 14.2377 62.3978C14.1422 62.1111 13.6644 62.4933 13.9511 62.6845L14.1422 62.78C14.3333 62.8756 14.4288 62.6845 14.3333 62.5889Z" fill="#A82A00"/>
<path id="Vector_8" d="M78.7378 48.4467C78.1645 49.5933 77.6867 50.8356 77.209 51.9822C75.3934 54.2756 73.9601 57.0467 72.1445 59.34C69.7556 62.3978 66.9845 64.9778 63.7356 66.9844C58.2889 70.3289 51.5045 71.6667 45.5801 68.9911C38.7001 65.8378 36.4067 57.62 35.8334 50.74C35.6423 48.3511 35.7378 45.8667 35.8334 43.4778C37.0756 47.3 38.6045 51.4089 40.4201 55.04C40.4201 55.04 40.4201 55.1356 40.5156 55.1356V55.2311C40.7067 55.6133 41.4712 55.5178 41.4712 55.04C41.3756 52.5556 40.7067 50.0711 40.6112 47.5867C40.5156 45.1978 40.7067 42.8089 40.9934 40.5156C41.2801 38.0311 41.949 35.5467 42.8089 33.0622C43.4778 31.2467 44.3378 29.6222 45.1978 27.8067C44.8156 29.4311 44.6245 31.0556 44.5289 32.68C44.4334 35.1644 44.3378 38.8911 45.7712 41.0889C45.8667 41.28 46.249 41.1844 46.249 40.9933V40.0378C47.2045 37.7444 48.0645 35.3556 49.3067 33.1578C50.4534 31.0556 51.7912 29.0489 53.0334 26.9467C55.1356 23.22 57.429 17.8689 55.6134 13.76C57.8112 14.2378 59.4356 16.2444 60.7734 17.7733C60.9645 17.9644 61.0601 18.1556 61.1556 18.3467C61.5378 19.1111 61.8245 19.8756 62.1112 20.5444C62.8756 22.5511 63.3534 24.5578 63.8312 26.66C63.8312 28.4756 63.6401 30.2911 63.5445 32.2022C63.5445 32.4889 64.0223 32.5844 64.1178 32.2978C64.1178 32.2022 64.2134 32.1067 64.2134 32.0111C64.2134 32.1067 64.1178 32.2978 64.1178 32.3933C64.1178 32.4889 64.2134 32.4889 64.2134 32.3933C66.7934 27.7111 69.0867 17.4867 65.0734 13.0911C63.9267 11.2756 62.1112 9.65111 60.2956 8.69555C57.3334 7.16666 53.2245 7.16666 49.8801 7.93111C44.1467 5.25555 37.1712 4.20444 30.769 5.16C27.5201 5.63778 24.3667 6.78444 21.7867 8.50444C21.0223 9.07778 20.1623 9.74666 19.3978 10.4156C19.2067 10.5111 19.2067 10.5111 19.1112 10.6067C11.1801 15.6711 7.16673 27.6156 6.11562 35.9289C4.68229 47.7778 10.0334 61.2511 18.3467 69.66C28.3801 79.8844 43.5734 83.8978 57.1423 79.5022C70.1378 75.2978 78.6423 62.1111 80.1712 48.8289C80.1712 48.0644 79.1201 47.8733 78.7378 48.4467Z" fill="#C43100"/>
<path id="Vector_9" d="M61.1556 73.6733C60.2 72.8133 56.6645 70.6155 55.6133 72.5267C55.5178 72.6222 55.6133 72.7178 55.7089 72.8133C56.3778 73.1 57.0467 72.9089 57.8111 73.1H57.9067C56.9511 74.5333 56.3778 76.2533 55.5178 77.6867C55.1356 78.26 54.8489 78.8333 54.4667 79.4067C54.4667 77.6867 53.32 76.1578 52.0778 75.0111C50.8356 73.7689 48.6378 72.24 46.8222 72.3355C46.44 72.3355 46.3445 72.8133 46.6311 73.0044C47.2045 73.3867 47.8733 73.5778 48.5422 73.8644C48.8289 74.0555 49.1156 74.2467 49.4022 74.3422C47.6822 75.5844 46.5356 78.1644 45.1022 79.6933C44.6245 80.2667 44.0511 80.6489 43.4778 81.1267C44.2422 81.1267 45.0067 81.2222 45.7711 81.2222C47.3956 79.8844 49.7845 77.4955 50.5489 75.3933C50.6445 75.4889 50.74 75.4889 50.8356 75.5844C52.1733 76.8267 52.7467 78.5467 53.8934 79.98L53.9889 80.0756C53.9889 80.1711 53.8934 80.1711 53.8934 80.2667C54.3711 80.1711 54.8489 79.98 55.4222 79.8844C55.8045 79.3111 56.1867 78.8333 56.5689 78.26C57.5245 76.8267 58.7667 75.2022 58.8622 73.4822C59.6267 73.8644 60.2956 74.4378 60.9645 75.1067C61.5378 75.68 62.0156 76.3489 62.4934 77.0178C62.8756 76.8267 63.2578 76.6355 63.5445 76.3489C62.8756 75.2022 61.8245 74.2467 61.1556 73.6733ZM33.3489 79.12C34.0178 79.3111 34.6867 79.5978 35.4511 79.7889C38.6045 79.12 41.7578 78.0689 42.7133 75.3933C42.8089 75.0111 42.4267 74.7244 42.14 74.9155C41.3756 75.3933 40.7067 75.9667 40.0378 76.54C40.3245 75.2978 39.8467 73.4822 39.7511 72.5267C39.4645 70.9022 38.5089 67.6533 36.8845 66.8889C36.6933 66.7933 36.5022 66.9844 36.5978 67.1755C37.3622 68.7044 37.84 70.0422 38.2222 71.4755C35.8333 71.8578 33.7311 73.2911 31.5333 74.4378C32.7756 72.4311 33.1578 69.3733 33.4445 67.4622C33.9222 64.5955 34.0178 61.06 32.4889 58.5755C32.3933 58.3844 32.2022 58.48 32.2022 58.6711C32.7756 61.92 32.5845 64.8822 31.9156 68.0355C31.4378 70.4244 29.7178 73.0044 29.7178 75.3933C29.3356 75.5844 28.8578 75.7755 28.4756 75.8711C27.9978 76.0622 27.52 76.1578 27.0422 76.1578C27.6156 76.4444 28.1889 76.8267 28.7622 77.1133C32.1067 76.4444 35.8333 73.96 38.4133 72.24C38.5089 72.5267 38.5089 72.8133 38.5089 73.1955C38.6045 74.3422 38.2222 76.2533 38.7956 77.3044C37.84 77.7822 36.7889 78.0689 35.8333 78.3555C34.8778 78.5467 34.1133 78.8333 33.3489 79.12Z" fill="#A82A00"/>
<path id="Vector_10" d="M44.5289 79.5978C44.72 79.7889 44.9111 79.6933 45.0067 79.5022C45.8667 78.26 44.6245 75.68 44.0511 74.4378C43.4778 73.1 42.7134 71.2844 41.28 70.8067C41.1845 70.8067 41.1845 70.8067 41.1845 70.9022C41.4711 72.4311 42.5223 73.7689 43.0956 75.2022C43.5734 76.6356 43.4778 78.7378 44.5289 79.5978ZM30.8645 70.1378C31.1511 69.9467 30.96 69.5645 30.6734 69.5645C28.6667 69.4689 26.7556 69.3733 24.8445 69.3733C27.4245 66.1245 27.7111 61.7289 28.4756 57.8111C29.7178 51.5045 33.8267 45.8667 35.7378 39.7511C35.8334 39.56 35.5467 39.4645 35.4511 39.6556C32.4889 44.3378 30.0045 49.1156 27.9023 54.2756C27.7111 54.8489 27.52 55.3267 27.3289 55.9C27.2334 55.8045 27.2334 55.7089 27.0423 55.8045C23.6023 56.2822 20.7356 56.2822 17.3911 55.3267C17.2 55.4222 16.9134 55.3267 16.8178 55.1356C12.9956 53.9889 9.93781 51.6 6.97559 49.02C7.07114 49.5933 7.26225 50.0711 7.35781 50.6445C11.8489 55.6133 21.5 60.3911 27.1378 56.3778C26.66 58.2889 26.3734 60.2956 26.0867 62.2067C25.7045 64.7867 24.1756 66.7933 23.9845 69.3733C21.7867 69.2778 19.5889 68.9911 17.3911 68.4178C17.2 68.3222 17.0089 68.3222 16.8178 68.2267C17.2956 68.7045 17.7734 69.2778 18.2511 69.7556C18.4423 69.9467 18.7289 70.1378 18.92 70.4244C22.8378 71.6667 26.9467 71.9533 30.8645 70.1378Z" fill="#A82A00"/>
<path id="Vector_11" d="M17.3912 55.1356C17.3912 55.1356 17.4867 55.1356 17.4867 55.04C23.2201 49.9756 26.1823 39.8467 26.9467 32.4889C26.9467 32.2978 26.5645 32.1067 26.469 32.3933C25.1312 35.5467 24.3667 38.8911 23.2201 42.14C21.5956 46.7267 19.1112 50.3578 16.7223 54.5622C16.6267 54.7533 16.6267 54.8489 16.7223 55.04H16.8179C17.1045 55.1356 17.2956 55.1356 17.3912 55.1356Z" fill="#A82A00"/>
<path id="Vector_12" d="M29.8133 24.3667C29.8133 21.9778 28.8578 21.3089 27.7111 21.3089C26.5644 21.3089 25.6089 21.9778 25.6089 24.3667C25.6089 26.7556 27.7111 29.9089 27.7111 29.9089C27.7111 29.9089 29.8133 26.7556 29.8133 24.3667Z" fill="#FDDD85"/>
<path id="Vector_13" d="M23.9845 25.6089C21.6912 24.8444 20.7356 25.5133 20.449 26.66C20.0667 27.7111 20.449 28.8578 22.7423 29.6222C25.0356 30.3867 28.6667 29.3356 28.6667 29.3356C28.6667 29.3356 26.2778 26.3733 23.9845 25.6089Z" fill="#FDDD85"/>
<path id="Vector_14" d="M23.3155 31.5333C21.8821 33.4444 22.2643 34.5911 23.2199 35.26C24.1755 35.9289 25.3221 35.9289 26.7555 34.0178C28.1888 32.1067 28.3799 28.2844 28.3799 28.2844C28.3799 28.2844 24.7488 29.6222 23.3155 31.5333Z" fill="#FDDD85"/>
<path id="Vector_15" d="M28.7623 34.0178C30.1956 35.9289 31.3423 35.9289 32.2978 35.26C33.2534 34.5911 33.5401 33.4444 32.2023 31.5333C30.769 29.6222 27.2334 28.2844 27.2334 28.2844C27.2334 28.2844 27.4245 32.1067 28.7623 34.0178Z" fill="#FDDD85"/>
<path id="Vector_16" d="M32.7755 29.6222C35.0689 28.8578 35.4511 27.8067 35.0689 26.66C34.6866 25.6089 33.7311 24.8444 31.5333 25.6089C29.24 26.3733 26.8511 29.3356 26.8511 29.3356C26.8511 29.3356 30.5777 30.2911 32.7755 29.6222Z" fill="#FDDD85"/>
<path id="Vector_17" d="M29.3356 29.1444C29.3356 28.2844 28.6667 27.52 27.7111 27.52C26.7556 27.52 26.0867 28.1889 26.0867 29.1444C26.0867 30.0044 26.7556 30.7689 27.7111 30.7689C28.6667 30.7689 29.3356 30.1 29.3356 29.1444Z" fill="#FDC11C"/>
</g>
</svg>
