<svg width="70" height="70" viewBox="0 0 70 70" fill="none" xmlns="http://www.w3.org/2000/svg">
<g id="virgo 1" clip-path="url(#clip0_4_133)">
<path id="Vector" d="M35 70C54.33 70 70 54.33 70 35C70 15.67 54.33 0 35 0C15.67 0 0 15.67 0 35C0 54.33 15.67 70 35 70Z" fill="#E5CFCA"/>
<path id="Vector_2" d="M48.2999 19.7C48.7999 18 49.2999 7.10001 37.8999 7.70001C35.2999 7.80001 33.7999 8.90001 33.2999 10.6C32.7999 12.3 32.0999 16.3 31.9999 17.9C31.8999 19.8 32.1999 22.5 32.1999 22.5C32.1999 22.5 35.8999 39.2 37.1999 40.2C38.2999 41.1 39.9999 42.2 42.9999 42C44.7999 41.9 46.3999 40.6 47.1999 38.8C48.9999 35 46.4999 29.7 46.9999 27.2C47.2999 25.3 47.5999 22.2 48.2999 19.7Z" fill="#74625C"/>
<path id="Vector_3" d="M43.7 10.2C41.8 7.09999 37.3 7.79999 37.3 7.79999C35.3 9.09999 35.6 13.9 35.6 13.9C35.7 16.1 36.1 16.4 36.1 16.4C37.1 19.7 40.2 20.3 40.6 20.3C43.5 20.1 43.9 18 44.1 17.4C44.3 16.8 44.4 14.6 44.4 14.6C44.9 12 43.7 10.2 43.7 10.2Z" fill="#AC9994"/>
<path id="Vector_4" d="M38.6 14.3C38 14.3 37.5 14.9 37.5 14.9C37.5 15 38 15.4 38.7 15.4C39.3 15.4 39.8 14.8 39.8 14.8C39.8 14.8 39.3 14.3 38.6 14.3Z" fill="#666666"/>
<path id="Vector_5" d="M38.7001 14.5C38.1001 14.5 37.6001 15 37.6001 15C37.6001 15.1 38.1001 15.5 38.7001 15.4C39.3001 15.4 39.8001 14.9 39.8001 14.9C39.8001 14.9 39.2001 14.4 38.7001 14.5Z" fill="#F7F1ED"/>
<path id="Vector_6" d="M38.7001 15.4C38.921 15.4 39.1 15.2209 39.1 15C39.1 14.7791 38.921 14.6 38.7001 14.6C38.4791 14.6 38.3 14.7791 38.3 15C38.3 15.2209 38.4791 15.4 38.7001 15.4Z" fill="#5B5B5B"/>
<path id="Vector_7" d="M38.6999 15.3C38.8656 15.3 38.9999 15.1657 38.9999 15C38.9999 14.8343 38.8656 14.7 38.6999 14.7C38.5342 14.7 38.3999 14.8343 38.3999 15C38.3999 15.1657 38.5342 15.3 38.6999 15.3Z" fill="#7C6A65"/>
<path id="Vector_8" d="M42 14C41.4 14.1 41 14.7 41 14.7C41 14.7 41.6 15.2 42.2 15.1C42.8 15 43.2 14.5 43.2 14.4C43.3 14.3 42.7 13.9 42 14Z" fill="#666666"/>
<path id="Vector_9" d="M42.1001 14.1C41.5001 14.2 41.1001 14.8 41.1001 14.8C41.1001 14.8 41.7001 15.2 42.2001 15.1C42.8001 15 43.2001 14.6 43.2001 14.4C43.2001 14.4 42.7001 14 42.1001 14.1Z" fill="#F7F1ED"/>
<path id="Vector_10" d="M42.0999 15C42.3209 15 42.5 14.8209 42.5 14.6C42.5 14.3791 42.3209 14.2 42.0999 14.2C41.879 14.2 41.7 14.3791 41.7 14.6C41.7 14.8209 41.879 15 42.0999 15Z" fill="#5B5B5B"/>
<path id="Vector_11" d="M42.1 14.9C42.2657 14.9 42.4001 14.7657 42.4001 14.6C42.4001 14.4343 42.2657 14.3 42.1 14.3C41.9344 14.3 41.8 14.4343 41.8 14.6C41.8 14.7657 41.9344 14.9 42.1 14.9Z" fill="#7C6A65"/>
<path id="Vector_12" d="M40.6999 17.9L39.3999 18.1L40.7999 18.3L42.0999 17.9H40.6999Z" fill="white"/>
<path id="Vector_13" d="M40.7999 18.2C40.3999 18.2 39.3999 18.1 39.3999 18.1C39.3999 18.1 39.8999 18.9 40.7999 18.8C41.6999 18.7 42.0999 17.9 42.0999 17.9C42.0999 17.9 41.1999 18.2 40.7999 18.2Z" fill="#E7E4E3"/>
<path id="Vector_14" d="M41.3999 17.6C41.0999 17.6 40.7999 17.7 40.7999 17.7C40.7999 17.7 40.4999 17.6 40.0999 17.7C39.7999 17.7 39.3999 18.1 39.3999 18.1H40.7999C41.2999 18.1 42.0999 18 42.0999 18C42.0999 18 41.6999 17.6 41.3999 17.6Z" fill="#E7E4E3"/>
<path id="Vector_15" d="M39.6001 18L40.4001 17.8C39.9001 17.6 39.6001 18 39.6001 18Z" fill="#E8B1A0"/>
<path id="Vector_16" d="M39.5 13.4C39.5 13.4 38.8999 13.4 38.5999 13.3C38.3999 13.3 38 13.3 37.7 13.4C37.4 13.5 36.7 14 36.7 14C36.7 14 37.4 13.7 37.7 13.6H38.5999C38.8999 13.6 39.5999 13.8 39.5999 13.8L39.5 13.4ZM43 13C42.7 13 42.2999 13 42.0999 13.1C41.8999 13.2 41.2 13.3 41.2 13.3V13.8C41.2 13.8 41.9 13.5 42.2 13.4C42.5 13.3 42.7999 13.3 43.0999 13.2C43.3999 13.2 44.2 13.4 44.2 13.4C44.2 13.4 43.2999 13 43 13ZM28.5 25C26.1 25 22.9 23.4 22.9 23.4C18.5999 21.1 14.9999 22.5 14.9999 22.5C10.8 23.8 9.29995 26.2 9.69995 28.8C10.0999 31.4 12.6 32.1 12.6 32.1C11.8 30.4 13.3999 29 13.3999 29C16.3999 26.5 19.7 29 19.7 29C21.5 30.2 24.4 32.9 24.4 32.9C28.2999 35.9 32.7999 33.5 32.7999 33.5L33.7999 24.1C31.5 25.4 28.5 25 28.5 25Z" fill="#74625C"/>
<path id="Vector_17" d="M33.5001 25.8C30.7001 26.3 27.9001 27.4 22.0001 24.2C20.1001 23.1 15.9001 22.9 14.1001 23.9C8.7001 27 11.5001 30.2 11.5001 30.2C11.6001 27.3 15.6001 24.8 18.7001 26.2C26.0001 29.4 27.1001 31.2 31.7001 30.6C36.4001 29.9 33.5001 25.8 33.5001 25.8Z" fill="#887771"/>
<path id="Vector_18" d="M35.5 30.4L27.9 34.1C26.9 36.6 24.7999 37.6 24.7999 37.6C23.3999 37.8 21.4 36.9 19.2 36.9C16.3 36.9 16.2 39.4 16.2 39.4C16.2 40.9 18.1 40.9 18.1 40.9C17.3 38.3 20 38.9 20.5 39.3C21.6 40.1 22.8 40.8 24.2 41.3C25.6 41.8 29.7 40.8 29.7 40.8C31.8 40.5 36.7999 32.6 36.7999 32.6L35.5 30.4Z" fill="#74625C"/>
<path id="Vector_19" d="M53.9 53.3C49 43.4 36.5 44 36.5 44C39.5 40.4 40 32.7 40 32.7C41.4 33.3 42.5 32.3 42.8 31.8C44.1 29.4 41.2 26.4 41.2 26.4C40.4 25.4 41.3 24.2 41.3 24.2C43.2 21.1 40.2 19.5 39.2 19.4C34.8 19.3 34.4 21.2 33.4 24.2C32.5 26.8 29 34.2 29 34.2C26.8 37 22.9 44.6 22.5 45.7C22.2 46.7 24.7 47.2 25 46.5C25.5 45.6 26.2 43.1 26.2 43.1L29.3 38.2C29.9 37.4 32.2 34.9 32.2 34.9C32.9 34.1 34.6 31.6 34.9 31.3C35 31.2 34.3 33.1 33.9 34.1C32.6 37.4 30.4 40.1 30.4 40.1C26.6 42.9 26.3 46.1 26.3 46.1C26 49.6 29.2 51.6 29.2 51.6C27.8 52.1 25.6 51.9 25.6 51.9C24.3 51.4 22.9 50.9 21.7 51.6C20.5 52.2 17.8 53.3 17.8 53.3C14.8 54.3 14.3 56.5 14.6 57.4C14.9 58.3 17.3 57.8 17.3 57.8C18.3 57.8 28.4 55.3 28.4 55.3C33 54.7 45.9 55.9 45.9 55.9C55.2 56.9 53.9 53.3 53.9 53.3Z" fill="#AC9994"/>
<path id="Vector_20" d="M23.8001 43.2L23.6001 43.8C23.2001 44.3 23.0001 44.6 22.7001 45.2C22.4001 45.8 22.1001 46.9 22.1001 46.9L22.6001 47.2L23.5001 47.7L24.8001 48.2L25.7001 45.9C25.7001 45.9 25.8001 44.8 25.8001 44.6L26.1001 43.8C25.4001 43.4 24.6001 43.2 23.8001 43.2Z" fill="#AC9994"/>
<path id="Vector_21" d="M24.6 47.5C24.4 47.4 24.2 47.5 24.1 47.7L23.3 50.2C23.2 50.4 23.3 50.6 23.5 50.6C23.7 50.7 23.8 50.6 23.9 50.4L24.8 47.9C24.9 47.8 24.8 47.6 24.6 47.5Z" fill="#AC9994"/>
<path id="Vector_22" d="M23.9001 47.3C23.7001 47.2 23.5001 47.3 23.4001 47.5L22.4001 50.5C22.3001 50.7 22.4001 50.9 22.6001 50.9C22.8001 51 23.0001 50.9 23.0001 50.7L24.2001 47.7C24.2001 47.5 24.1001 47.3 23.9001 47.3Z" fill="#AC9994"/>
<path id="Vector_23" d="M23.1001 47C22.9001 46.9 22.7001 47 22.6001 47.2L21.7001 49.7C21.6001 49.9 21.7001 50.1 21.9001 50.2C22.1001 50.3 22.3001 50.2 22.4001 50L23.4001 47.6C23.4001 47.3 23.3001 47.1 23.1001 47ZM22.4001 46.6C22.2001 46.5 22.1001 46.7 22.0001 46.9L21.4001 48.3C21.3001 48.5 21.4001 48.7 21.5001 48.7C21.6001 48.8 21.8001 48.7 21.9001 48.5L22.5001 47.1C22.7001 46.9 22.6001 46.7 22.4001 46.6ZM25.9001 46.9C25.8001 46.5 25.6001 45.8 25.6001 45.8L24.6001 46.4L25.1001 47.1C25.1001 47.1 25.0001 47.9 25.2001 48.4C25.2001 48.5 25.4001 49 25.7001 48.8C25.8001 48.7 25.7001 48.3 25.8001 47.9C25.8001 47.6 25.9001 47.1 25.9001 46.9Z" fill="#AC9994"/>
<path id="Vector_24" d="M25.8001 48.3C25.8001 48.3 25.5001 48.7 25.7001 49C25.7001 48.9 25.9001 49 25.8001 48.3Z" fill="#EFE4DC"/>
<path id="Vector_25" d="M21.8 48.3C21.7 48.3 21.6 48.3 21.5 48.4V48.5C21.5 48.6 21.5 48.7 21.6 48.8C21.7 48.8 21.8 48.8 21.9 48.7C21.9 48.4 21.9 48.3 21.8 48.3Z" fill="#E8C7AF"/>
<path id="Vector_26" d="M21.7999 48.3C21.6999 48.3 21.5999 48.3 21.4999 48.4C21.4999 48.4 21.4999 48.5 21.3999 48.5C21.3999 48.6 21.3999 48.8 21.4999 48.8C21.5999 48.9 21.6999 48.7 21.7999 48.6V48.5C21.8999 48.4 21.8999 48.3 21.7999 48.3Z" fill="#F7F3F0"/>
<path id="Vector_27" d="M21.8 48.3C21.7 48.3 21.6 48.3 21.5 48.4V48.5C21.5 48.6 21.5 48.7 21.6 48.8C21.7 48.8 21.8 48.8 21.9 48.7C21.9 48.4 21.9 48.3 21.8 48.3Z" fill="#EFE4DC"/>
<path id="Vector_28" d="M22.1 49.6C22 49.5 21.9 49.6 21.8 49.7V49.8C21.8 50 21.8 50.1 21.9 50.1C22 50.1 22.2001 50.1 22.2001 50V49.9C22.3001 49.8 22.2 49.7 22.1 49.6Z" fill="#E8C7AF"/>
<path id="Vector_29" d="M22.1 49.6C22 49.6 21.8999 49.6 21.7999 49.7L21.7 49.8C21.7 50 21.6999 50.1 21.7999 50.2C21.9999 50.3 22.1 50.1 22.1 50L22.2 49.9C22.3 49.8 22.2 49.7 22.1 49.6Z" fill="#F7F3F0"/>
<path id="Vector_30" d="M22.1 49.6C22 49.6 21.9 49.6 21.8 49.7V49.8C21.8 50 21.8 50.1 21.9 50.1C22 50.1 22.1001 50.1 22.2001 50V49.9C22.3001 49.8 22.2 49.7 22.1 49.6Z" fill="#EFE4DC"/>
<path id="Vector_31" d="M22.6999 50.4C22.5999 50.4 22.3999 50.4 22.3999 50.5V50.6C22.3999 50.8 22.3999 50.9 22.5999 50.9C22.6999 50.9 22.8999 50.9 22.8999 50.7V50.6C22.8999 50.5 22.7999 50.4 22.6999 50.4Z" fill="#E8C7AF"/>
<path id="Vector_32" d="M22.7001 50.4C22.6001 50.4 22.5 50.4 22.4 50.5C22.4 50.5 22.4 50.6 22.3 50.6C22.3 50.8 22.3 50.9 22.4 51C22.6 51 22.7001 50.9 22.7001 50.8V50.7C22.9001 50.5 22.8001 50.4 22.7001 50.4Z" fill="#F7F3F0"/>
<path id="Vector_33" d="M22.6999 50.4C22.5999 50.4 22.4999 50.4 22.3999 50.5V50.6C22.3999 50.8 22.3999 50.9 22.5999 50.9C22.6999 50.9 22.7999 50.9 22.8999 50.7V50.6C22.8999 50.5 22.7999 50.4 22.6999 50.4Z" fill="#EFE4DC"/>
<path id="Vector_34" d="M23.6999 50.2C23.5999 50.2 23.3999 50.2 23.3999 50.3V50.4C23.3999 50.6 23.3999 50.7 23.5999 50.7C23.6999 50.7 23.8999 50.7 23.8999 50.5V50.4C23.8999 50.3 23.7999 50.3 23.6999 50.2Z" fill="#E8C7AF"/>
<path id="Vector_35" d="M23.7001 50.2C23.6001 50.2 23.5 50.2 23.4 50.3C23.4 50.3 23.4 50.4 23.3 50.4C23.3 50.6 23.3 50.7 23.4 50.8C23.6 50.8 23.7001 50.7 23.7001 50.6V50.5C23.9001 50.4 23.8001 50.3 23.7001 50.2Z" fill="#F7F3F0"/>
<path id="Vector_36" d="M23.6999 50.2C23.5999 50.2 23.4999 50.2 23.3999 50.3V50.4C23.3999 50.6 23.3999 50.7 23.5999 50.7C23.6999 50.7 23.7999 50.7 23.8999 50.5V50.4L23.6999 50.2Z" fill="#EFE4DC"/>
<path id="Vector_37" d="M25.1999 46.7C25.1999 46.7 25.1999 46.9 25.0999 47.2C25.0999 47.4 24.8999 47.9 24.8999 47.9C24.8999 47.9 25.0999 47.4 25.1999 47.2V46.7Z" fill="#C69661"/>
<path id="Vector_38" d="M34.0999 50.4C32.6999 51.2 29.2 51.8 29.2 51.8C31.7 52.5 34.6999 50.8 35.5999 50.4C39.8999 48.7 47.2 51.1 47.2 51.1C42.8 48.2 36.8999 48.9 34.0999 50.4ZM34.2999 33.2L35.9 30L38 25.9C36.6 26.4 34.6999 32 34.2999 33.2ZM41.5999 10.3L39.7999 8.60001L37.7 7.70001C34.3 8.20001 32.4999 12.7 34.5999 21.2C35.1999 23.6 34.1 28.4 31.5 31.2C31.5 31.2 37.6 25.8 37.4 22.4C37 17.3 34.2999 11.2 41.5999 10.3Z" fill="#887771"/>
<path id="Vector_39" d="M37.4999 7.70001C39.5999 8.30001 41.5999 9.90001 42.8999 11.9C45.3999 15.7 43.5999 21.8 42.8999 23C41.8999 24.8 39.9999 30.3 41.7999 34.6C41.7999 34.6 42.2999 36.5 40.3999 37.8C40.3999 37.8 38.2999 39.1 37.3999 37.9C37.3999 37.9 37.6999 40 40.8999 40C40.8999 40 44.9999 39 44.7999 35.2C44.5999 32.2 45.2999 28.1 45.9999 25.1C50.4999 6.00001 37.4999 7.70001 37.4999 7.70001Z" fill="#887771"/>
<path id="Vector_40" d="M39.2 20.3C40.5 20.9 41.2 23.4 41.2 23.4C42 20.4 39.2 20.3 39.2 20.3Z" fill="#887771"/>
</g>
<defs>
<clipPath id="clip0_4_133">
<rect width="70" height="70" fill="white"/>
</clipPath>
</defs>
</svg>
